<svg width="213" height="187" viewBox="0 0 213 187" fill="none" xmlns="http://www.w3.org/2000/svg">
<path d="M22.3986 2.58473L205.26 23.8332C208.997 24.2674 211.672 27.6457 211.237 31.3825L198.15 144.01C197.716 147.747 194.338 150.422 190.601 149.987L7.73946 128.739C4.00269 128.305 1.32782 124.927 1.76203 121.19L14.8494 8.56216C15.2836 4.82539 18.6618 2.15052 22.3986 2.58473Z" fill="url(#paint0_linear_7345_75111)"/>
<path d="M205.244 23.9756C208.893 24.3997 211.53 27.7182 211.105 31.3785L198.019 143.995C197.595 147.644 194.276 150.282 190.616 149.857L7.75475 128.608C4.10539 128.184 1.46787 124.866 1.89319 121.205L14.9805 8.57774C15.4046 4.92838 18.7231 2.29086 22.3834 2.71619L205.245 23.9647M205.277 23.6915L22.4151 2.44303C18.6019 1.99993 15.1505 4.73275 14.7074 8.546L1.62004 121.174C1.17694 124.987 3.90975 128.438 7.72301 128.881L190.584 150.13C194.398 150.573 197.849 147.84 198.292 144.027L211.379 31.3993C211.823 27.586 209.09 24.1346 205.277 23.6915Z" fill="#B5B5B5"/>
<path opacity="0.08" d="M87.2527 42.5555L23.4654 35.1434C21.5585 34.9218 19.8331 36.288 19.6115 38.1949L10.4181 117.312C10.1965 119.219 11.5627 120.944 13.4696 121.166L77.2569 128.578C79.1638 128.799 80.8892 127.433 81.1108 125.526L90.3042 46.4094C90.5258 44.5025 89.1596 42.7771 87.2527 42.5555Z" fill="#336F91"/>
<path d="M45.3088 13.3635L24.5271 10.9486C23.5737 10.8379 22.711 11.521 22.6002 12.4744L21.168 24.7992C21.0573 25.7526 21.7403 26.6153 22.6938 26.7261L43.4755 29.141C44.4289 29.2517 45.2916 28.5686 45.4024 27.6152L46.8346 15.2904C46.9453 14.337 46.2622 13.4743 45.3088 13.3635Z" fill="#4363C0"/>
<path d="M101.175 37.5795C105.443 28.2737 101.351 17.2849 92.056 13.017C82.7503 8.74914 71.7615 12.8411 67.4936 22.1358C63.2257 31.4416 67.3176 42.4304 76.6124 46.6983C85.9182 50.9662 96.9069 46.8743 101.175 37.5795Z" fill="white"/>
<path fill-rule="evenodd" clip-rule="evenodd" d="M67.4828 22.1354C65.2278 27.0413 65.3048 32.4311 67.2518 37.04C72.9276 37.018 78.3395 33.7621 80.8585 28.2622C83.3774 22.7624 82.3104 16.5365 78.6255 12.2246C73.8626 13.7646 69.7377 17.2185 67.4828 22.1354Z" fill="#003350"/>
<path d="M136.374 41.9779C140.642 32.6721 136.55 21.6834 127.255 17.4155C117.949 13.1476 106.961 17.2395 102.693 26.5343C98.4249 35.8401 102.517 46.8288 111.812 51.0967C121.117 55.3646 132.106 51.2727 136.374 41.9779Z" fill="white"/>
<path fill-rule="evenodd" clip-rule="evenodd" d="M102.682 26.5358C100.427 31.4417 100.504 36.8315 102.451 41.4404C108.127 41.4184 113.539 38.1625 116.058 32.6626C118.577 27.1628 117.51 20.9369 113.825 16.625C109.062 18.165 104.937 21.6189 102.682 26.5358Z" fill="#003350"/>
<path fill-rule="evenodd" clip-rule="evenodd" d="M104.354 34.4766C105.265 34.4766 106.004 35.2153 106.004 36.1265C106.004 39.2274 104.36 41.3107 102.223 42.7654C100.226 44.1257 97.6324 45.0518 95.2894 45.8886C95.2326 45.9089 95.1759 45.9291 95.1194 45.9493C92.6162 46.8438 90.3937 47.6545 88.7721 48.7756C87.2416 49.8338 86.4244 51.0393 86.4244 52.7801C86.4244 54.5281 87.3015 55.8884 88.9146 57.0248C90.5729 58.193 92.8835 59.0181 95.3485 59.5793C97.7885 60.1347 100.249 60.403 102.113 60.5311C103.042 60.5949 103.814 60.6233 104.351 60.6358C104.62 60.6421 104.829 60.6444 104.969 60.6451C105.039 60.6454 105.092 60.6454 105.126 60.6453L105.164 60.6451L105.172 60.6451L105.173 60.6451L105.178 60.645L105.185 60.645L105.189 60.645C105.189 60.645 105.19 60.645 105.19 62.2949C105.208 63.9448 105.207 63.9448 105.207 63.9448L105.201 63.9449L105.193 63.9449L105.192 63.9449L105.187 63.945L105.164 63.9454C105.136 63.946 105.091 63.9473 105.03 63.9501C104.908 63.9557 104.728 63.9674 104.508 63.9911C104.061 64.0396 103.494 64.1341 102.95 64.311C101.767 64.6955 101.34 65.2028 101.34 65.8698C101.34 66.4454 101.49 66.7771 101.647 66.9876C101.816 67.2151 102.082 67.4172 102.471 67.5788C103.294 67.9209 104.36 67.9528 105.01 67.8816C105.916 67.7823 106.731 68.4362 106.83 69.342C106.929 70.2478 106.276 71.0626 105.37 71.1619C104.414 71.2667 102.73 71.2601 101.204 70.626C100.419 70.2994 99.6114 69.779 99.0005 68.9591C98.3771 68.1223 98.0402 67.0818 98.0402 65.8698C98.0402 64.9184 98.2889 64.1413 98.6784 63.5084C97.3924 63.3426 96.007 63.1135 94.616 62.7969C91.9771 62.1962 89.1838 61.251 87.0142 59.7225C84.7994 58.1623 83.1245 55.8995 83.1245 52.7801C83.1245 49.6536 84.7548 47.5413 86.8955 46.0613C88.9245 44.6584 91.564 43.7154 93.9373 42.8675L94.0091 42.8418C96.5171 41.9457 98.7412 41.1441 100.366 40.0378C101.901 38.9928 102.704 37.8161 102.704 36.1265C102.704 35.2153 103.443 34.4766 104.354 34.4766ZM105.19 62.2949L105.207 63.9448L105.19 60.645V62.2949Z" fill="#003350"/>
<path fill-rule="evenodd" clip-rule="evenodd" d="M105.19 70.0054C105.19 68.3555 105.189 68.3555 105.189 68.3555L105.185 68.3555L105.177 68.3555L105.157 68.3557C105.14 68.3558 105.119 68.3562 105.092 68.3567C105.039 68.3579 104.967 68.3601 104.877 68.3642C104.698 68.3725 104.449 68.3888 104.153 68.4209C103.569 68.4842 102.761 68.6131 101.93 68.8831C100.363 69.3923 98.04 70.6725 98.04 73.5804C98.04 74.7339 98.3094 75.747 98.8718 76.5814C99.4329 77.4138 100.198 77.9385 100.971 78.2661C102.425 78.8822 104.135 78.8822 105.182 78.8822H105.19C106.101 78.8822 106.84 78.1435 106.84 77.2323C106.84 76.321 106.101 75.5823 105.19 75.5823C104.036 75.5823 103.001 75.5422 102.259 75.2277C101.932 75.0892 101.735 74.9244 101.608 74.7369C101.483 74.5514 101.34 74.2142 101.34 73.5804C101.34 72.9133 101.767 72.406 102.95 72.0215C103.494 71.8446 104.061 71.7501 104.508 71.7017C104.728 71.6779 104.908 71.6663 105.03 71.6606C105.091 71.6578 105.136 71.6565 105.164 71.6559L105.191 71.6554C105.193 71.6554 105.194 71.6554 105.194 71.6554L105.193 71.6554L105.191 71.6554C106.102 71.6548 106.84 70.9163 106.84 70.0054C106.84 69.0942 106.101 68.3555 105.19 68.3555V70.0054Z" fill="#003350"/>
<path d="M68.9457 4.92049C78.3285 2.35755 88.2612 2.86354 97.358 6.30646C99.349 7.05444 100.207 3.87552 98.238 3.12753C88.6242 -0.513382 77.9875 -0.975371 68.0767 1.74157C66.0307 2.30255 66.8997 5.48148 68.9567 4.92049H68.9457Z" fill="#003350"/>
<path d="M109.92 11.5977C113.956 9.33178 118.169 7.37382 122.525 5.77886C123.361 5.47087 123.922 4.65688 123.68 3.7439C123.46 2.94092 122.492 2.28094 121.645 2.58893C117.025 4.28289 112.549 6.32885 108.259 8.73779C106.411 9.78277 108.072 12.6317 109.92 11.5867V11.5977Z" fill="#003350"/>
<path fill-rule="evenodd" clip-rule="evenodd" d="M122.789 66.157C120.361 66.157 118.389 68.1284 118.389 70.5569C118.389 72.9853 120.361 74.9568 122.789 74.9568C123.397 74.9568 123.889 75.4492 123.889 76.0567C123.889 76.6642 123.397 77.1567 122.789 77.1567C119.146 77.1567 116.189 74.2003 116.189 70.5569C116.189 66.9134 119.146 63.957 122.789 63.957C123.397 63.957 123.889 64.4495 123.889 65.057C123.889 65.6645 123.397 66.157 122.789 66.157Z" fill="#003350"/>
<path fill-rule="evenodd" clip-rule="evenodd" d="M48.0314 74.4715C48.8939 74.1775 49.8314 74.6385 50.1254 75.501L48.5636 76.0332L47.0018 76.5655C46.7079 75.7029 47.1688 74.7654 48.0314 74.4715ZM87.0705 93.3466C86.6283 93.5219 86.087 93.7349 85.4653 93.9768C83.6635 94.6779 81.1907 95.6198 78.5043 96.5843C73.0517 98.5418 66.9693 100.498 63.7315 100.847L63.7276 100.848C62.7409 100.956 61.4529 100.793 60.2357 100.07C59.0447 99.3619 57.8108 98.0532 57.0002 95.6745L50.1254 75.501C50.1253 75.5009 50.1254 75.501 48.5636 76.0332C47.0018 76.5655 47.0018 76.5653 47.0018 76.5655L53.8767 96.739C54.9141 99.7832 56.617 101.758 58.55 102.906C60.4552 104.039 62.4764 104.305 64.085 104.128C67.788 103.729 74.2564 101.615 79.6193 99.6901C82.3406 98.7131 84.8418 97.7604 86.6619 97.0521C87.5724 96.6979 88.3133 96.4044 88.8273 96.1993C89.0843 96.0967 89.2847 96.0162 89.4211 95.9612L89.577 95.8982L89.6306 95.8765C89.6308 95.8764 89.6317 95.876 89.0097 94.3478L89.6317 95.876C90.3877 95.5683 90.8051 94.754 90.6135 93.9605L88.581 85.543C88.6463 85.4557 88.7221 85.3586 88.8059 85.2556C88.8892 85.1532 88.9744 85.0524 89.0564 84.9583L91.2169 90.6844C92.0645 92.9271 94.5393 94.0558 96.7766 93.2631L96.7807 93.2616L108.231 89.1697L108.24 89.1666C108.281 89.1517 108.319 89.1533 108.362 89.1743C108.406 89.1963 108.453 89.2404 108.48 89.3171C108.503 89.3841 108.499 89.4566 108.471 89.5225C108.443 89.5892 108.4 89.6254 108.363 89.6422L94.9193 95.7151C94.1203 96.076 93.7431 96.9988 94.0605 97.8161L97.3714 106.341L97.3737 106.347C97.3852 106.376 97.3855 106.408 97.3703 106.442C97.3551 106.476 97.3361 106.487 97.3263 106.491C97.3266 106.49 97.3261 106.491 97.3263 106.491L58.9985 120.183C53.532 122.131 49.5388 121.375 46.5455 119.762C43.4664 118.103 41.2994 115.462 39.675 113.351C36.1542 108.766 32.4474 100.026 29.5812 92.2315C28.1624 88.3733 26.9722 84.8115 26.1367 82.2136C25.719 80.9152 25.3904 79.8588 25.1664 79.1282C25.0545 78.7629 24.9687 78.4791 24.9112 78.2872C24.8824 78.1913 24.8606 78.1184 24.8462 78.0698L24.8252 77.9989C24.5679 77.1248 23.6504 76.624 22.7762 76.8814C21.9021 77.1387 21.402 78.056 21.6594 78.9301L23.2422 78.4642C21.6594 78.9301 21.6593 78.9298 21.6594 78.9301L21.6656 78.9512L21.683 79.0098C21.6983 79.0612 21.7208 79.137 21.7505 79.2358C21.8098 79.4334 21.8974 79.7234 22.0114 80.0951C22.2392 80.8386 22.5724 81.9095 22.9952 83.224C23.8405 85.8521 25.0455 89.4586 26.484 93.3704C29.332 101.115 33.1874 110.321 37.0583 115.361L37.0592 115.362C38.7017 117.497 41.2314 120.647 44.9801 122.667C48.8149 124.734 53.781 125.545 60.1062 123.291L98.4415 109.596L98.4473 109.594C100.245 108.945 101.141 106.921 100.447 105.145C100.446 105.144 100.446 105.142 100.445 105.14L97.7026 98.0788L109.717 92.6515C109.717 92.6516 109.718 92.6514 109.717 92.6515C111.396 91.8955 112.188 89.9652 111.603 88.2491L111.601 88.2446C110.975 86.428 108.993 85.3845 107.117 86.0635C107.116 86.0641 107.114 86.0647 107.112 86.0653L95.6744 90.1526C95.674 90.1528 95.6735 90.153 95.6731 90.1531C95.1171 90.3493 94.5128 90.0696 94.3043 89.5194M94.3043 89.5194L91.3784 81.7646C91.2033 81.3007 90.8289 80.94 90.3587 80.7825C89.8885 80.625 89.3724 80.6874 88.9532 80.9523L87.5782 81.8213L87.5703 81.8263C87.3892 81.9422 87.2371 82.0861 87.1707 82.1494C87.0764 82.2393 86.9764 82.3418 86.8786 82.4463C86.6819 82.6564 86.4578 82.9129 86.2462 83.173C86.0388 83.4279 85.8182 83.7171 85.6431 83.9879C85.5578 84.1199 85.4579 84.2864 85.3761 84.4661C85.3351 84.5562 85.2835 84.6822 85.2442 84.8317C85.2095 84.9634 85.1534 85.225 85.1962 85.5461C85.2038 85.603 85.2144 85.6595 85.2279 85.7153L87.0705 93.3466" fill="#003350"/>
<path fill-rule="evenodd" clip-rule="evenodd" d="M97.4919 99.7786C97.6339 100.369 97.2703 100.963 96.6796 101.105L92.9287 102.007C92.338 102.149 91.7441 101.786 91.602 101.195C91.46 100.604 91.8237 100.01 92.4143 99.8683L96.1652 98.9663C96.7559 98.8243 97.3499 99.1879 97.4919 99.7786Z" fill="#003350"/>
<path fill-rule="evenodd" clip-rule="evenodd" d="M97.4708 103.914C97.6123 104.505 97.2481 105.099 96.6573 105.24L94.8203 105.68C94.2295 105.822 93.6359 105.458 93.4944 104.867C93.3529 104.276 93.7171 103.682 94.3079 103.541L96.1448 103.101C96.7356 102.959 97.3293 103.324 97.4708 103.914Z" fill="#003350"/>
<path opacity="0.3" d="M114.198 187.001C159.755 187.001 196.696 183.797 196.696 179.845C196.696 175.893 159.755 172.701 114.198 172.701C68.6417 172.701 31.7002 175.905 31.7002 179.845C31.7002 183.785 68.6417 187.001 114.198 187.001Z" fill="#B8C7C0"/>
<defs>
<linearGradient id="paint0_linear_7345_75111" x1="8.29477" y1="64.8747" x2="204.694" y2="87.6962" gradientUnits="userSpaceOnUse">
<stop stop-color="#E9EDDA"/>
<stop offset="1" stop-color="#F6DAB1"/>
</linearGradient>
</defs>
</svg>
