<svg width="249" height="243" viewBox="0 0 249 243" fill="none" xmlns="http://www.w3.org/2000/svg">
<path d="M26.1125 27.0251L240.038 51.8832C244.409 52.3911 247.538 56.3433 247.03 60.7148L231.72 192.475C231.212 196.847 227.26 199.976 222.888 199.468L8.9631 174.61C4.59154 174.102 1.46227 170.15 1.97024 165.778L17.2808 34.0179C17.7888 29.6464 21.7409 26.5171 26.1125 27.0251Z" fill="url(#paint0_linear_7148_73157)"/>
<path d="M240.018 52.0494C244.288 52.5454 247.373 56.4277 246.876 60.7098L231.566 192.457C231.07 196.727 227.188 199.812 222.906 199.315L8.98081 174.457C4.71151 173.96 1.62594 170.078 2.12352 165.796L17.4341 34.0358C17.9302 29.7665 21.8124 26.6809 26.0945 27.1785L240.02 52.0366M240.057 51.717L26.1317 26.8589C21.6706 26.3405 17.6329 29.5376 17.1145 33.9986L1.80396 165.759C1.28559 170.22 4.48265 174.258 8.94368 174.776L222.869 199.634C227.33 200.153 231.368 196.956 231.886 192.494L247.197 60.7342C247.715 56.2731 244.518 52.2354 240.057 51.717Z" fill="#B5B5B5"/>
<path opacity="0.08" d="M101.984 73.7863L27.3605 65.1151C25.1297 64.8559 23.1112 66.4541 22.8519 68.6849L12.0968 161.242C11.8376 163.473 13.4359 165.491 15.6667 165.75L90.29 174.422C92.5208 174.681 94.5393 173.083 94.7985 170.852L105.554 78.2949C105.813 76.0641 104.215 74.0455 101.984 73.7863Z" fill="#336F91"/>
<path d="M52.9146 39.6355L28.6026 36.8104C27.4872 36.6808 26.4779 37.48 26.3483 38.5954L24.6729 53.0138C24.5433 54.1292 25.3424 55.1385 26.4578 55.2681L50.7698 58.0932C51.8852 58.2228 52.8945 57.4236 53.0241 56.3082L54.6996 41.8898C54.8292 40.7744 54.03 39.7651 52.9146 39.6355Z" fill="#4363C0"/>
<path d="M118.27 67.9625C123.263 57.0759 118.476 44.2204 107.602 39.2275C96.7157 34.2346 83.8602 39.0216 78.8673 49.8953C73.8744 60.7819 78.6614 73.6374 89.5351 78.6303C100.422 83.6233 113.277 78.8362 118.27 67.9625Z" fill="white"/>
<path fill-rule="evenodd" clip-rule="evenodd" d="M78.8546 49.8953C76.2166 55.6346 76.3067 61.9401 78.5844 67.3319C85.2244 67.3062 91.5557 63.4971 94.5025 57.063C97.4494 50.6288 96.2011 43.3453 91.8902 38.3009C86.3183 40.1025 81.4926 44.1432 78.8546 49.8953Z" fill="#003350"/>
<path d="M159.449 73.1098C164.442 62.2232 159.655 49.3677 148.781 44.3748C137.894 39.3819 125.039 44.1689 120.046 55.0426C115.053 65.9293 119.84 78.7847 130.714 83.7776C141.6 88.7706 154.456 83.9835 159.449 73.1098Z" fill="white"/>
<path fill-rule="evenodd" clip-rule="evenodd" d="M120.033 55.0427C117.395 60.782 117.485 67.0874 119.763 72.4793C126.403 72.4535 132.734 68.6445 135.681 62.2103C138.628 55.7762 137.38 48.4927 133.069 43.4483C127.497 45.2499 122.671 49.2905 120.033 55.0427Z" fill="#003350"/>
<path fill-rule="evenodd" clip-rule="evenodd" d="M121.989 64.3336C123.055 64.3336 123.919 65.1978 123.919 66.2638C123.919 69.8914 121.996 72.3286 119.497 74.0305C117.159 75.6219 114.126 76.7053 111.385 77.6842C111.318 77.708 111.252 77.7317 111.186 77.7553C108.257 78.8016 105.657 79.7501 103.76 81.0617C101.97 82.2996 101.014 83.7099 101.014 85.7465C101.014 87.7914 102.04 89.3828 103.927 90.7122C105.867 92.0789 108.57 93.0442 111.454 93.7006C114.308 94.3504 117.187 94.6643 119.368 94.8141C120.454 94.8888 121.357 94.922 121.986 94.9367C122.3 94.944 122.545 94.9466 122.709 94.9475C122.791 94.9479 122.853 94.9479 122.893 94.9477L122.936 94.9475L122.946 94.9475L122.947 94.9474L122.953 94.9474L122.961 94.9473L122.966 94.9473C122.967 94.9473 122.967 94.9473 122.967 96.8776C122.988 98.8077 122.987 98.8077 122.987 98.8077L122.98 98.8078L122.971 98.8078L122.969 98.8078L122.963 98.8079L122.937 98.8084C122.904 98.8091 122.851 98.8106 122.78 98.8139C122.638 98.8206 122.426 98.8342 122.17 98.862C121.647 98.9186 120.983 99.0293 120.347 99.2361C118.962 99.686 118.463 100.279 118.463 101.06C118.463 101.733 118.639 102.121 118.822 102.367C119.02 102.634 119.332 102.87 119.787 103.059C120.749 103.459 121.997 103.497 122.757 103.413C123.817 103.297 124.77 104.062 124.886 105.122C125.002 106.182 124.237 107.135 123.177 107.251C122.059 107.373 120.089 107.366 118.305 106.624C117.386 106.242 116.441 105.633 115.726 104.674C114.997 103.695 114.603 102.478 114.603 101.06C114.603 99.9468 114.894 99.0376 115.349 98.2972C113.845 98.1032 112.224 97.8353 110.597 97.4648C107.51 96.7621 104.242 95.6564 101.704 93.8682C99.1127 92.0429 97.1533 89.3958 97.1533 85.7465C97.1533 82.0889 99.0606 79.6177 101.565 77.8862C103.939 76.2451 107.027 75.1418 109.803 74.1499L109.887 74.1199C112.821 73.0715 115.423 72.1338 117.324 70.8395C119.119 69.617 120.059 68.2403 120.059 66.2638C120.059 65.1978 120.923 64.3336 121.989 64.3336ZM122.967 96.8776L122.987 98.8077L122.967 94.9473V96.8776Z" fill="#003350"/>
<path fill-rule="evenodd" clip-rule="evenodd" d="M122.967 105.898C122.967 103.968 122.967 103.968 122.966 103.968L122.961 103.968L122.953 103.968L122.929 103.968C122.91 103.969 122.884 103.969 122.853 103.97C122.791 103.971 122.706 103.973 122.601 103.978C122.392 103.988 122.101 104.007 121.754 104.045C121.071 104.119 120.126 104.269 119.154 104.585C117.321 105.181 114.603 106.679 114.603 110.081C114.603 111.43 114.918 112.615 115.576 113.591C116.233 114.565 117.128 115.179 118.032 115.562C119.733 116.283 121.733 116.283 122.958 116.283H122.967C124.033 116.283 124.898 115.419 124.898 114.353C124.898 113.287 124.033 112.423 122.967 112.423C121.617 112.423 120.406 112.376 119.538 112.008C119.156 111.846 118.925 111.653 118.777 111.434C118.631 111.217 118.464 110.822 118.464 110.081C118.464 109.3 118.963 108.707 120.347 108.257C120.983 108.05 121.647 107.939 122.17 107.883C122.427 107.855 122.638 107.841 122.781 107.835C122.852 107.831 122.905 107.83 122.937 107.829L122.969 107.829C122.971 107.829 122.972 107.829 122.973 107.829L122.971 107.829L122.969 107.829C124.035 107.828 124.898 106.964 124.898 105.898C124.898 104.832 124.033 103.968 122.967 103.968V105.898Z" fill="#003350"/>
<path d="M80.5664 29.7564C91.5431 26.758 103.163 27.35 113.805 31.3778C116.134 32.2528 117.138 28.5339 114.835 27.6588C103.588 23.3994 91.1441 22.8589 79.5498 26.0374C77.1562 26.6937 78.1728 30.4127 80.5792 29.7564H80.5664Z" fill="#003350"/>
<path d="M128.501 37.5674C133.223 34.9165 138.152 32.626 143.248 30.7601C144.226 30.3998 144.882 29.4475 144.599 28.3794C144.342 27.44 143.209 26.6679 142.218 27.0283C136.814 29.01 131.576 31.4035 126.558 34.2217C124.396 35.4442 126.339 38.7771 128.501 37.5546V37.5674Z" fill="#003350"/>
<path fill-rule="evenodd" clip-rule="evenodd" d="M143.556 101.394C140.715 101.394 138.409 103.701 138.409 106.542C138.409 109.383 140.715 111.689 143.556 111.689C144.267 111.689 144.843 112.265 144.843 112.976C144.843 113.687 144.267 114.263 143.556 114.263C139.294 114.263 135.835 110.804 135.835 106.542C135.835 102.279 139.294 98.8207 143.556 98.8207C144.267 98.8207 144.843 99.3969 144.843 100.108C144.843 100.818 144.267 101.394 143.556 101.394Z" fill="#003350"/>
<path fill-rule="evenodd" clip-rule="evenodd" d="M56.099 111.123C57.1081 110.779 58.2048 111.318 58.5487 112.327L56.7216 112.95L54.8946 113.573C54.5507 112.564 55.0899 111.467 56.099 111.123ZM101.77 133.204C101.253 133.409 100.619 133.659 99.8921 133.942C97.7841 134.762 94.8913 135.864 91.7485 136.992C85.3696 139.282 78.2541 141.571 74.4662 141.979L74.4616 141.98C73.3073 142.107 71.8005 141.916 70.3765 141.069C68.9833 140.242 67.5397 138.711 66.5914 135.928L58.5487 112.327C58.5487 112.327 58.5487 112.327 56.7216 112.95C54.8946 113.573 54.8945 113.572 54.8946 113.573L62.9373 137.173C64.1509 140.734 66.1432 143.045 68.4045 144.388C70.6333 145.713 72.9979 146.024 74.8798 145.817C79.2118 145.351 86.779 142.878 93.053 140.626C96.2366 139.483 99.1626 138.368 101.292 137.539C102.357 137.125 103.224 136.782 103.825 136.542C104.126 136.422 104.36 136.328 104.52 136.263L104.702 136.19L104.765 136.164C104.765 136.164 104.766 136.164 104.039 134.376L104.766 136.164C105.651 135.804 106.139 134.851 105.915 133.923L103.537 124.075C103.613 123.973 103.702 123.859 103.8 123.739C103.898 123.619 103.997 123.501 104.093 123.391L106.621 130.09C107.612 132.714 110.507 134.034 113.125 133.107L113.13 133.105L126.526 128.318L126.536 128.314C126.584 128.297 126.628 128.299 126.678 128.323C126.73 128.349 126.785 128.401 126.817 128.49C126.843 128.569 126.839 128.654 126.806 128.731C126.773 128.809 126.723 128.851 126.68 128.871L110.952 135.975C110.017 136.398 109.576 137.477 109.947 138.433L113.821 148.406L113.823 148.413C113.837 148.447 113.837 148.485 113.819 148.524C113.802 148.564 113.779 148.577 113.768 148.581C113.768 148.581 113.768 148.581 113.768 148.581L68.9292 164.6C62.5341 166.878 57.8625 165.994 54.3607 164.107C50.7585 162.166 48.2234 159.077 46.3231 156.607C42.2042 151.243 37.8676 141.019 34.5145 131.9C32.8548 127.386 31.4624 123.219 30.4849 120.18C29.9963 118.661 29.6118 117.425 29.3499 116.571C29.2189 116.143 29.1186 115.811 29.0512 115.587C29.0175 115.475 28.9921 115.389 28.9752 115.332L28.9506 115.25C28.6496 114.227 27.5763 113.641 26.5536 113.942C25.531 114.243 24.946 115.316 25.247 116.339L27.0987 115.794C25.247 116.339 25.2469 116.339 25.247 116.339L25.2543 116.364L25.2747 116.432C25.2925 116.492 25.3189 116.581 25.3536 116.697C25.423 116.928 25.5255 117.267 25.6588 117.702C25.9253 118.572 26.3152 119.824 26.8098 121.362C27.7987 124.437 29.2084 128.656 30.8912 133.232C34.2231 142.293 38.7334 153.063 43.2618 158.959L43.2629 158.96C45.1844 161.458 48.1439 165.143 52.5294 167.506C57.0156 169.923 62.8253 170.873 70.225 168.236L115.073 152.215L115.079 152.212C117.182 151.452 118.231 149.084 117.419 147.007C117.418 147.005 117.417 147.003 117.417 147.002L114.208 138.741L128.264 132.391C128.264 132.391 128.264 132.391 128.264 132.391C130.228 131.507 131.155 129.249 130.47 127.241L130.468 127.236C129.736 125.111 127.417 123.89 125.222 124.684C125.22 124.685 125.218 124.686 125.216 124.686L111.835 129.468C111.835 129.468 111.834 129.468 111.834 129.468C111.183 129.698 110.476 129.371 110.233 128.727M110.233 128.727L106.81 119.655C106.605 119.112 106.167 118.69 105.617 118.506C105.067 118.322 104.463 118.395 103.972 118.705L102.364 119.721L102.355 119.727C102.143 119.863 101.965 120.031 101.887 120.105C101.777 120.21 101.66 120.33 101.545 120.452C101.315 120.698 101.053 120.998 100.806 121.303C100.563 121.601 100.305 121.939 100.1 122.256C100 122.41 99.8834 122.605 99.7877 122.815C99.7397 122.921 99.6794 123.068 99.6334 123.243C99.5928 123.397 99.5272 123.703 99.5773 124.079C99.5862 124.145 99.5985 124.211 99.6143 124.277L101.77 133.204" fill="#003350"/>
<path fill-rule="evenodd" clip-rule="evenodd" d="M113.962 140.728C114.128 141.419 113.703 142.114 113.012 142.28L108.624 143.335C107.933 143.502 107.238 143.076 107.072 142.385C106.905 141.694 107.331 140.999 108.022 140.833L112.41 139.778C113.101 139.612 113.796 140.037 113.962 140.728Z" fill="#003350"/>
<path fill-rule="evenodd" clip-rule="evenodd" d="M113.938 145.567C114.103 146.259 113.677 146.953 112.986 147.119L110.837 147.633C110.146 147.799 109.451 147.373 109.286 146.682C109.12 145.991 109.546 145.296 110.237 145.131L112.386 144.616C113.078 144.45 113.772 144.876 113.938 145.567Z" fill="#003350"/>
<path opacity="0.3" d="M133.506 242.767C186.802 242.767 230.019 239.019 230.019 234.396C230.019 229.772 186.802 226.038 133.506 226.038C80.2107 226.038 36.9937 229.786 36.9937 234.396C36.9937 239.005 80.2107 242.767 133.506 242.767Z" fill="#B8C7C0"/>
<defs>
<linearGradient id="paint0_linear_7148_73157" x1="9.61273" y1="99.8966" x2="239.375" y2="126.595" gradientUnits="userSpaceOnUse">
<stop stop-color="#E9EDDA"/>
<stop offset="1" stop-color="#F6DAB1"/>
</linearGradient>
</defs>
</svg>
