<svg fill="none" height="248" viewBox="0 0 319 248" width="319" xmlns="http://www.w3.org/2000/svg" xmlns:xlink="http://www.w3.org/1999/xlink"><clipPath id="a"><path d="m0 0h318.715v248h-318.715z"/></clipPath><g clip-path="url(#a)"><path d="m167.978 247.265c41.661 0 75.434-2.74 75.434-6.121 0-3.38-33.773-6.121-75.434-6.121-41.662 0-75.4345 2.741-75.4345 6.121 0 3.381 33.7725 6.121 75.4345 6.121z" fill="#ffea8f"/><path d="m225.753 120.335 2.781-.853c2.609 2.166 5.015 4.577 7.183 7.206l25.111 30.465c.746.904 1.884 1.391 3.053 1.305l8.1-.595c3.263-.54 5.608-.371 7.329.587 1.766.983 2.609 2.647 3.219 4.373.743 2.037.661 4.284-.228 6.261-.891 1.979-2.52 3.531-4.54 4.325l-22.658 8.905c-1.936.76-4.091.742-6.014-.05-1.858-.765-3.362-2.196-4.218-4.009l-37.81-40.964c-.406-.439-.898-.792-1.444-1.036s-1.136-.375-1.734-.384c-.061-.001-.123-.007-.183-.017l-18.343-3.13 5.119-1.57 13.542 2.311c.891.027 1.768.227 2.582.591.844.377 1.602.921 2.229 1.6h.001l37.941 41.107c.09.098.163.209.217.331.588 1.334 1.67 2.388 3.018 2.943s2.859.568 4.216.036l22.658-8.905c1.434-.564 2.592-1.667 3.224-3.073.633-1.405.691-3.003.161-4.45l-.005-.013c-.557-1.58-1.146-2.535-2.121-3.077-1.011-.563-2.702-.829-5.816-.308-.037.006-.074.011-.111.014l-8.155.599c-1.948.143-3.845-.668-5.087-2.175l-25.111-30.465c-2.412-2.924-5.131-5.566-8.106-7.885z" fill="#003350"/><path d="m221.862.302522-175.4391 53.804678c-2.3383.7171-3.6526 3.1941-2.9354 5.5325l31.3847 102.3353c.7171 2.339 3.1941 3.653 5.5325 2.936l175.4383-53.805c2.339-.717 3.653-3.194 2.936-5.532l-31.385-102.33598c-.717-2.338371-3.194-3.652642-5.532-2.935498z" fill="#ffd417"/><path clip-rule="evenodd" d="m29.5004 14.5356c0-.7338.5949-1.3286 1.3287-1.3286h98.3639c.734 0 1.328.5948 1.328 1.3286s-.594 1.3287-1.328 1.3287h-98.3639c-.7338 0-1.3287-.5949-1.3287-1.3287z" fill="#ffd417" fill-rule="evenodd"/><path clip-rule="evenodd" d="m25.4341 31.1108c0-.7338.5948-1.3286 1.3286-1.3286h44.043c.7338 0 1.3287.5948 1.3287 1.3286s-.5949 1.3287-1.3287 1.3287h-44.043c-.7338 0-1.3286-.5949-1.3286-1.3287z" fill="#ffd417" fill-rule="evenodd"/><path d="m49.0588 59.1811c.2402-.6201.9377-.9282 1.5578-.688l80.0864 31.0196c.924.3652 1.849.6888 2.774.9757.024.0074.048.0154.071.0241 7.24 2.1813 14.996 1.9334 22.083-.7074 7.116-2.6512 13.163-7.5673 17.21-13.9916.355-.5627 1.099-.7314 1.661-.3769.563.3545.732 1.0981.377 1.6608-4.329 6.8711-10.797 12.129-18.407 14.9646-7.61 2.8355-15.941 3.0916-23.711.7288-.029-.009-.058-.0189-.086-.0299-.292-.0911-.584-.1857-.875-.2839l-50.1475 67.007c-.3985.533-1.1532.642-1.6856.243-.5325-.398-.6411-1.153-.2426-1.686l49.7177-66.4338-79.6952-30.8682c-.6202-.2402-.9282-.9377-.688-1.5579z" fill="#ffa517"/><path clip-rule="evenodd" d="m181.137 73.9955c.012-.665.561-1.1942 1.226-1.182 4.045.074 7.899 1.7329 10.734 4.6196 2.834 2.8868 4.422 6.7709 4.422 10.8166 0 4.0456-1.588 7.9297-4.422 10.8165-2.835 2.8868-6.689 4.5458-10.734 4.6198-.665.012-1.214-.517-1.226-1.182s.517-1.214 1.182-1.226c3.414-.063 6.667-1.4628 9.059-3.8992 2.392-2.4365 3.733-5.7146 3.733-9.1291 0-3.4146-1.341-6.6927-3.733-9.1292-2.392-2.4364-5.645-3.8365-9.059-3.899-.665-.0122-1.194-.5611-1.182-1.226z" fill="#003350" fill-rule="evenodd"/><path d="m223.734 6.16899c.41-.52361.318-1.2805-.206-1.69056-.524-.41005-1.281-.318-1.691.20561l-25.113 32.06776c.741.3453 1.452.7428 2.129 1.1878z" fill="#ffa517"/><path d="m189.606 68.9024c9.312 0 16.861-7.549 16.861-16.8612s-7.549-16.8612-16.861-16.8612-16.861 7.549-16.861 16.8612 7.549 16.8612 16.861 16.8612z" fill="#fff"/><path d="m193.076 52.0412c0-5.5033 3.248-10.2479 7.932-12.4214 3.356 3.082 5.459 7.5061 5.459 12.4214 0 1.8233-.289 3.579-.825 5.2237l14.846 6.2013c4.827 2.016 4.825 8.8542-.002 10.8682l-15.425 6.4355c.291.197.564.4222.816.674 1.048 1.0483 1.637 2.4701 1.637 3.9526 0 1.4826-.589 2.9044-1.637 3.9528-.167.1664-.343.3212-.527.464.184.1427.36.2976.527.464.812.8125 1.349 1.8494 1.549 2.9649.192-.1911.487-.2597.753-.1507l4.929 2.0165c.355.1452.525.5507.38.9056-.145.355-.551.525-.906.3798l-4.929-2.0164c-.05-.0207-.097-.0466-.14-.0769-.018 1.4572-.605 2.8508-1.636 3.8826-1.049 1.0483-2.471 1.6372-3.953 1.6372-.665 0-1.204-.5391-1.204-1.2042 0-.665.539-1.2042 1.204-1.2042.844 0 1.653-.3352 2.25-.9318.596-.5967.931-1.4059.931-2.2497s-.335-1.653-.931-2.2497c-.597-.5966-1.406-.9318-2.25-.9318-.665 0-1.204-.5392-1.204-1.2042 0-.0104 0-.0207 0-.031v-.0121-.0189c0-.6651.539-1.2042 1.204-1.2042.844 0 1.653-.3352 2.25-.9319.596-.5966.931-1.4059.931-2.2497 0-.8437-.335-1.653-.931-2.2496-.597-.5967-1.406-.9318-2.25-.9318-.3 0-.574-.1097-.785-.2911-.185-.1137-.338-.2846-.428-.5005-.206-.4942-.015-1.055.428-1.3262.178-.1524.4-.2542.645-.2826l17.877-7.4586c3.07-1.2808 3.071-5.6299.001-6.912l-14.813-6.1874c-.937 1.9771-2.248 3.7428-3.841 5.2059-4.684-2.1735-7.932-6.9181-7.932-12.4214z" fill="#003350"/><path d="m213.339 86.5476c.349-.1596.502-.5717.343-.9204-.16-.3488-.572-.5021-.921-.3424l-4.905 2.2453c-.349.1596-.502.5717-.342.9204.159.3487.571.502.92.3424z" fill="#003350"/><path d="m208.73 90.1843c-.383-.0019-.696.3075-.698.691s.308.6959.691.6978l5.859.0286c.384.0019.696-.3075.698-.691s-.308-.696-.691-.6978z" fill="#003350"/><path clip-rule="evenodd" d="m216.052 96.0752c.17-.6432.828-1.0272 1.472-.8578l35.673 9.3956c.644.169 1.028.828.858 1.471-.169.643-.828 1.027-1.471.858l-35.674-9.3956c-.643-.1694-1.027-.8281-.858-1.4712z" fill="#ffa517" fill-rule="evenodd"/><g fill="#003350"><path clip-rule="evenodd" d="m41.8818 67.1189c-2.7458-.0082-5.4645.5436-7.9899 1.6215-2.5254 1.078-4.8045 2.6595-6.6981 4.6479-1.8837 1.9782-3.3466 4.3177-4.3003 6.8771l-9.45 32.5616c-.0205.07-.0467.137-.0782.201l-6.16508 16.318c-.00318.009-.00645.017-.00982.026l-4.59573 11.385c-.33736.887-.13545 1.296-.02657 1.463.07434.113.16425.196.23599.25.03479.026.06138.042.07326.049.00105 0 .00197.001.00274.001.01047.005.02087.011.03119.016.35082.184.69698.217.97112.132.24509-.076.60239-.299.90392-.982.007-.016.01435-.032.02202-.047l5.43806-11.008c.2806-.568.9532-.821 1.5388-.58.5856.242.884.896.6826 1.496l-4.77657 14.246c-.05132.17-.06907.348-.05222.525.0172.18.07012.356.15567.515.08556.16.20203.301.34265.415.13954.114.30005.198.4723.249.00136.001.00272.001.00408.001l.65729.187.00684.002c.34095.099.70712.061 1.02036-.106.3131-.167.5486-.45.656-.789l.0009-.003c.8253-2.577 2.0958-6.386 3.1704-9.59.3533-1.053.686-2.043.9749-2.903.1506-.447.2893-.86.4129-1.228.1805-.537.3286-.979.4346-1.297.053-.16.095-.286.125-.378.0206-.063.0321-.099.0375-.116.0037-.012.0045-.014.0033-.01.005-.018.0182-.065.0403-.121.0105-.027.0335-.084.0712-.152l.0017-.003c.0215-.039.1296-.234.3536-.393.1361-.084.4939-.205.7126-.222.2392.027.6423.195.7986.316.2598.238.3348.52.3468.565l.0011.004c.0384.14.0422.258.0427.276l.0001.002c.0038.097-.0056.193-.0064.203-.0064.075-.0183.184-.0328.308-.0299.257-.0783.644-.1403 1.127-.1244.967-.3062 2.336-.511 3.86-.4095 3.048-.9121 6.722-1.235 9.048-.0455.335.0351.675.2262.955.1913.279.4797.477.8091.556l.0024.001c.3424.083.7035.029 1.0074-.149.2896-.17.5057-.44.6077-.759l3.1469-17.674c.0412-.231.1456-.434.2923-.596.2119-.24.5182-.395.8631-.406.6647-.022 1.221.5 1.2426 1.164.0104.323.0191.652.0279.986.0342 1.294.0703 2.658.2184 4.001.0605.538.0828 1.157.1038 1.742.0036.1.0072.199.0109.297.0266.699.0613 1.35.1517 1.919.0931.586.2271.952.367 1.154.0944.137.1757.193.3723.201h.0026c.9149.041 1.2398-.131 1.3427-.214.0766-.062.2052-.213.2561-.739.0524-.541.0018-1.238-.0831-2.176-.0067-.074-.0136-.149-.0205-.225-.0777-.85-.1679-1.837-.1737-2.88-.0001-.014.0001-.028.0005-.043l.4428-14.84c.005-.17.046-.337.12-.489l11.5811-23.8925c1.3613-2.8083 4.6428-4.1111 7.5596-3.0011l26.2654 9.9956c.6216.236.9337.932.6972 1.553-.2366.622-.9322.934-1.5538.698l-26.2654-9.9956c-1.7501-.666-3.7189.1156-4.5357 1.8006l-11.4688 23.66-.4344 14.561c.0063.928.0867 1.81.1647 2.666.0066.071.0131.143.0196.214.0805.89.1598 1.82.0817 2.626-.0796.822-.3418 1.737-1.1409 2.382-.7727.623-1.8085.797-2.9638.745-1-.044-1.7532-.524-2.2458-1.235-.3238-.467-.521-1.011-.648-1.545l-1.4378 8.075c-.0068.038-.0155.076-.026.114-.2634.939-.881 1.74-1.7227 2.234-.8418.493-1.8422.641-2.7907.412-.9095-.218-1.7056-.766-2.2339-1.538-.5288-.773-.7515-1.714-.6249-2.642l.0004-.003c.0759-.546.1617-1.167.2539-1.837-.4372 1.324-.8434 2.567-1.1762 3.606l-1.1468-.368 1.1478.365c-.2975.937-.9496 1.721-1.8173 2.184-.8668.463-1.87999.569-2.8237.296-.00096 0-.00192-.001-.00288-.001l-.66036-.188-.00991-.003c-.4805-.14-.92811-.376-1.31676-.691-.38867-.316-.71063-.706-.94711-1.147-.23649-.442-.38276-.926-.43031-1.424-.04756-.499.00457-1.002.15334-1.48.0026-.008.0053-.016.00809-.025l.1935-.577c-.30662.223-.6414.392-.99946.503-.99124.308-1.98999.122-2.78477-.289-.0088-.004-.01852-.009-.02911-.015-.02956-.015-.06606-.034-.10817-.059-.08391-.048-.19205-.116-.31308-.207-.23988-.179-.545875-.458-.808701-.859-.5650522-.863-.801439-2.094-.203705-3.653l.007717-.02 4.594859-11.383 6.18722-16.378c.0066-.017.0136-.034.0208-.051l9.4328-32.5022c.008-.0278.0171-.0553.0271-.0825 1.067-2.882 2.7104-5.5163 4.8298-7.7419 2.1194-2.2255 4.6702-3.9956 7.4967-5.202 2.8266-1.2065 5.8694-1.8241 8.9426-1.815 3.0633.0091 6.0926.6406 8.9042 1.8561l31.3392 11.8137c.6223.2345.9366.9292.702 1.5515-.2346.6224-.9292.9367-1.5516.7021l-31.3663-11.8239c-.0183-.0069-.0365-.0143-.0545-.0221-2.519-1.0929-5.2343-1.6608-7.9802-1.6689zm-23.4477 64.7931c-.0017.006-.0055.02-.0115.039.0052-.017.0091-.03.0115-.039z" fill-rule="evenodd"/><path d="m299.65 20.0748c.32-.1481.684-.1664 1.017-.0509l.003.0008c.319.1102.587.3353.75.6315.163.296.211.642.134.9711-.388 1.6438-.851 3.5806-1.279 5.3718l-.026.106c-.157.6573-.309 1.2937-.451 1.8873-.266 1.1174-.496 2.0845-.651 2.751-.077.3317-.138.5958-.175.7682-.017.0789-.035.1633-.045.2276-.003.0168-.008.0481-.012.0848-.002.0177-.006.0516-.007.0939v.0023c-.001.0226-.006.1455.025.2941v.0018c.012.0564.065.305.271.5415.113.1136.413.3068.598.3729.197.0351.559.0143.718-.031.306-.1101.475-.3121.513-.3572l.002-.0015c.061-.0736.101-.1387.119-.1693.049-.0843.08-.163.09-.19-.006.0173-.001.0071.027-.0473.023-.0447.061-.1191.12-.2324.113-.2151.269-.5089.462-.8718l.016-.0308c.399-.7512.944-1.7763 1.551-2.9464 1.212-2.3341 2.685-5.2717 3.76-7.792.139-.3274.401-.5877.73-.7249.327-.1369.696-.1407 1.026-.0107l.002.0008.639.2556.011.0045c.17.066.326.1656.456.2929.131.1272.235.2795.306.4477.071.1683.107.349.106.5315 0 .1798-.036.3576-.106.5233l-5.563 12.4508c-.254.5674-.034 1.2345.507 1.5399.541.3055 1.226.1491 1.581-.3611l6.259-9.0002c.036-.0511.067-.1049.094-.1609.152-.3109.416-.5523.739-.6748.324-.1225.682-.1168 1.001.0159l.004.0018c.565.2321 1.029.9927.362 1.9938-.015.0226-.03.0458-.043.0695l-6.007 10.4876c-.005.0094-.01.0188-.016.0284-.007.0129-.013.026-.02.0391l-7.718 15.712c-.017.0344-.033.07-.048.1066-.011.0286-.021.0574-.03.0864l-10.6 32.2776c-1.193 2.4431-2.867 4.6206-4.922 6.4018-2.075 1.7985-4.494 3.1554-7.111 3.9877-2.616.8324-5.375 1.1228-8.108.8535-2.732-.2692-5.381-1.0925-7.785-2.4196l-.018-.0097-.01-.005-30.819-15.9888c-.59-.3063-1.317-.076-1.623.5143-.307.5904-.076 1.3172.514 1.6235l30.806 15.9818c2.686 1.4807 5.646 2.3996 8.699 2.7006 3.058.301 6.146-.024 9.074-.955 2.929-.932 5.637-2.4506 7.959-4.4634 2.322-2.0129 4.209-4.4778 5.547-7.2444.024-.0481.044-.0977.06-.1485l10.605-32.2934 7.673-15.6218 5.969-10.4214c1.452-2.2208.525-4.6972-1.472-5.5198-.886-.3677-1.879-.3832-2.776-.0433-.407.1543-.781.3767-1.107.6543l.547-1.2236.008-.018c.198-.4649.301-.9651.303-1.4707.001-.5056-.099-1.0063-.295-1.4723-.196-.4661-.484-.8879-.847-1.2404-.36-.3509-.788-.626-1.257-.809l-.638-.2553-.005-.0018c-.915-.3616-1.934-.3517-2.842.0275-.907.3792-1.631 1.0977-2.017 2.0025-.416.9756-.896 2.0217-1.4 3.0746.115-.4862.227-.9594.334-1.4105.214-.9102.083-1.8682-.369-2.6869-.451-.8185-1.19-1.4404-2.073-1.7453-.923-.3195-1.933-.2689-2.818.1412-.886.4104-1.578 1.1484-1.931 2.0589-.014.0366-.027.074-.037.1118l-2.713 9.7412c-.063-.4101-.141-.8187-.237-1.212-.184-.7584-.454-1.5429-.874-2.1834-.425-.6503-1.086-1.2663-2.049-1.3956l-.004-.0004c-1.046-.1373-2.012.043-2.754.7182-.688.626-.986 1.5077-1.144 2.3115-.161.8206-.213 1.7735-.253 2.7196-.007.1771-.014.355-.021.5338-.031.8067-.063 1.6306-.14 2.4779l-1.06 12.3145c-.072.0787-.133.1682-.183.2677l-12.008 23.9057c-.906 1.8042-3.115 2.5155-4.903 1.579l-25.536-13.3687c-.589-.3085-1.317-.0809-1.625.5083-.309.5892-.081 1.3169.508 1.6253l25.535 13.3688c2.982 1.5608 6.663.3752 8.174-2.6318l11.681-23.2568c.375-.1771.649-.5433.687-.9864l1.129-13.1097v-.0023c.083-.9135.117-1.8102.149-2.6183v-.0062c.007-.1711.013-.3382.02-.5006.04-.9622.089-1.7404.21-2.3559.124-.6322.288-.8917.401-.9942.058-.0532.23-.1884.817-.1118.033.0046.159.0289.354.3274.204.3122.394.796.549 1.4338.308 1.2642.405 2.8071.436 3.9453.007.4011.015.7772.023 1.1357v.0013.0024c.025 1.1657.047 2.1448-.008 3.1914-.166.6352.207 1.2887.842 1.4654.116.0324.233.0466.348.0442.625.0001 1.152-.4825 1.2-1.1127l4.751-17.0597c.132-.3074.373-.556.678-.6971z"/><path clip-rule="evenodd" d="m303.502 39.6533c.218.6283-.115 1.3144-.743 1.5323l-8.109 2.8126c-.628.218-1.314-.1147-1.532-.7431-.218-.6283.114-1.3144.743-1.5323l8.109-2.8126c.628-.2179 1.314.1148 1.532.7431z" fill-rule="evenodd"/><path clip-rule="evenodd" d="m143.554 122.034c.603.28.864.997.584 1.6l-18.983 40.762c-.485 1.045-1.342 1.873-2.402 2.323-1.048.445-2.222.49-3.3.128l-43.5211-11.908c-.0257-.007-.0511-.015-.0763-.023-1.3783-.478-2.8878-.404-4.2127.207-1.3248.61-2.3624 1.708-2.8958 3.066l-8.8811 22.634c-.564 1.435-.5446 3.034.0548 4.455.5993 1.42 1.7306 2.55 3.1521 3.148.7251.305 1.5046.462 2.2913.462.7867-.001 1.5654-.158 2.2903-.464s1.3813-.754 1.9305-1.317.9802-1.231 1.2677-1.963c.0443-.113.1055-.219.1814-.314l6.6739-8.323c.3158-.394.8436-.549 1.3222-.388l38.7138 12.976c.037.012.074.027.11.043 4.789 2.148 10.232 2.319 15.147.477 4.915-1.843 8.904-5.551 11.101-10.318l22.782-49.491c.278-.604.993-.869 1.597-.591.604.279.869.994.591 1.598l-22.782 49.492c-2.463 5.343-6.934 9.5-12.443 11.565-5.491 2.058-11.569 1.874-16.924-.51l-37.8616-12.691-6.0383 7.531c-.4033.962-.9845 1.84-1.7137 2.588-.7735.794-1.6979 1.424-2.7187 1.855-1.0208.43-2.1175.653-3.2255.653-1.1079.001-2.2048-.221-3.226-.65-2.0011-.842-3.5937-2.432-4.4375-4.432-.8437-2-.8716-4.251-.0777-6.271l8.8811-22.634c.7607-1.936 2.2408-3.504 4.1304-4.374 1.877-.864 4.0138-.975 5.969-.309l43.5195 11.908c.026.007.051.015.076.023.526.182 1.1.162 1.612-.055s.925-.617 1.16-1.121l18.982-40.764c.281-.603.997-.864 1.6-.583z" fill-rule="evenodd"/></g><path d="m204.086 43.3975c1.512 2.5276 2.381 5.4842 2.381 8.6437 0 1.8233-.289 3.579-.825 5.2237l14.846 6.2013c2.083.8698 3.266 2.6375 3.551 4.5279 6.626-2.2726 11.388-8.5566 11.388-15.9529 0-9.3122-7.549-16.8612-16.861-16.8612-6.153 0-11.536 3.2954-14.48 8.2175z" fill="#fff"/><path clip-rule="evenodd" d="m229.775 39.4449c-4.894 2.0858-8.325 6.9404-8.325 12.5963s3.431 10.5105 8.325 12.5963c3.468-3.0883 5.652-7.5872 5.652-12.5963s-2.184-9.508-5.652-12.5963z" fill="#003350" fill-rule="evenodd"/></g></svg>