<svg width="319" height="248" viewBox="0 0 319 248" fill="none" xmlns="http://www.w3.org/2000/svg">
<g clip-path="url(#clip0_2981_14908)">
<path fill-rule="evenodd" clip-rule="evenodd" d="M299.436 21.882L294.634 39.1256C294.397 39.979 293.512 40.4781 292.659 40.2404C291.805 40.0028 291.306 39.1184 291.544 38.265L296.373 20.9263C296.387 20.8759 296.403 20.8262 296.422 20.7774C297.225 18.7035 299.569 17.6175 301.671 18.3455C303.223 18.8814 304.28 20.2825 304.454 21.8463C304.53 21.6732 304.604 21.5019 304.676 21.3327M298.699 33.3578C298.703 33.347 298.711 33.3273 298.721 33.3022C298.713 33.3217 298.706 33.3403 298.699 33.3578ZM299.436 21.882C299.637 21.4524 300.17 21.2201 300.621 21.3767L300.624 21.3776C301.075 21.5331 301.356 22.044 301.247 22.5084C300.859 24.1522 300.396 26.089 299.968 27.8802C299.803 28.5715 299.643 29.2411 299.494 29.8638C299.228 30.9799 298.998 31.947 298.843 32.6141C298.766 32.9455 298.705 33.212 298.667 33.3875C298.65 33.4655 298.63 33.5587 298.618 33.6337C298.614 33.6534 298.608 33.6929 298.603 33.7404C298.6 33.763 298.596 33.8076 298.594 33.8634C298.594 33.8642 298.594 33.8652 298.594 33.8664C298.592 33.8961 298.586 34.0594 298.627 34.2571L298.628 34.2594C298.644 34.3345 298.713 34.6655 298.988 34.9804C299.138 35.1318 299.538 35.389 299.785 35.4771C300.047 35.5238 300.53 35.4961 300.741 35.4358C301.148 35.2892 301.374 35.0202 301.424 34.9602L301.426 34.9582C301.508 34.8603 301.561 34.7737 301.584 34.7331C301.642 34.635 301.68 34.5429 301.697 34.4984C301.694 34.5077 301.692 34.5129 301.693 34.5131C301.694 34.5138 301.728 34.4439 301.83 34.2481C301.943 34.0321 302.101 33.7358 302.297 33.3673L302.307 33.3485C302.706 32.598 303.251 31.5725 303.858 30.4016C305.069 28.0683 306.547 25.1227 307.627 22.5905C307.712 22.3905 307.802 22.2943 307.865 22.2438C307.93 22.1917 308.02 22.1454 308.157 22.1174C308.463 22.0553 308.94 22.1014 309.503 22.3267L309.519 22.3327C310 22.5196 310.254 23.1172 310.057 23.5935L304.501 36.0266C304.166 36.7763 304.452 37.6579 305.162 38.0692C305.873 38.4805 306.779 38.2886 307.263 37.6247L305.966 36.681C307.263 37.6247 307.263 37.6248 307.263 37.6247L307.509 37.2854C307.666 37.0692 307.89 36.7593 308.161 36.3837C308.703 35.6327 309.432 34.618 310.18 33.565C310.928 32.5132 311.698 31.4174 312.32 30.5058C312.905 29.6485 313.451 28.8229 313.661 28.3917C313.874 27.954 314.434 27.7416 314.884 27.9284L314.889 27.9307C315.09 28.0133 315.24 28.1789 315.3 28.3815C315.352 28.5586 315.369 28.8805 315.07 29.3291C315.049 29.3593 315.03 29.3902 315.012 29.4217L309.012 39.8983C308.995 39.9277 308.979 39.9578 308.964 39.9882L301.245 55.7031C300.854 56.4982 301.182 57.4593 301.977 57.8499C302.773 58.2404 303.734 57.9125 304.124 57.1174L311.821 41.4483L317.771 31.059C319.347 28.6385 318.343 25.8841 316.112 24.965C315.073 24.5341 313.942 24.5628 312.959 24.9603L312.992 24.8872L313.003 24.8633C313.919 22.7203 312.858 20.1931 310.688 19.3454C309.768 18.9788 308.633 18.7471 307.518 18.974C306.31 19.2197 305.249 19.987 304.676 21.3327" fill="#003350"/>
<path fill-rule="evenodd" clip-rule="evenodd" d="M289.377 34.9787C289.377 34.9797 289.377 34.9808 289.377 34.9818L288.249 48.0762C288.173 48.9587 287.396 49.6126 286.513 49.5365C285.631 49.4605 284.977 48.6834 285.053 47.8009L286.182 34.6943C286.257 33.859 286.289 33.0481 286.32 32.2428C286.327 32.0634 286.334 31.8842 286.341 31.705C286.381 30.7626 286.434 29.7816 286.601 28.9278C286.765 28.0962 287.084 27.1119 287.867 26.3994C288.722 25.6213 289.82 25.4338 290.94 25.5808L290.945 25.5814C292.062 25.7315 292.812 26.4459 293.275 27.1533C293.73 27.8479 294.013 28.6816 294.202 29.4593C294.584 31.0266 294.685 32.8172 294.716 33.995L294.717 34.0119C294.722 34.3746 294.73 34.7274 294.738 35.0739C294.766 36.3464 294.793 37.5321 294.714 38.7954C294.658 39.6795 293.897 40.3514 293.013 40.2961C292.129 40.2409 291.457 39.4794 291.512 38.5953C291.582 37.4799 291.56 36.4664 291.532 35.221C291.524 34.8603 291.516 34.4803 291.509 34.0727C291.479 32.9418 291.382 31.4367 291.085 30.2176C290.935 29.6006 290.759 29.1673 290.591 28.9102C290.534 28.8235 290.493 28.7775 290.469 28.7548C290.239 28.7294 290.114 28.7475 290.062 28.7603C290.048 28.7636 290.039 28.7667 290.033 28.7686C290.03 28.77 290.027 28.7711 290.026 28.7716C290.026 28.7717 290.026 28.7716 290.026 28.7716C290.01 28.7868 289.867 28.9426 289.749 29.5456C289.635 30.1263 289.587 30.8745 289.547 31.8384C289.54 32.0005 289.533 32.1681 289.527 32.3401C289.495 33.1474 289.46 34.0552 289.377 34.9787ZM290.444 28.7358C290.444 28.7352 290.448 28.7371 290.455 28.7431C290.448 28.7393 290.444 28.7363 290.444 28.7358Z" fill="#003350"/>
<path fill-rule="evenodd" clip-rule="evenodd" d="M303.185 54.8864C304.027 55.1627 304.485 56.069 304.208 56.9106L293.589 89.2499C293.567 89.3176 293.54 89.3836 293.509 89.4478C292.149 92.2605 290.23 94.7665 287.869 96.8129C285.508 98.8593 282.755 100.403 279.778 101.35C276.801 102.297 273.662 102.628 270.552 102.321C267.45 102.016 264.443 101.083 261.712 99.5785L230.944 83.6158C230.157 83.2079 229.851 82.2398 230.259 81.4535C230.666 80.6672 231.635 80.3605 232.421 80.7684L263.208 96.7404C263.22 96.7468 263.232 96.7533 263.244 96.76C265.598 98.0593 268.191 98.8654 270.867 99.129C273.542 99.3927 276.244 99.1084 278.806 98.2934C281.368 97.4784 283.737 96.1499 285.768 94.389C287.773 92.6509 289.408 90.5276 290.575 88.1455L301.161 55.9098C301.437 55.0682 302.343 54.61 303.185 54.8864Z" fill="#003350"/>
<path fill-rule="evenodd" clip-rule="evenodd" d="M287.371 46.5052C288.162 46.9028 288.482 47.8668 288.084 48.6584L276.09 72.5389C274.48 75.743 270.557 77.0062 267.381 75.3432L241.872 61.9885C241.087 61.5776 240.784 60.6084 241.195 59.8236C241.606 59.0388 242.575 58.7357 243.36 59.1466L268.869 72.5013C270.457 73.3328 272.418 72.7012 273.223 71.0991L285.218 47.2186C285.615 46.427 286.579 46.1076 287.371 46.5052Z" fill="#003350"/>
<path fill-rule="evenodd" clip-rule="evenodd" d="M303.821 40.706C304.039 41.3337 303.706 42.019 303.079 42.2367L294.978 45.0463C294.351 45.264 293.665 44.9317 293.448 44.304C293.23 43.6763 293.562 42.991 294.19 42.7733L302.29 39.9637C302.918 39.7459 303.603 40.0783 303.821 40.706Z" fill="#003350"/>
<path d="M168.202 248C209.819 248 243.557 245.262 243.557 241.885C243.557 238.509 209.819 235.771 168.202 235.771C126.585 235.771 92.8473 238.509 92.8473 241.885C92.8473 245.262 126.585 248 168.202 248Z" fill="#FFEA8F"/>
<path fill-rule="evenodd" clip-rule="evenodd" d="M161.942 106.095C162.018 105.212 162.796 104.559 163.678 104.635L198.808 107.668C198.808 107.668 198.808 107.668 198.808 107.668C206.029 108.292 213.053 110.348 219.47 113.718C225.887 117.088 231.567 121.703 236.18 127.294L236.18 127.295L261.264 157.727C261.926 158.53 262.937 158.962 263.975 158.886L272.048 158.293C275.329 157.752 277.777 157.906 279.613 158.928C281.507 159.983 282.392 161.762 283.011 163.512C283.788 165.644 283.702 167.996 282.771 170.065C281.838 172.138 280.132 173.764 278.016 174.595C278.016 174.595 278.016 174.595 278.016 174.595L255.382 183.49L255.382 183.491C253.352 184.287 251.092 184.269 249.076 183.438C247.146 182.644 245.581 181.165 244.678 179.29C241.877 176.25 238.111 172.06 234.012 167.501C230.315 163.388 226.348 158.975 222.575 154.833C218.539 150.404 214.715 146.275 211.641 143.112C210.103 141.529 208.764 140.201 207.688 139.202C206.565 138.161 205.85 137.595 205.519 137.413C204.684 136.953 203.224 136.499 201.22 136.072C199.258 135.654 196.923 135.29 194.434 134.951C192.637 134.707 190.748 134.475 188.877 134.244C185.739 133.859 182.65 133.479 180.125 133.057L157.899 136.354C157.023 136.484 156.207 135.879 156.077 135.003C155.947 134.126 156.552 133.311 157.428 133.181L179.906 129.847C180.074 129.822 180.244 129.824 180.411 129.852C182.918 130.28 185.963 130.654 189.142 131.045C191.031 131.277 192.967 131.514 194.866 131.773C197.38 132.115 199.809 132.492 201.889 132.935C203.928 133.37 205.788 133.899 207.067 134.604C207.794 135.004 208.781 135.84 209.869 136.85C211.004 137.903 212.386 139.276 213.941 140.876C217.053 144.078 220.905 148.238 224.946 152.673C228.76 156.859 232.733 161.279 236.425 165.386C240.585 170.014 244.388 174.246 247.207 177.3C247.327 177.43 247.425 177.579 247.496 177.74C248.042 178.978 249.046 179.957 250.297 180.472C251.548 180.987 252.949 180.999 254.209 180.505C254.209 180.505 254.209 180.505 254.209 180.505L276.843 171.609L276.843 171.609C278.179 171.084 279.256 170.058 279.845 168.749C280.434 167.44 280.488 165.953 279.995 164.605L279.989 164.588C279.44 163.035 278.894 162.2 278.052 161.731C277.163 161.236 275.585 160.953 272.504 161.469C272.455 161.477 272.406 161.483 272.356 161.487L264.21 162.085C262.134 162.238 260.113 161.374 258.789 159.768L233.705 129.335C229.364 124.073 224.018 119.73 217.979 116.558C211.939 113.386 205.328 111.451 198.532 110.864L198.532 110.864L163.402 107.831C162.52 107.755 161.866 106.977 161.942 106.095Z" fill="#003350"/>
<path d="M222.029 1.29713L46.7753 55.0452C44.4394 55.7616 43.1265 58.2359 43.8429 60.5719L75.1946 162.8C75.911 165.136 78.3854 166.449 80.7213 165.732L255.975 111.984C258.311 111.268 259.624 108.794 258.908 106.458L227.556 4.22954C226.84 1.89363 224.365 0.58074 222.029 1.29713Z" fill="#FFD417"/>
<path fill-rule="evenodd" clip-rule="evenodd" d="M29.8706 15.5153C29.8706 14.7823 30.4648 14.188 31.1978 14.188H129.458C130.191 14.188 130.785 14.7823 130.785 15.5153C130.785 16.2483 130.191 16.8425 129.458 16.8425H31.1978C30.4648 16.8425 29.8706 16.2483 29.8706 15.5153Z" fill="#FFD417"/>
<path fill-rule="evenodd" clip-rule="evenodd" d="M25.8085 32.073C25.8085 31.34 26.4028 30.7458 27.1358 30.7458H71.1324C71.8655 30.7458 72.4597 31.34 72.4597 32.073C72.4597 32.806 71.8655 33.4003 71.1324 33.4003H27.1358C26.4028 33.4003 25.8085 32.806 25.8085 32.073Z" fill="#FFD417"/>
<path fill-rule="evenodd" clip-rule="evenodd" d="M174.72 76.3521C175.282 76.7063 175.451 77.4491 175.096 78.0112C170.772 84.875 164.311 90.1274 156.709 92.96C149.107 95.7926 140.784 96.0484 133.023 93.688C132.387 93.4947 132.028 92.8228 132.222 92.1871C132.415 91.5515 133.087 91.1929 133.723 91.3862C140.98 93.5931 148.761 93.354 155.869 90.7055C162.977 88.0571 169.017 83.1462 173.061 76.7286C173.415 76.1665 174.158 75.998 174.72 76.3521Z" fill="#FFA517"/>
<path fill-rule="evenodd" clip-rule="evenodd" d="M49.4084 60.1138C49.6483 59.4943 50.3451 59.1866 50.9646 59.4265L130.967 90.4135C131.89 90.7782 132.814 91.1016 133.738 91.3881C134.373 91.5849 134.728 92.2588 134.531 92.8933C134.334 93.5279 133.66 93.8829 133.026 93.6861C132.047 93.3826 131.067 93.0397 130.086 92.6526C130.085 92.6521 130.084 92.6516 130.083 92.6512L50.0956 61.67C49.4761 61.4301 49.1684 60.7333 49.4084 60.1138Z" fill="#FFA517"/>
<path fill-rule="evenodd" clip-rule="evenodd" d="M131.544 91.2627C132.076 91.6608 132.184 92.4147 131.786 92.9466L81.1659 160.586C80.7678 161.118 80.0139 161.226 79.482 160.828C78.9501 160.43 78.8416 159.676 79.2397 159.144L129.86 91.5051C130.258 90.9732 131.012 90.8647 131.544 91.2627Z" fill="#FFA517"/>
<path fill-rule="evenodd" clip-rule="evenodd" d="M223.694 5.46867C224.217 5.87829 224.309 6.63438 223.899 7.15744L197.836 40.4389C197.426 40.962 196.67 41.054 196.147 40.6443C195.624 40.2347 195.532 39.4786 195.941 38.9555L222.005 5.67406C222.415 5.151 223.171 5.05904 223.694 5.46867Z" fill="#FFA517"/>
<path d="M218.737 69.8248C228.04 69.8248 235.581 62.2838 235.581 52.9814C235.581 43.679 228.04 36.1379 218.737 36.1379C209.435 36.1379 201.894 43.679 201.894 52.9814C201.894 62.2838 209.435 69.8248 218.737 69.8248Z" fill="white"/>
<path d="M189.808 69.8249C199.11 69.8249 206.651 62.2838 206.651 52.9814C206.651 43.679 199.11 36.1379 189.808 36.1379C180.505 36.1379 172.964 43.679 172.964 52.9814C172.964 62.2838 180.505 69.8249 189.808 69.8249Z" fill="white"/>
<path fill-rule="evenodd" clip-rule="evenodd" d="M201.198 40.573C196.519 42.7442 193.274 47.4839 193.274 52.9814C193.274 58.4788 196.519 63.2185 201.198 65.3897C204.55 62.311 206.651 57.8915 206.651 52.9814C206.651 48.0712 204.55 43.6517 201.198 40.573Z" fill="#003350"/>
<path fill-rule="evenodd" clip-rule="evenodd" d="M229.934 40.3983C225.045 42.4819 221.618 47.3314 221.618 52.9813C221.618 58.6313 225.045 63.4808 229.934 65.5644C233.399 62.4794 235.58 57.9852 235.58 52.9814C235.58 47.9775 233.399 43.4833 229.934 40.3983Z" fill="#003350"/>
<path fill-rule="evenodd" clip-rule="evenodd" d="M202.44 58.3953C203.186 57.9178 204.178 58.1356 204.655 58.8817C207.56 63.4208 211.321 64.8744 214.704 66.1675C214.748 66.1847 214.793 66.2019 214.839 66.2191C216.43 66.8271 218.151 67.4848 219.437 68.5465C220.904 69.7572 221.749 71.4237 221.749 73.7807C221.749 76.4382 220.124 78.3306 218.171 79.6086C216.231 80.8784 213.74 81.7103 211.387 82.2682C209.011 82.8319 206.652 83.1443 204.898 83.3163C204.018 83.4026 203.284 83.4543 202.767 83.4844C202.508 83.4995 202.304 83.5093 202.162 83.5153C202.091 83.5183 202.036 83.5204 201.998 83.5217L201.953 83.5232L201.941 83.5236L201.936 83.5238C201.935 83.5238 201.935 83.5238 201.889 81.9205L201.935 83.5238C201.049 83.5491 200.311 82.8517 200.286 81.9663C200.261 81.081 200.958 80.3428 201.843 80.3172L201.851 80.317L201.885 80.3158C201.916 80.3148 201.963 80.313 202.026 80.3103C202.152 80.305 202.34 80.2961 202.58 80.282C203.062 80.2539 203.753 80.2054 204.585 80.1238C206.255 79.96 208.46 79.6659 210.647 79.147C212.859 78.6223 214.931 77.8953 216.414 76.9246C217.885 75.9622 218.542 74.9324 218.542 73.7807C218.542 72.3283 218.084 71.5889 217.395 71.0202C216.562 70.3326 215.338 69.8445 213.558 69.1638L213.491 69.1383C210.063 67.8278 205.441 66.0608 201.953 60.6109C201.476 59.8648 201.693 58.8729 202.44 58.3953Z" fill="#003350"/>
<path fill-rule="evenodd" clip-rule="evenodd" d="M180.947 74.9052C180.963 74.0195 181.694 73.3147 182.58 73.3309C186.725 73.4068 190.676 75.107 193.581 78.0657C196.486 81.0244 198.113 85.0053 198.113 89.1518C198.113 93.2983 196.486 97.2791 193.581 100.238C190.676 103.197 186.725 104.897 182.58 104.973C181.694 104.989 180.963 104.284 180.947 103.398C180.93 102.513 181.635 101.781 182.521 101.765C185.826 101.705 188.976 100.349 191.292 97.9904C193.608 95.6314 194.906 92.4577 194.906 89.1518C194.906 85.8459 193.608 82.672 191.292 80.3131C188.976 77.9542 185.826 76.5987 182.521 76.5382C181.635 76.522 180.93 75.7909 180.947 74.9052Z" fill="#003350"/>
<path fill-rule="evenodd" clip-rule="evenodd" d="M200.509 81.9205C200.509 81.0347 201.227 80.3166 202.113 80.3166C203.7 80.3166 205.222 80.9472 206.345 82.0696C207.467 83.192 208.098 84.7143 208.098 86.3016C208.098 87.889 207.467 89.4113 206.345 90.5337C205.222 91.6561 203.7 92.2867 202.113 92.2867C201.227 92.2867 200.509 91.5686 200.509 90.6828C200.509 89.7969 201.227 89.0788 202.113 89.0788C202.849 89.0788 203.556 88.7862 204.076 88.2654C204.597 87.7446 204.89 87.0382 204.89 86.3016C204.89 85.5651 204.597 84.8587 204.076 84.3379C203.556 83.8171 202.849 83.5245 202.113 83.5245C201.227 83.5245 200.509 82.8064 200.509 81.9205Z" fill="#003350"/>
<path fill-rule="evenodd" clip-rule="evenodd" d="M200.509 90.7446C200.509 89.8588 201.227 89.1407 202.113 89.1407C203.7 89.1407 205.222 89.7713 206.345 90.8937C207.467 92.0161 208.098 93.5384 208.098 95.1258C208.098 96.7131 207.467 98.2354 206.345 99.3578C205.222 100.48 203.7 101.111 202.113 101.111C201.227 101.111 200.509 100.393 200.509 99.5069C200.509 98.6211 201.227 97.903 202.113 97.903C202.849 97.903 203.556 97.6104 204.076 97.0895C204.597 96.5687 204.89 95.8623 204.89 95.1258C204.89 94.3892 204.597 93.6828 204.076 93.162C203.556 92.6412 202.849 92.3486 202.113 92.3486C201.227 92.3486 200.509 91.6305 200.509 90.7446Z" fill="#003350"/>
<path fill-rule="evenodd" clip-rule="evenodd" d="M215.462 85.73C215.622 86.0784 215.468 86.49 215.12 86.6495L210.22 88.8924C209.872 89.0519 209.46 88.8988 209.3 88.5504C209.141 88.202 209.294 87.7904 209.643 87.6309L214.543 85.388C214.891 85.2285 215.303 85.3816 215.462 85.73Z" fill="#003350"/>
<path fill-rule="evenodd" clip-rule="evenodd" d="M209.819 90.9726C209.82 90.5895 210.133 90.2805 210.516 90.2823L216.368 90.3109C216.751 90.3128 217.06 90.6249 217.058 91.008C217.057 91.3911 216.745 91.7002 216.361 91.6983L210.509 91.6697C210.126 91.6679 209.817 91.3558 209.819 90.9726Z" fill="#003350"/>
<path fill-rule="evenodd" clip-rule="evenodd" d="M209.061 93.5659C209.206 93.2113 209.611 93.0414 209.965 93.1865L214.889 95.2009C215.244 95.3459 215.414 95.751 215.269 96.1056C215.124 96.4602 214.719 96.63 214.364 96.485L209.44 94.4706C209.085 94.3255 208.916 93.9205 209.061 93.5659Z" fill="#003350"/>
<path fill-rule="evenodd" clip-rule="evenodd" d="M219.784 97.9061C219.953 97.2636 220.611 96.88 221.254 97.0492L253.332 105.498C253.975 105.667 254.358 106.325 254.189 106.968C254.02 107.61 253.362 107.994 252.72 107.824L220.641 99.3757C219.999 99.2065 219.615 98.5486 219.784 97.9061Z" fill="#FFA517"/>
<path fill-rule="evenodd" clip-rule="evenodd" d="M42.2378 68.4442C39.5494 68.4362 36.8875 68.9764 34.4149 70.0318C31.9423 71.0873 29.7108 72.6357 27.8568 74.5826C26.0158 76.5158 24.5854 78.8015 23.6515 81.302L14.2156 113.815C14.1904 113.902 14.1586 113.985 14.1207 114.064L7.96896 130.347C7.96472 130.358 7.96036 130.369 7.95587 130.381L3.36649 141.75C3.07917 142.508 3.26187 142.784 3.30007 142.842L3.30209 142.845C3.34496 142.911 3.3988 142.961 3.44248 142.994C3.4548 143.003 3.46443 143.009 3.47008 143.013C3.47859 143.017 3.48708 143.021 3.49552 143.026C3.77155 143.17 4.00738 143.178 4.16056 143.13C4.27503 143.095 4.55222 142.967 4.81566 142.37C4.82498 142.349 4.83476 142.328 4.84499 142.307L10.2773 131.311C10.651 130.555 11.5469 130.217 12.3269 130.539C13.1069 130.86 13.5043 131.731 13.2361 132.531L8.4666 146.756C8.43162 146.874 8.41963 146.998 8.43135 147.121C8.44348 147.248 8.48081 147.372 8.54113 147.484C8.60147 147.597 8.68361 147.696 8.78278 147.777C8.88062 147.856 8.99307 147.916 9.11372 147.952C9.11539 147.952 9.11707 147.953 9.11875 147.953L9.77204 148.139L9.78115 148.142C10.0213 148.211 10.2791 148.185 10.4997 148.067C10.7202 147.949 10.886 147.75 10.9616 147.511L10.9629 147.507C11.7883 144.93 13.0583 141.122 14.1316 137.922C14.4847 136.869 14.8173 135.88 15.106 135.021C15.2563 134.574 15.3948 134.162 15.5181 133.795C15.6984 133.258 15.8462 132.818 15.9518 132.5C16.0382 132.241 16.0851 132.097 16.1031 132.042C16.1094 132.023 16.1121 132.015 16.1117 132.016C16.118 131.993 16.1354 131.932 16.1646 131.857C16.1785 131.821 16.2091 131.746 16.2591 131.656L16.2614 131.652C16.29 131.6 16.4338 131.34 16.7321 131.129C16.9133 131.017 17.3899 130.856 17.6812 130.833C17.9998 130.869 18.5366 131.093 18.7448 131.254C19.0907 131.571 19.1906 131.946 19.2066 132.006C19.2072 132.009 19.2076 132.01 19.208 132.012C19.2591 132.197 19.264 132.354 19.2648 132.377L19.2648 132.379C19.2696 132.5 19.2587 132.617 19.2574 132.631L19.2573 132.632C19.2503 132.714 19.2378 132.828 19.2233 132.953C19.1932 133.212 19.1445 133.6 19.0825 134.083C18.9581 135.05 18.7764 136.419 18.5718 137.941C18.1627 140.986 17.6606 144.656 17.338 146.981C17.306 147.217 17.3629 147.457 17.4976 147.653C17.6325 147.85 17.8359 147.99 18.0681 148.046L18.0714 148.047C18.3125 148.105 18.5668 148.067 18.7808 147.942C18.9777 147.826 19.1264 147.645 19.201 147.431L22.3395 129.804C22.3946 129.495 22.5347 129.223 22.7315 129.007C23.0135 128.691 23.4192 128.487 23.8755 128.472C24.7609 128.444 25.5018 129.138 25.5305 130.023C25.5411 130.351 25.5499 130.683 25.5588 131.018C25.5929 132.309 25.6284 133.651 25.7744 134.973C25.8367 135.528 25.8595 136.164 25.8804 136.746C25.8839 136.846 25.8874 136.943 25.8911 137.039C25.9177 137.738 25.9518 138.367 26.0379 138.908C26.1277 139.473 26.2496 139.768 26.3381 139.896C26.3514 139.915 26.3514 139.922 26.3545 139.924C26.3579 139.927 26.365 139.923 26.3976 139.925L26.4012 139.925C26.8205 139.944 27.0958 139.914 27.2679 139.874C27.3512 139.855 27.4036 139.835 27.4335 139.821C27.4484 139.814 27.4582 139.809 27.4639 139.805C27.4679 139.803 27.4704 139.801 27.4716 139.8C27.4737 139.797 27.4817 139.785 27.4931 139.759C27.5203 139.695 27.5586 139.567 27.581 139.335C27.6291 138.839 27.5833 138.181 27.4978 137.235C27.4911 137.161 27.4842 137.086 27.4772 137.01C27.3998 136.162 27.3081 135.16 27.3022 134.1C27.3021 134.081 27.3023 134.062 27.3028 134.043L27.7452 119.218C27.7519 118.992 27.8064 118.77 27.9051 118.567L39.474 94.6997C40.9245 91.7072 44.421 90.3191 47.5291 91.5019L73.7668 101.487C74.5947 101.802 75.0104 102.728 74.6954 103.556C74.3803 104.384 73.4538 104.8 72.6259 104.485L46.3881 94.5C44.8341 93.9086 43.0859 94.6027 42.3606 96.0989L40.9173 95.3993L42.3606 96.0989L30.9414 119.657L30.5101 134.11C30.5167 135.016 30.5953 135.878 30.6732 136.734C30.6797 136.804 30.6862 136.875 30.6926 136.946C30.7723 137.827 30.8562 138.794 30.7739 139.644C30.6897 140.514 30.4055 141.555 29.487 142.296C28.604 143.008 27.4519 143.183 26.2585 143.129C25.125 143.08 24.2601 142.53 23.7014 141.723C23.6383 141.632 23.5797 141.539 23.5253 141.444L22.3422 148.088C22.3331 148.139 22.3215 148.19 22.3075 148.24C22.0164 149.278 21.3338 150.164 20.4033 150.709C19.4739 151.254 18.3695 151.418 17.322 151.166C16.3156 150.925 15.4347 150.319 14.8503 149.465C14.5284 148.995 14.3092 148.468 14.2005 147.918C14.1377 148.112 14.077 148.301 14.0185 148.484C13.6893 149.519 12.9688 150.385 12.0105 150.897C11.0528 151.408 9.93329 151.525 8.8905 151.223C8.88906 151.223 8.88763 151.223 8.8862 151.222L8.22882 151.035L8.21562 151.032C7.68456 150.876 7.18986 150.616 6.76032 150.267C6.33077 149.918 5.97493 149.487 5.71357 148.999C5.4522 148.511 5.29054 147.977 5.23799 147.426C5.19635 146.989 5.22387 146.55 5.31888 146.123C5.25091 146.148 5.18203 146.172 5.11227 146.194C4.00376 146.538 2.89828 146.328 2.03046 145.88C2.02087 145.875 2.01054 145.87 1.99952 145.864C1.96452 145.846 1.92226 145.823 1.87413 145.796C1.77831 145.74 1.65671 145.664 1.52145 145.563C1.25384 145.362 0.912185 145.051 0.618253 144.602C-0.0220898 143.624 -0.263798 142.258 0.375838 140.59C0.379188 140.581 0.382615 140.573 0.386117 140.564L4.9745 129.196L11.1536 112.841C11.1592 112.826 11.1649 112.811 11.1709 112.797L20.5872 80.3513C20.598 80.3142 20.61 80.2776 20.6234 80.2414C21.7082 77.3113 23.379 74.633 25.5338 72.3704C27.6885 70.1077 30.2819 68.3081 33.1556 67.0815C36.0292 65.8549 39.1228 65.227 42.2473 65.2363C45.3585 65.2455 48.4353 65.8863 51.2913 67.1195L82.5886 78.9174C83.4175 79.2299 83.8361 80.1551 83.5237 80.984C83.2112 81.8129 82.286 82.2315 81.4571 81.9191L50.1238 70.1076C50.0993 70.0984 50.0751 70.0886 50.0511 70.0782C47.5848 69.0081 44.9262 68.4521 42.2378 68.4442ZM19.2023 132.876C19.1995 132.885 19.1931 132.908 19.1828 132.94C19.192 132.911 19.1985 132.889 19.2023 132.876ZM16.0607 132.363C16.0614 132.352 16.0619 132.346 16.062 132.346C16.0621 132.346 16.0618 132.351 16.0609 132.361C16.0608 132.362 16.0608 132.363 16.0607 132.363Z" fill="#003350"/>
<path fill-rule="evenodd" clip-rule="evenodd" d="M143.974 122.537C144.777 122.911 145.125 123.865 144.751 124.668L125.789 165.388C125.261 166.521 124.332 167.419 123.181 167.908C122.048 168.389 120.779 168.439 119.612 168.051L76.1474 156.158C76.1132 156.149 76.0793 156.138 76.0458 156.126C74.7667 155.684 73.3659 155.752 72.1364 156.318C70.9071 156.885 69.9443 157.904 69.4492 159.164C69.4492 159.164 69.4493 159.163 69.4492 159.164L60.5772 181.775C60.052 183.111 60.0704 184.599 60.6284 185.922C61.1864 187.245 62.2397 188.296 63.5631 188.853L63.5639 188.853C64.239 189.137 64.9641 189.283 65.6965 189.283C66.4289 189.283 67.1538 189.136 67.8287 188.851C68.5035 188.566 69.1146 188.15 69.6259 187.625C70.1372 187.101 70.5385 186.479 70.8061 185.798C70.8651 185.647 70.9466 185.506 71.0478 185.38L77.7147 177.066C78.1352 176.541 78.8383 176.334 79.4757 176.548L118.148 189.511C118.198 189.527 118.247 189.546 118.295 189.568C122.983 191.67 128.311 191.838 133.122 190.035C137.932 188.231 141.837 184.602 143.987 179.936C143.987 179.936 143.987 179.937 143.987 179.936L166.745 130.497C167.116 129.692 168.068 129.34 168.873 129.71C169.678 130.081 170.03 131.033 169.659 131.838L146.901 181.278C144.397 186.711 139.85 190.938 134.248 193.038C128.671 195.129 122.497 194.945 117.056 192.527L79.5173 179.945L73.6951 187.206C73.2738 188.194 72.673 189.095 71.9227 189.865C71.1126 190.695 70.1446 191.356 69.0756 191.807C68.0066 192.258 66.8582 192.49 65.6979 192.491C64.5378 192.491 63.3895 192.26 62.3203 191.81C60.2245 190.929 58.5564 189.263 57.6728 187.169C56.7891 185.074 56.76 182.717 57.5917 180.601L66.463 157.992C67.2608 155.961 68.813 154.317 70.7947 153.405C72.7594 152.5 74.9955 152.383 77.0426 153.077L120.505 164.969C120.539 164.978 120.572 164.989 120.606 165C121.037 165.149 121.508 165.133 121.928 164.955C122.348 164.776 122.687 164.449 122.88 164.035L122.88 164.034L141.843 123.314C142.217 122.511 143.171 122.163 143.974 122.537Z" fill="#003350"/>
</g>
<defs>
<clipPath id="clip0_2981_14908">
<rect width="318.715" height="248" fill="white"/>
</clipPath>
</defs>
</svg>
