<svg width="295" height="72" viewBox="0 0 295 72" fill="none" xmlns="http://www.w3.org/2000/svg">
<g clip-path="url(#clip0_497_36457)">
<path d="M0 12C0 8.68629 2.42328 6 5.41256 6L89.3072 6C92.2963 6 94.7198 8.68629 94.7198 12V60C94.7198 63.3137 92.2963 66 89.3072 66H5.41256C2.42328 66 0 63.3137 0 60L0 12Z" fill="url(#paint0_linear_497_36457)"/>
<path fill-rule="evenodd" clip-rule="evenodd" d="M89.3072 6.75L5.41256 6.75C2.79695 6.75 0.67657 9.10051 0.67657 12L0.67657 60C0.67657 62.8995 2.79695 65.25 5.41256 65.25H89.3072C91.9229 65.25 94.0432 62.8995 94.0432 60V12C94.0432 9.10051 91.9229 6.75 89.3072 6.75ZM5.41256 6C2.42328 6 0 8.68629 0 12L0 60C0 63.3137 2.42328 66 5.41256 66H89.3072C92.2963 66 94.7198 63.3137 94.7198 60V12C94.7198 8.68629 92.2963 6 89.3072 6L5.41256 6Z" fill="#003350"/>
<g opacity="0.55">
<mask id="path-3-inside-1_497_36457" fill="white">
<path d="M85.9577 27.1023C85.0257 25.8378 84.2416 24.4979 83.3589 23.2072C83.1954 22.9678 83.0583 22.7264 82.9465 22.4769C83.2952 21.5635 83.496 20.5445 83.496 19.4067C83.4083 17.7972 82.1564 16.3728 80.7061 15.2814C81.1931 15.1284 81.5984 14.9645 81.8437 14.8096C79.3616 14.8096 76.9096 13.7583 75.5579 13.7583C74.6872 13.7583 74.1304 14.1919 74.1304 14.7663C74.187 15.4061 74.9734 16.0559 76.4286 16.0559C76.7581 16.0559 77.1777 16.0207 77.6407 15.9553C78.4284 16.8728 79.0634 17.7037 79.0634 18.8887C79.0634 21.1088 75.8922 22.8411 72.6862 22.8431C72.5058 22.8431 72.335 22.836 72.157 22.826C71.8672 22.2757 70.9004 21.3502 70.9004 20.298C70.9004 18.5316 72.2785 17.089 72.2785 15.3397C72.2785 14.2513 71.6447 13.5783 71.4018 13.2986C71.7963 12.9928 72.2256 12.6176 72.3278 12.3601C72.0981 12.4436 71.8251 12.4526 71.4307 12.4526C69.8926 12.4526 68.6395 12.1187 67.4177 12.1187C66.7202 12.1187 66.5326 12.2997 66.5326 12.4697C66.5326 12.5331 66.5434 12.5975 66.5639 12.6277C66.3041 12.5432 66.06 12.4868 65.7702 12.4436C65.4094 12.3852 65.0222 12.3571 64.6073 12.3571C63.1233 12.3571 62.5954 12.8781 62.5954 13.3238C62.5954 13.7 62.9514 14.3891 63.3542 14.9152C63.9315 14.6717 64.6278 14.5068 64.944 14.5068C65.7329 14.5068 66.434 15.1335 66.8044 15.8779C66.2753 15.9312 66.1743 15.9513 65.6379 15.9513C64.1924 15.9513 63.2087 15.5188 63.0055 15.5188C62.9863 15.5188 62.9478 15.5268 62.9478 15.554C62.9478 15.723 63.3578 16.1716 64.1648 16.4181C65.229 16.743 66.8236 16.8788 67.0894 16.917C67.0894 16.9563 66.82 17.3757 66.517 17.4582C66.4545 17.4743 66.4039 17.4763 66.3282 17.4633C65.2158 17.2802 64.9068 17.2027 63.4961 16.7541C63.454 16.74 63.4264 16.7631 63.4264 16.8003C63.4264 17.2671 64.8707 18.2972 66.1646 18.6935C65.0835 19.8474 63.7355 21.0283 63.0969 22.828C62.9165 22.838 62.7421 22.8451 62.5617 22.8451C59.3533 22.8451 56.1773 21.1128 56.1773 18.8897C56.1773 17.7057 56.8123 16.8748 57.6 15.9563C58.0629 16.0217 58.4826 16.0569 58.8121 16.0569C60.2672 16.0569 61.0549 15.4071 61.1102 14.7673C61.1102 14.1929 60.5535 13.7594 59.6828 13.7594C58.3311 13.7594 55.8779 14.8106 53.397 14.8106C53.6435 14.9655 54.0488 15.1284 54.5346 15.2824C53.0843 16.3738 51.8324 17.7982 51.7446 19.4078C51.7446 20.5485 51.9467 21.5695 52.2966 22.4849C52.186 22.7314 52.0489 22.9708 51.8878 23.2072C51.0063 24.4989 50.2222 25.8388 49.289 27.1023C48.0287 28.8104 47.342 30.8303 45.3999 32.1722V32.2839C46.5796 33.0102 47.6607 32.8663 48.5314 31.8574C48.7118 31.6481 48.8681 31.4218 49.0196 31.1955C50.3461 29.2077 51.6653 27.2169 52.9977 25.2322C53.1023 25.0773 53.148 24.7443 53.4463 24.867C53.6387 24.9455 53.6892 25.2553 53.6207 25.4807C53.5786 25.6215 53.4739 25.7503 53.3874 25.879C51.7687 28.2601 50.1464 30.6402 48.5326 33.0233C48.2632 33.4216 47.9085 33.7395 47.4431 33.9779C47.2458 34.0785 46.938 34.1348 47.0174 34.4044C47.0895 34.6499 47.3553 34.7143 47.6259 34.7706C48.6384 34.9808 49.3576 34.7002 49.9721 33.8039C51.4344 31.6672 52.8835 29.5246 54.3386 27.3849C54.4228 27.2602 54.4781 27.0449 54.6765 27.0992C54.8677 27.1515 54.9086 27.3648 54.8713 27.5358C54.8449 27.6585 54.7811 27.7813 54.7078 27.8919C53.2924 30.0497 51.8793 32.2074 50.4507 34.3592C50.0298 34.9939 49.5271 35.5804 48.8861 36.0813C48.7298 36.2031 48.3462 36.2071 48.4773 36.5049C48.5819 36.7433 48.8777 36.7885 49.1303 36.8368C49.366 36.8821 49.6113 36.861 49.8542 36.8056C50.7826 36.5964 51.355 36.0512 51.8024 35.3852C53.2214 33.2717 54.638 31.1562 56.0607 29.0437C56.1641 28.8898 56.2086 28.6957 56.4299 28.6041C56.7954 28.8456 56.6956 29.087 56.502 29.3777C54.9699 31.6713 53.4595 33.9759 51.9298 36.2705C51.4861 36.9364 50.9738 37.5631 50.2847 38.0792C50.1296 38.1958 49.7159 38.1818 49.8638 38.4745C49.9865 38.7179 50.2559 38.8527 50.5998 38.8889C51.4777 38.9815 52.1451 38.6998 52.6285 37.9926C54.3783 35.4385 56.1256 32.8844 57.8741 30.3303C57.9619 30.2016 58.0473 30.0718 58.1483 29.9511C58.2109 29.8767 58.3059 29.7992 58.4249 29.8485C58.5488 29.8998 58.6474 29.9994 58.5945 30.1201C58.5259 30.275 58.4261 30.4219 58.3311 30.5677C56.6439 33.1691 54.9543 35.7705 53.2659 38.3719C52.75 39.1676 52.204 39.9412 51.0724 40.2842C51.5366 40.757 52.0814 40.8365 52.6742 40.7258C53.427 40.586 53.967 40.2158 54.3506 39.6434C56.2519 36.8006 58.1712 33.9668 60.0917 31.1331C60.2119 30.956 60.3226 30.6583 60.6581 30.788C61.0357 30.9339 60.7735 31.1643 60.6557 31.3474C58.7857 34.2455 56.9121 37.1416 55.0409 40.0398C54.4564 40.9441 53.8179 41.8062 52.7127 42.3434C52.4325 42.4802 52.4818 42.6099 52.7392 42.7427C53.3898 43.0767 54.0355 43.0747 54.6825 42.7478C55.2886 42.442 55.7251 41.9973 56.0643 41.4893L64.1167 30.1976C64.2646 30.6231 64.3644 31.0275 64.3644 31.4298C64.3644 34.3149 63.418 36.867 60.7387 38.8467C60.5474 38.9734 60.3538 39.0982 60.1554 39.2179C60.4729 39.569 60.8866 39.4986 61.2798 39.5066C61.4963 39.5106 61.7753 39.402 61.9063 39.6193C62.0146 39.7983 61.8137 39.9472 61.7151 40.0971C60.8818 41.3596 59.9293 42.5657 59.1789 43.8674C58.8927 44.3633 58.366 44.4589 57.7851 44.3683C57.1117 44.2637 56.4383 44.2828 55.7624 44.2929C54.8449 44.306 54.4276 44.8482 54.7908 45.5694C54.9639 45.9125 55.1792 46.2394 55.386 46.5925C55.7059 46.1599 55.7095 46.171 56.3721 46.0191C56.5681 45.9748 56.7353 45.8451 56.9181 45.7586C57.1201 45.663 57.2933 45.5041 57.6192 45.5111C57.2704 46.0533 56.7365 46.3833 56.3012 46.7846C56.1172 46.9536 55.8839 47.1287 56.0402 47.3812C56.3805 47.9284 56.7137 48.4847 57.2861 49.0168C57.149 48.2694 57.1478 48.2664 57.814 47.9807C57.9788 47.9103 57.9499 47.7815 57.998 47.6699C58.206 47.188 58.2048 46.6478 58.6029 46.2052C58.6702 46.7826 58.669 47.353 58.6702 47.9244C58.6702 48.0964 58.6342 48.2634 58.8795 48.3771C59.4579 48.6446 60.0207 48.9364 60.6052 49.2251C60.6785 48.9776 60.4524 48.8478 60.3767 48.6738C60.3202 48.543 60.1783 48.4092 60.3178 48.2815C60.723 47.9123 60.5005 47.5753 60.2961 47.2162C60.0712 46.8208 59.8488 46.4185 59.6888 46.002C59.4423 45.3582 59.7862 44.989 60.5859 44.989C60.9455 44.989 61.3051 44.992 61.6634 45.0051C62.6387 45.0403 62.6375 45.0433 62.6868 45.8169C62.6892 45.8612 62.7265 45.9054 62.7818 46.0231C63.2568 45.6097 63.3843 45.0554 63.8545 44.7053C64.2117 44.4398 64.1732 44.1179 63.8497 43.8744C63.5034 43.6129 63.3266 43.0264 62.6026 43.3594C62.0254 43.6249 61.4265 43.8583 60.8216 44.1118C60.7928 44.0153 60.7639 43.976 60.7771 43.9499C61.3219 42.8333 62.2731 41.9601 63.228 41.089C63.418 40.9159 63.5515 40.9793 63.6212 41.1875C63.7282 41.5115 63.8834 41.8193 64.1263 42.0889C64.1732 42.1402 64.2622 42.1955 64.3307 42.1955C64.4726 42.1955 64.4618 42.0798 64.4714 41.9973C64.4847 41.8927 64.4822 41.7861 64.4859 41.6794C64.5111 40.8344 64.849 40.0589 65.2603 39.3034C65.3421 39.1535 65.4587 38.9403 65.7101 38.9936C65.9542 39.0459 65.8375 39.2632 65.8448 39.406C65.8604 39.7239 65.8436 40.0428 65.8448 40.3606C65.858 42.288 65.8231 44.2134 65.3301 46.1076C64.8671 47.8872 63.9772 48.6436 62.0927 48.8881C62.486 49.9986 63.5683 50.4081 64.8502 49.9363C65.3156 49.7653 65.7618 49.3166 66.1442 49.3498C66.5711 49.387 66.9475 49.8618 67.3383 50.1546C67.5608 50.3215 67.7604 50.3547 67.9841 50.1586C68.3136 49.8699 68.6275 49.391 68.9931 49.3589C69.3755 49.3257 69.794 49.7562 70.2257 49.9333C71.3044 50.3759 72.7162 49.9423 73.1828 49.0359C72.8714 48.9846 72.5575 48.9545 72.2593 48.88C70.8835 48.54 70.263 47.6306 69.9299 46.5754C69.1891 44.2255 69.3178 41.8122 69.2805 39.413C69.2793 39.2964 69.3238 39.1666 69.4272 39.1384C69.616 39.0861 69.7327 39.233 69.8241 39.3456C70.3628 40.0066 70.548 40.76 70.6238 41.5406C70.6466 41.776 70.5059 42.1693 70.7548 42.2046C71.106 42.2548 71.1866 41.8464 71.3633 41.6221C71.3862 41.5929 71.409 41.5607 71.415 41.5276C71.5161 41.0537 71.7566 41.0749 72.0861 41.3907C72.8774 42.1492 73.6747 42.9047 74.3156 43.7608C74.4515 43.9428 74.662 44.1239 74.5453 44.4166C73.9416 44.144 73.3283 43.9116 72.774 43.6048C72.2773 43.3292 71.9334 43.4016 71.5858 43.7618C71.2455 44.1148 71.0038 44.4549 71.4199 44.8904C71.7061 45.1902 71.9382 45.5242 72.1859 46.0443C72.0981 45.3783 72.5106 45.2747 72.97 45.2435C73.5388 45.2053 74.1088 45.1741 74.6788 45.1721C75.3691 45.1701 75.6084 45.4377 75.3895 45.9819C75.1478 46.5804 74.8604 47.1649 74.5898 47.7554C74.5225 47.9022 74.3637 48.0964 74.5141 48.199C74.9843 48.5209 74.7943 48.8337 74.5826 49.1707C74.5237 49.2633 74.4804 49.378 74.6019 49.4625C74.7233 49.547 74.84 49.4866 74.9446 49.4252C75.2212 49.2633 75.4857 49.0852 75.7732 48.9394C76.467 48.5893 76.6582 48.0753 76.4791 47.4496C76.3564 47.019 76.4406 46.5955 76.4875 46.1489C76.835 47.187 77.4916 48.0893 78.1386 48.9444C79.3881 47.0251 79.6875 47.6498 78.0977 46.3128C78.0845 46.3008 78.0592 46.2988 78.04 46.2917L77.5253 45.8561C77.4435 45.7254 77.3629 45.5936 77.2391 45.3934C77.7514 45.6107 78.1554 45.8511 78.6028 45.9537C79.1572 46.0805 79.6226 46.2062 79.637 46.7766C79.637 46.7877 79.7043 46.7977 79.7621 46.8158C80.0928 46.4315 80.3393 46.003 80.5269 45.5614C80.7987 44.9176 80.124 44.2728 79.3183 44.3543C78.7531 44.4116 78.1711 44.4015 77.6215 44.5102C76.8254 44.6671 76.3853 44.3442 76.0233 43.8362C75.1719 42.6411 74.3168 41.4481 73.4714 40.251C73.338 40.0619 73.0722 39.8647 73.243 39.6323C73.433 39.3738 73.73 39.5499 73.9873 39.5971C74.11 39.6193 74.2387 39.6323 74.3649 39.6313C74.5706 39.6293 74.8544 39.6836 74.9302 39.4935C74.9951 39.3306 74.7173 39.2662 74.579 39.1706C74.0679 38.8205 73.5821 38.4534 73.1227 38.0681C71.2527 36.2151 70.8883 33.9497 70.8883 31.4298C70.8883 31.0295 70.9857 30.6281 71.1324 30.2046L79.1788 41.4893C79.5167 41.9963 79.9545 42.441 80.5606 42.7478C81.2076 43.0747 81.8533 43.0767 82.5039 42.7427C82.7613 42.611 82.8106 42.4802 82.5304 42.3434C81.4264 41.8062 80.7867 40.9431 80.2022 40.0398C78.331 37.1426 76.4574 34.2455 74.5874 31.3474C74.4696 31.1643 74.2074 30.9349 74.585 30.788C74.9205 30.6583 75.0324 30.956 75.1514 31.1331C77.0719 33.9668 78.9912 36.8006 80.8925 39.6434C81.2761 40.2158 81.8149 40.587 82.5689 40.7258C83.1617 40.8355 83.7065 40.756 84.1719 40.2842C83.0403 39.9412 82.4943 39.1676 81.9784 38.3719C80.29 35.7705 78.6004 33.1691 76.9132 30.5677C76.8182 30.4219 76.7184 30.275 76.6498 30.1201C76.5969 29.9984 76.6955 29.8988 76.8194 29.8485C76.9384 29.7992 77.0334 29.8767 77.096 29.9511C77.197 30.0718 77.2824 30.2026 77.3702 30.3303C79.1187 32.8844 80.866 35.4396 82.6158 37.9926C83.1004 38.6988 83.7666 38.9805 84.6457 38.8889C84.9896 38.8527 85.259 38.7179 85.3817 38.4745C85.5296 38.1818 85.1159 38.1958 84.9608 38.0792C84.2717 37.5631 83.7594 36.9364 83.3157 36.2705C81.7848 33.9759 80.2744 31.6723 78.7435 29.3777C78.5487 29.087 78.4501 28.8446 78.8156 28.6041C79.0381 28.6947 79.0814 28.8898 79.1848 29.0437C80.6075 31.1562 82.0229 33.2717 83.4431 35.3852C83.8905 36.0512 84.4617 36.5964 85.3913 36.8056C85.6354 36.8599 85.8807 36.8811 86.1152 36.8368C86.3678 36.7885 86.6636 36.7443 86.7682 36.5049C86.8993 36.2061 86.5157 36.2031 86.3594 36.0813C85.7184 35.5804 85.2157 34.9939 84.7948 34.3592C83.3674 32.2074 81.9531 30.0487 80.5377 27.8919C80.4656 27.7813 80.4018 27.6585 80.3742 27.5358C80.3369 27.3638 80.3778 27.1515 80.569 27.0992C80.7674 27.0449 80.8227 27.2602 80.9069 27.3849C82.3608 29.5246 83.8111 31.6672 85.2734 33.8039C85.8867 34.7002 86.6071 34.9798 87.6196 34.7706C87.8914 34.7143 88.1572 34.6499 88.2281 34.4044C88.3075 34.1338 87.9997 34.0785 87.8024 33.9779C87.337 33.7395 86.9823 33.4206 86.7129 33.0233C85.0979 30.6402 83.4756 28.2611 81.8581 25.879C81.7704 25.7503 81.6669 25.6205 81.6248 25.4807C81.5563 25.2553 81.6068 24.9455 81.7992 24.867C82.0975 24.7443 82.1432 25.0773 82.2478 25.2322C83.5802 27.2169 84.8994 29.2077 86.2259 31.1955C86.3762 31.4218 86.5325 31.6471 86.7141 31.8574C87.5848 32.8653 88.6659 33.0092 89.8456 32.2839V32.1722C87.9035 30.8313 87.2156 28.8114 85.9565 27.1023H85.9577ZM56.3842 15.7481C56.5261 15.7763 56.6692 15.8044 56.8111 15.8296C56.1821 16.4724 55.0697 17.5498 55.0697 18.9742C55.0697 21.8049 58.6859 24.2625 62.7782 24.2625C62.7518 24.5049 62.7385 24.7604 62.7385 25.022C62.7385 25.4394 62.7674 25.8287 62.8155 26.1949C58.1856 26.1707 54.1101 23.0282 54.1101 19.6431C54.1101 17.7107 55.7913 16.1787 56.3842 15.7481ZM67.532 16.2139C67.3889 15.7119 67.0786 15.1958 66.6878 14.8065C66.3306 14.4545 65.7413 14.035 64.9452 14.035C64.5833 14.035 63.9736 14.1768 63.5863 14.3146C63.4408 14.0933 63.1594 13.5632 63.1594 13.3238C63.1594 13.0844 63.6573 12.8278 64.6085 12.8278C66.7022 12.8278 67.9517 13.6185 67.9517 14.9464C67.9517 15.4131 67.7304 15.8366 67.532 16.2139ZM68.4724 14.4867C68.3966 14.1124 68.2258 13.7724 67.9661 13.4807C67.9805 13.1387 68.1489 12.8097 68.8091 13.0803C68.4519 13.3861 68.7273 13.9273 68.7273 13.9273C68.7273 13.9273 69.4573 13.6437 69.3057 13.2403C70.3893 13.4566 69.61 14.6738 68.4724 14.4867ZM73.1227 24.2615C77.2162 24.2615 80.8312 21.8049 80.8312 18.9732C80.8312 17.5488 79.7188 16.4714 79.0898 15.8286C79.2317 15.8034 79.3748 15.7763 79.5167 15.7471C80.1096 16.1787 81.7908 17.7097 81.7908 19.6421C81.7908 23.0272 77.7153 26.1697 73.0854 26.1939C73.1335 25.8277 73.1624 25.4384 73.1624 25.0209C73.1624 24.7584 73.1492 24.5039 73.1227 24.2615Z"/>
</mask>
<path d="M85.9577 27.1023C85.0257 25.8378 84.2416 24.4979 83.3589 23.2072C83.1954 22.9678 83.0583 22.7264 82.9465 22.4769C83.2952 21.5635 83.496 20.5445 83.496 19.4067C83.4083 17.7972 82.1564 16.3728 80.7061 15.2814C81.1931 15.1284 81.5984 14.9645 81.8437 14.8096C79.3616 14.8096 76.9096 13.7583 75.5579 13.7583C74.6872 13.7583 74.1304 14.1919 74.1304 14.7663C74.187 15.4061 74.9734 16.0559 76.4286 16.0559C76.7581 16.0559 77.1777 16.0207 77.6407 15.9553C78.4284 16.8728 79.0634 17.7037 79.0634 18.8887C79.0634 21.1088 75.8922 22.8411 72.6862 22.8431C72.5058 22.8431 72.335 22.836 72.157 22.826C71.8672 22.2757 70.9004 21.3502 70.9004 20.298C70.9004 18.5316 72.2785 17.089 72.2785 15.3397C72.2785 14.2513 71.6447 13.5783 71.4018 13.2986C71.7963 12.9928 72.2256 12.6176 72.3278 12.3601C72.0981 12.4436 71.8251 12.4526 71.4307 12.4526C69.8926 12.4526 68.6395 12.1187 67.4177 12.1187C66.7202 12.1187 66.5326 12.2997 66.5326 12.4697C66.5326 12.5331 66.5434 12.5975 66.5639 12.6277C66.3041 12.5432 66.06 12.4868 65.7702 12.4436C65.4094 12.3852 65.0222 12.3571 64.6073 12.3571C63.1233 12.3571 62.5954 12.8781 62.5954 13.3238C62.5954 13.7 62.9514 14.3891 63.3542 14.9152C63.9315 14.6717 64.6278 14.5068 64.944 14.5068C65.7329 14.5068 66.434 15.1335 66.8044 15.8779C66.2753 15.9312 66.1743 15.9513 65.6379 15.9513C64.1924 15.9513 63.2087 15.5188 63.0055 15.5188C62.9863 15.5188 62.9478 15.5268 62.9478 15.554C62.9478 15.723 63.3578 16.1716 64.1648 16.4181C65.229 16.743 66.8236 16.8788 67.0894 16.917C67.0894 16.9563 66.82 17.3757 66.517 17.4582C66.4545 17.4743 66.4039 17.4763 66.3282 17.4633C65.2158 17.2802 64.9068 17.2027 63.4961 16.7541C63.454 16.74 63.4264 16.7631 63.4264 16.8003C63.4264 17.2671 64.8707 18.2972 66.1646 18.6935C65.0835 19.8474 63.7355 21.0283 63.0969 22.828C62.9165 22.838 62.7421 22.8451 62.5617 22.8451C59.3533 22.8451 56.1773 21.1128 56.1773 18.8897C56.1773 17.7057 56.8123 16.8748 57.6 15.9563C58.0629 16.0217 58.4826 16.0569 58.8121 16.0569C60.2672 16.0569 61.0549 15.4071 61.1102 14.7673C61.1102 14.1929 60.5535 13.7594 59.6828 13.7594C58.3311 13.7594 55.8779 14.8106 53.397 14.8106C53.6435 14.9655 54.0488 15.1284 54.5346 15.2824C53.0843 16.3738 51.8324 17.7982 51.7446 19.4078C51.7446 20.5485 51.9467 21.5695 52.2966 22.4849C52.186 22.7314 52.0489 22.9708 51.8878 23.2072C51.0063 24.4989 50.2222 25.8388 49.289 27.1023C48.0287 28.8104 47.342 30.8303 45.3999 32.1722V32.2839C46.5796 33.0102 47.6607 32.8663 48.5314 31.8574C48.7118 31.6481 48.8681 31.4218 49.0196 31.1955C50.3461 29.2077 51.6653 27.2169 52.9977 25.2322C53.1023 25.0773 53.148 24.7443 53.4463 24.867C53.6387 24.9455 53.6892 25.2553 53.6207 25.4807C53.5786 25.6215 53.4739 25.7503 53.3874 25.879C51.7687 28.2601 50.1464 30.6402 48.5326 33.0233C48.2632 33.4216 47.9085 33.7395 47.4431 33.9779C47.2458 34.0785 46.938 34.1348 47.0174 34.4044C47.0895 34.6499 47.3553 34.7143 47.6259 34.7706C48.6384 34.9808 49.3576 34.7002 49.9721 33.8039C51.4344 31.6672 52.8835 29.5246 54.3386 27.3849C54.4228 27.2602 54.4781 27.0449 54.6765 27.0992C54.8677 27.1515 54.9086 27.3648 54.8713 27.5358C54.8449 27.6585 54.7811 27.7813 54.7078 27.8919C53.2924 30.0497 51.8793 32.2074 50.4507 34.3592C50.0298 34.9939 49.5271 35.5804 48.8861 36.0813C48.7298 36.2031 48.3462 36.2071 48.4773 36.5049C48.5819 36.7433 48.8777 36.7885 49.1303 36.8368C49.366 36.8821 49.6113 36.861 49.8542 36.8056C50.7826 36.5964 51.355 36.0512 51.8024 35.3852C53.2214 33.2717 54.638 31.1562 56.0607 29.0437C56.1641 28.8898 56.2086 28.6957 56.4299 28.6041C56.7954 28.8456 56.6956 29.087 56.502 29.3777C54.9699 31.6713 53.4595 33.9759 51.9298 36.2705C51.4861 36.9364 50.9738 37.5631 50.2847 38.0792C50.1296 38.1958 49.7159 38.1818 49.8638 38.4745C49.9865 38.7179 50.2559 38.8527 50.5998 38.8889C51.4777 38.9815 52.1451 38.6998 52.6285 37.9926C54.3783 35.4385 56.1256 32.8844 57.8741 30.3303C57.9619 30.2016 58.0473 30.0718 58.1483 29.9511C58.2109 29.8767 58.3059 29.7992 58.4249 29.8485C58.5488 29.8998 58.6474 29.9994 58.5945 30.1201C58.5259 30.275 58.4261 30.4219 58.3311 30.5677C56.6439 33.1691 54.9543 35.7705 53.2659 38.3719C52.75 39.1676 52.204 39.9412 51.0724 40.2842C51.5366 40.757 52.0814 40.8365 52.6742 40.7258C53.427 40.586 53.967 40.2158 54.3506 39.6434C56.2519 36.8006 58.1712 33.9668 60.0917 31.1331C60.2119 30.956 60.3226 30.6583 60.6581 30.788C61.0357 30.9339 60.7735 31.1643 60.6557 31.3474C58.7857 34.2455 56.9121 37.1416 55.0409 40.0398C54.4564 40.9441 53.8179 41.8062 52.7127 42.3434C52.4325 42.4802 52.4818 42.6099 52.7392 42.7427C53.3898 43.0767 54.0355 43.0747 54.6825 42.7478C55.2886 42.442 55.7251 41.9973 56.0643 41.4893L64.1167 30.1976C64.2646 30.6231 64.3644 31.0275 64.3644 31.4298C64.3644 34.3149 63.418 36.867 60.7387 38.8467C60.5474 38.9734 60.3538 39.0982 60.1554 39.2179C60.4729 39.569 60.8866 39.4986 61.2798 39.5066C61.4963 39.5106 61.7753 39.402 61.9063 39.6193C62.0146 39.7983 61.8137 39.9472 61.7151 40.0971C60.8818 41.3596 59.9293 42.5657 59.1789 43.8674C58.8927 44.3633 58.366 44.4589 57.7851 44.3683C57.1117 44.2637 56.4383 44.2828 55.7624 44.2929C54.8449 44.306 54.4276 44.8482 54.7908 45.5694C54.9639 45.9125 55.1792 46.2394 55.386 46.5925C55.7059 46.1599 55.7095 46.171 56.3721 46.0191C56.5681 45.9748 56.7353 45.8451 56.9181 45.7586C57.1201 45.663 57.2933 45.5041 57.6192 45.5111C57.2704 46.0533 56.7365 46.3833 56.3012 46.7846C56.1172 46.9536 55.8839 47.1287 56.0402 47.3812C56.3805 47.9284 56.7137 48.4847 57.2861 49.0168C57.149 48.2694 57.1478 48.2664 57.814 47.9807C57.9788 47.9103 57.9499 47.7815 57.998 47.6699C58.206 47.188 58.2048 46.6478 58.6029 46.2052C58.6702 46.7826 58.669 47.353 58.6702 47.9244C58.6702 48.0964 58.6342 48.2634 58.8795 48.3771C59.4579 48.6446 60.0207 48.9364 60.6052 49.2251C60.6785 48.9776 60.4524 48.8478 60.3767 48.6738C60.3202 48.543 60.1783 48.4092 60.3178 48.2815C60.723 47.9123 60.5005 47.5753 60.2961 47.2162C60.0712 46.8208 59.8488 46.4185 59.6888 46.002C59.4423 45.3582 59.7862 44.989 60.5859 44.989C60.9455 44.989 61.3051 44.992 61.6634 45.0051C62.6387 45.0403 62.6375 45.0433 62.6868 45.8169C62.6892 45.8612 62.7265 45.9054 62.7818 46.0231C63.2568 45.6097 63.3843 45.0554 63.8545 44.7053C64.2117 44.4398 64.1732 44.1179 63.8497 43.8744C63.5034 43.6129 63.3266 43.0264 62.6026 43.3594C62.0254 43.6249 61.4265 43.8583 60.8216 44.1118C60.7928 44.0153 60.7639 43.976 60.7771 43.9499C61.3219 42.8333 62.2731 41.9601 63.228 41.089C63.418 40.9159 63.5515 40.9793 63.6212 41.1875C63.7282 41.5115 63.8834 41.8193 64.1263 42.0889C64.1732 42.1402 64.2622 42.1955 64.3307 42.1955C64.4726 42.1955 64.4618 42.0798 64.4714 41.9973C64.4847 41.8927 64.4822 41.7861 64.4859 41.6794C64.5111 40.8344 64.849 40.0589 65.2603 39.3034C65.3421 39.1535 65.4587 38.9403 65.7101 38.9936C65.9542 39.0459 65.8375 39.2632 65.8448 39.406C65.8604 39.7239 65.8436 40.0428 65.8448 40.3606C65.858 42.288 65.8231 44.2134 65.3301 46.1076C64.8671 47.8872 63.9772 48.6436 62.0927 48.8881C62.486 49.9986 63.5683 50.4081 64.8502 49.9363C65.3156 49.7653 65.7618 49.3166 66.1442 49.3498C66.5711 49.387 66.9475 49.8618 67.3383 50.1546C67.5608 50.3215 67.7604 50.3547 67.9841 50.1586C68.3136 49.8699 68.6275 49.391 68.9931 49.3589C69.3755 49.3257 69.794 49.7562 70.2257 49.9333C71.3044 50.3759 72.7162 49.9423 73.1828 49.0359C72.8714 48.9846 72.5575 48.9545 72.2593 48.88C70.8835 48.54 70.263 47.6306 69.9299 46.5754C69.1891 44.2255 69.3178 41.8122 69.2805 39.413C69.2793 39.2964 69.3238 39.1666 69.4272 39.1384C69.616 39.0861 69.7327 39.233 69.8241 39.3456C70.3628 40.0066 70.548 40.76 70.6238 41.5406C70.6466 41.776 70.5059 42.1693 70.7548 42.2046C71.106 42.2548 71.1866 41.8464 71.3633 41.6221C71.3862 41.5929 71.409 41.5607 71.415 41.5276C71.5161 41.0537 71.7566 41.0749 72.0861 41.3907C72.8774 42.1492 73.6747 42.9047 74.3156 43.7608C74.4515 43.9428 74.662 44.1239 74.5453 44.4166C73.9416 44.144 73.3283 43.9116 72.774 43.6048C72.2773 43.3292 71.9334 43.4016 71.5858 43.7618C71.2455 44.1148 71.0038 44.4549 71.4199 44.8904C71.7061 45.1902 71.9382 45.5242 72.1859 46.0443C72.0981 45.3783 72.5106 45.2747 72.97 45.2435C73.5388 45.2053 74.1088 45.1741 74.6788 45.1721C75.3691 45.1701 75.6084 45.4377 75.3895 45.9819C75.1478 46.5804 74.8604 47.1649 74.5898 47.7554C74.5225 47.9022 74.3637 48.0964 74.5141 48.199C74.9843 48.5209 74.7943 48.8337 74.5826 49.1707C74.5237 49.2633 74.4804 49.378 74.6019 49.4625C74.7233 49.547 74.84 49.4866 74.9446 49.4252C75.2212 49.2633 75.4857 49.0852 75.7732 48.9394C76.467 48.5893 76.6582 48.0753 76.4791 47.4496C76.3564 47.019 76.4406 46.5955 76.4875 46.1489C76.835 47.187 77.4916 48.0893 78.1386 48.9444C79.3881 47.0251 79.6875 47.6498 78.0977 46.3128C78.0845 46.3008 78.0592 46.2988 78.04 46.2917L77.5253 45.8561C77.4435 45.7254 77.3629 45.5936 77.2391 45.3934C77.7514 45.6107 78.1554 45.8511 78.6028 45.9537C79.1572 46.0805 79.6226 46.2062 79.637 46.7766C79.637 46.7877 79.7043 46.7977 79.7621 46.8158C80.0928 46.4315 80.3393 46.003 80.5269 45.5614C80.7987 44.9176 80.124 44.2728 79.3183 44.3543C78.7531 44.4116 78.1711 44.4015 77.6215 44.5102C76.8254 44.6671 76.3853 44.3442 76.0233 43.8362C75.1719 42.6411 74.3168 41.4481 73.4714 40.251C73.338 40.0619 73.0722 39.8647 73.243 39.6323C73.433 39.3738 73.73 39.5499 73.9873 39.5971C74.11 39.6193 74.2387 39.6323 74.3649 39.6313C74.5706 39.6293 74.8544 39.6836 74.9302 39.4935C74.9951 39.3306 74.7173 39.2662 74.579 39.1706C74.0679 38.8205 73.5821 38.4534 73.1227 38.0681C71.2527 36.2151 70.8883 33.9497 70.8883 31.4298C70.8883 31.0295 70.9857 30.6281 71.1324 30.2046L79.1788 41.4893C79.5167 41.9963 79.9545 42.441 80.5606 42.7478C81.2076 43.0747 81.8533 43.0767 82.5039 42.7427C82.7613 42.611 82.8106 42.4802 82.5304 42.3434C81.4264 41.8062 80.7867 40.9431 80.2022 40.0398C78.331 37.1426 76.4574 34.2455 74.5874 31.3474C74.4696 31.1643 74.2074 30.9349 74.585 30.788C74.9205 30.6583 75.0324 30.956 75.1514 31.1331C77.0719 33.9668 78.9912 36.8006 80.8925 39.6434C81.2761 40.2158 81.8149 40.587 82.5689 40.7258C83.1617 40.8355 83.7065 40.756 84.1719 40.2842C83.0403 39.9412 82.4943 39.1676 81.9784 38.3719C80.29 35.7705 78.6004 33.1691 76.9132 30.5677C76.8182 30.4219 76.7184 30.275 76.6498 30.1201C76.5969 29.9984 76.6955 29.8988 76.8194 29.8485C76.9384 29.7992 77.0334 29.8767 77.096 29.9511C77.197 30.0718 77.2824 30.2026 77.3702 30.3303C79.1187 32.8844 80.866 35.4396 82.6158 37.9926C83.1004 38.6988 83.7666 38.9805 84.6457 38.8889C84.9896 38.8527 85.259 38.7179 85.3817 38.4745C85.5296 38.1818 85.1159 38.1958 84.9608 38.0792C84.2717 37.5631 83.7594 36.9364 83.3157 36.2705C81.7848 33.9759 80.2744 31.6723 78.7435 29.3777C78.5487 29.087 78.4501 28.8446 78.8156 28.6041C79.0381 28.6947 79.0814 28.8898 79.1848 29.0437C80.6075 31.1562 82.0229 33.2717 83.4431 35.3852C83.8905 36.0512 84.4617 36.5964 85.3913 36.8056C85.6354 36.8599 85.8807 36.8811 86.1152 36.8368C86.3678 36.7885 86.6636 36.7443 86.7682 36.5049C86.8993 36.2061 86.5157 36.2031 86.3594 36.0813C85.7184 35.5804 85.2157 34.9939 84.7948 34.3592C83.3674 32.2074 81.9531 30.0487 80.5377 27.8919C80.4656 27.7813 80.4018 27.6585 80.3742 27.5358C80.3369 27.3638 80.3778 27.1515 80.569 27.0992C80.7674 27.0449 80.8227 27.2602 80.9069 27.3849C82.3608 29.5246 83.8111 31.6672 85.2734 33.8039C85.8867 34.7002 86.6071 34.9798 87.6196 34.7706C87.8914 34.7143 88.1572 34.6499 88.2281 34.4044C88.3075 34.1338 87.9997 34.0785 87.8024 33.9779C87.337 33.7395 86.9823 33.4206 86.7129 33.0233C85.0979 30.6402 83.4756 28.2611 81.8581 25.879C81.7704 25.7503 81.6669 25.6205 81.6248 25.4807C81.5563 25.2553 81.6068 24.9455 81.7992 24.867C82.0975 24.7443 82.1432 25.0773 82.2478 25.2322C83.5802 27.2169 84.8994 29.2077 86.2259 31.1955C86.3762 31.4218 86.5325 31.6471 86.7141 31.8574C87.5848 32.8653 88.6659 33.0092 89.8456 32.2839V32.1722C87.9035 30.8313 87.2156 28.8114 85.9565 27.1023H85.9577ZM56.3842 15.7481C56.5261 15.7763 56.6692 15.8044 56.8111 15.8296C56.1821 16.4724 55.0697 17.5498 55.0697 18.9742C55.0697 21.8049 58.6859 24.2625 62.7782 24.2625C62.7518 24.5049 62.7385 24.7604 62.7385 25.022C62.7385 25.4394 62.7674 25.8287 62.8155 26.1949C58.1856 26.1707 54.1101 23.0282 54.1101 19.6431C54.1101 17.7107 55.7913 16.1787 56.3842 15.7481ZM67.532 16.2139C67.3889 15.7119 67.0786 15.1958 66.6878 14.8065C66.3306 14.4545 65.7413 14.035 64.9452 14.035C64.5833 14.035 63.9736 14.1768 63.5863 14.3146C63.4408 14.0933 63.1594 13.5632 63.1594 13.3238C63.1594 13.0844 63.6573 12.8278 64.6085 12.8278C66.7022 12.8278 67.9517 13.6185 67.9517 14.9464C67.9517 15.4131 67.7304 15.8366 67.532 16.2139ZM68.4724 14.4867C68.3966 14.1124 68.2258 13.7724 67.9661 13.4807C67.9805 13.1387 68.1489 12.8097 68.8091 13.0803C68.4519 13.3861 68.7273 13.9273 68.7273 13.9273C68.7273 13.9273 69.4573 13.6437 69.3057 13.2403C70.3893 13.4566 69.61 14.6738 68.4724 14.4867ZM73.1227 24.2615C77.2162 24.2615 80.8312 21.8049 80.8312 18.9732C80.8312 17.5488 79.7188 16.4714 79.0898 15.8286C79.2317 15.8034 79.3748 15.7763 79.5167 15.7471C80.1096 16.1787 81.7908 17.7097 81.7908 19.6421C81.7908 23.0272 77.7153 26.1697 73.0854 26.1939C73.1335 25.8277 73.1624 25.4384 73.1624 25.0209C73.1624 24.7584 73.1492 24.5039 73.1227 24.2615Z" stroke="black" stroke-opacity="0.1" stroke-width="2" mask="url(#path-3-inside-1_497_36457)"/>
</g>
<rect width="30.2727" height="36" rx="4" transform="matrix(-1 0 0 1 38.2734 22)" fill="black" fill-opacity="0.1"/>
</g>
<path d="M107.199 35.2929H110.556V31.5039H111.951V35.2929H115.299V36.6879H111.951V40.4949H110.556V36.6879H107.199V35.2929Z" fill="#0B0C0C"/>
<rect x="127.5" y="9" width="87" height="32" rx="4" fill="#004B76"/>
<path d="M137.401 30.9998V29.7198H140.161V21.9918L140.625 20.1758L139.537 21.6638L137.841 23.1678L136.977 22.1998L140.641 18.8398L141.841 18.9998V29.7198H144.601V30.9998H137.401Z" fill="white"/>
<path d="M148.967 30.9998V29.6558C149.212 29.2665 149.479 28.8825 149.767 28.5038C150.055 28.1252 150.345 27.7598 150.639 27.4078C150.937 27.0505 151.228 26.7118 151.511 26.3918C151.793 26.0665 152.055 25.7678 152.295 25.4958C152.572 25.1758 152.839 24.8825 153.095 24.6158C153.356 24.3438 153.585 24.0772 153.783 23.8158C153.98 23.5545 154.137 23.2852 154.255 23.0078C154.372 22.7252 154.431 22.4158 154.431 22.0798C154.431 21.8238 154.383 21.5838 154.287 21.3598C154.191 21.1305 154.055 20.9332 153.879 20.7678C153.708 20.5972 153.503 20.4638 153.263 20.3678C153.023 20.2665 152.759 20.2158 152.471 20.2158C152.145 20.2158 151.863 20.2612 151.623 20.3518C151.388 20.4372 151.18 20.5518 150.999 20.6958C150.823 20.8398 150.668 21.0025 150.535 21.1838C150.407 21.3598 150.287 21.5385 150.175 21.7198L149.047 21.2398C149.185 20.8932 149.361 20.5758 149.575 20.2878C149.793 19.9945 150.049 19.7438 150.343 19.5358C150.636 19.3225 150.969 19.1572 151.343 19.0398C151.716 18.9225 152.132 18.8638 152.591 18.8638C153.129 18.8638 153.609 18.9598 154.031 19.1518C154.452 19.3438 154.807 19.5972 155.095 19.9118C155.388 20.2212 155.609 20.5732 155.759 20.9678C155.913 21.3625 155.991 21.7625 155.991 22.1678C155.991 22.5785 155.913 22.9705 155.759 23.3438C155.609 23.7118 155.42 24.0638 155.191 24.3998C154.967 24.7305 154.724 25.0425 154.463 25.3358C154.201 25.6292 153.961 25.9038 153.743 26.1598C153.465 26.4852 153.188 26.8052 152.911 27.1198C152.633 27.4345 152.367 27.7438 152.111 28.0478C151.86 28.3465 151.625 28.6372 151.407 28.9198C151.188 29.1972 150.999 29.4638 150.839 29.7198H156.439V30.9998H148.967Z" fill="white"/>
<path d="M161.325 20.2798L161.445 18.9998H167.685V20.1198C167.621 20.3332 167.512 20.5572 167.357 20.7918C167.208 21.0212 167.029 21.2558 166.821 21.4958C166.618 21.7305 166.394 21.9625 166.149 22.1918C165.909 22.4212 165.666 22.6398 165.421 22.8478L164.365 23.4398C164.418 23.4292 164.485 23.4238 164.565 23.4238C164.65 23.4185 164.73 23.4158 164.805 23.4158C165.322 23.4158 165.802 23.4798 166.245 23.6078C166.693 23.7358 167.08 23.9305 167.405 24.1918C167.736 24.4478 167.994 24.7758 168.181 25.1758C168.373 25.5705 168.469 26.0372 168.469 26.5758C168.469 27.0932 168.373 27.5625 168.181 27.9838C167.989 28.4052 167.725 28.7812 167.389 29.1118C167.058 29.4372 166.669 29.7198 166.221 29.9598C165.773 30.1945 165.293 30.3892 164.781 30.5438C164.274 30.6985 163.749 30.8132 163.205 30.8878C162.661 30.9625 162.128 30.9998 161.605 30.9998V29.7198C162.048 29.7038 162.482 29.6638 162.909 29.5998C163.336 29.5358 163.741 29.4478 164.125 29.3358C164.509 29.2185 164.864 29.0772 165.189 28.9118C165.514 28.7465 165.794 28.5545 166.029 28.3358C166.269 28.1118 166.456 27.8612 166.589 27.5838C166.722 27.3012 166.789 26.9918 166.789 26.6558C166.789 26.2718 166.706 25.9518 166.541 25.6958C166.381 25.4398 166.16 25.2372 165.877 25.0878C165.594 24.9385 165.261 24.8345 164.877 24.7758C164.498 24.7118 164.09 24.6798 163.653 24.6798C163.482 24.6798 163.296 24.6852 163.093 24.6958C162.896 24.7012 162.717 24.7092 162.557 24.7198V23.4798C162.776 23.3198 163.013 23.1385 163.269 22.9358C163.525 22.7332 163.784 22.5225 164.045 22.3038C164.306 22.0798 164.56 21.8558 164.805 21.6318C165.056 21.4025 165.282 21.1865 165.485 20.9838C165.688 20.7758 165.858 20.5838 165.997 20.4078C166.136 20.2265 166.226 20.0772 166.269 19.9598L165.053 20.2798H161.325Z" fill="white"/>
<path d="M180.603 28.5998H179.163V30.9998H177.483V28.5998H172.723V27.2318L176.595 18.8398L178.107 18.9998L174.787 26.1998L174.043 27.3198H177.483V24.0638L179.163 24.1998V27.3198H180.723L180.603 28.5998Z" fill="white"/>
<path d="M187.17 23.1438C187.207 23.1225 187.271 23.0878 187.362 23.0398C187.458 22.9918 187.575 22.9438 187.714 22.8958C187.852 22.8478 188.01 22.8078 188.186 22.7758C188.367 22.7385 188.567 22.7198 188.786 22.7198C189.34 22.7198 189.834 22.8078 190.266 22.9838C190.703 23.1545 191.071 23.3918 191.37 23.6958C191.674 23.9945 191.903 24.3465 192.058 24.7518C192.218 25.1572 192.298 25.5892 192.298 26.0478C192.298 26.5865 192.202 27.0852 192.01 27.5438C191.818 27.9972 191.554 28.4078 191.218 28.7758C190.887 29.1385 190.498 29.4585 190.05 29.7358C189.607 30.0132 189.132 30.2478 188.626 30.4398C188.124 30.6265 187.607 30.7678 187.074 30.8638C186.54 30.9545 186.018 30.9998 185.506 30.9998V29.7198C185.906 29.7092 186.311 29.6612 186.722 29.5758C187.132 29.4905 187.527 29.3732 187.906 29.2238C188.29 29.0745 188.647 28.8958 188.978 28.6878C189.314 28.4798 189.604 28.2478 189.85 27.9918C190.1 27.7358 190.298 27.4585 190.442 27.1598C190.586 26.8612 190.658 26.5465 190.658 26.2158C190.658 25.9438 190.612 25.6798 190.522 25.4238C190.436 25.1678 190.306 24.9412 190.13 24.7438C189.959 24.5412 189.743 24.3785 189.482 24.2558C189.22 24.1332 188.916 24.0718 188.57 24.0718C188.298 24.0718 188.052 24.0905 187.834 24.1278C187.615 24.1598 187.42 24.2025 187.25 24.2558C187.079 24.3092 186.93 24.3678 186.802 24.4318C186.679 24.4905 186.578 24.5465 186.498 24.5998H185.506V18.9998H191.53V20.2798H187.17V23.1438Z" fill="white"/>
<path d="M203.2 20.2478C203.162 20.2372 203.106 20.2318 203.032 20.2318C202.962 20.2265 202.898 20.2238 202.84 20.2238C202.456 20.2238 202.082 20.2852 201.72 20.4078C201.357 20.5252 201.016 20.6932 200.696 20.9118C200.376 21.1305 200.08 21.3918 199.808 21.6958C199.541 21.9998 199.304 22.3358 199.096 22.7038C198.893 23.0665 198.725 23.4558 198.592 23.8718C198.458 24.2878 198.37 24.7172 198.328 25.1598L198.992 24.2238C199.125 24.1385 199.28 24.0585 199.456 23.9838C199.637 23.9038 199.826 23.8345 200.024 23.7758C200.221 23.7172 200.421 23.6718 200.624 23.6398C200.826 23.6025 201.018 23.5838 201.2 23.5838C201.664 23.5838 202.109 23.6478 202.536 23.7758C202.968 23.9038 203.349 24.1012 203.68 24.3678C204.016 24.6345 204.282 24.9785 204.48 25.3998C204.682 25.8158 204.784 26.3145 204.784 26.8958C204.784 27.4718 204.685 28.0185 204.488 28.5358C204.296 29.0478 204.024 29.4985 203.672 29.8878C203.32 30.2718 202.898 30.5758 202.408 30.7998C201.917 31.0238 201.373 31.1358 200.776 31.1358C200.253 31.1358 199.789 31.0532 199.384 30.8878C198.984 30.7172 198.634 30.4932 198.336 30.2158C198.037 29.9385 197.786 29.6212 197.584 29.2638C197.386 28.9065 197.224 28.5412 197.096 28.1678C196.973 27.7892 196.885 27.4158 196.832 27.0478C196.778 26.6798 196.752 26.3438 196.752 26.0398C196.752 25.4052 196.816 24.7865 196.944 24.1838C197.077 23.5812 197.266 23.0158 197.512 22.4878C197.762 21.9545 198.066 21.4665 198.424 21.0238C198.781 20.5758 199.186 20.1945 199.64 19.8798C200.098 19.5598 200.6 19.3118 201.144 19.1358C201.693 18.9545 202.282 18.8638 202.912 18.8638C202.992 18.8638 203.08 18.8665 203.176 18.8718C203.272 18.8718 203.346 18.8772 203.4 18.8878L203.2 20.2478ZM198.4 26.2238C198.4 26.3732 198.4 26.5092 198.4 26.6318C198.405 26.7545 198.413 26.8745 198.424 26.9918C198.434 27.1092 198.45 27.2292 198.472 27.3518C198.493 27.4692 198.522 27.5998 198.56 27.7438C198.634 28.0478 198.736 28.3252 198.864 28.5758C198.997 28.8212 199.154 29.0345 199.336 29.2158C199.522 29.3918 199.736 29.5305 199.976 29.6318C200.221 29.7278 200.496 29.7758 200.8 29.7758C201.221 29.7758 201.578 29.6958 201.872 29.5358C202.17 29.3758 202.413 29.1652 202.6 28.9038C202.786 28.6372 202.922 28.3358 203.008 27.9998C203.098 27.6638 203.144 27.3225 203.144 26.9758C203.144 26.6398 203.093 26.3438 202.992 26.0878C202.896 25.8318 202.757 25.6212 202.576 25.4558C202.394 25.2852 202.176 25.1572 201.92 25.0718C201.669 24.9865 201.389 24.9438 201.08 24.9438C200.792 24.9438 200.512 24.9785 200.24 25.0478C199.968 25.1172 199.712 25.2105 199.472 25.3278C199.237 25.4452 199.026 25.5812 198.84 25.7358C198.658 25.8905 198.512 26.0532 198.4 26.2238Z" fill="white"/>
<path d="M145.757 57.112C145.757 55.474 144.763 54.452 143.265 54.452C142.341 54.452 141.655 54.746 141.179 55.096C141.277 52.856 142.425 51.764 143.993 51.764C144.693 51.764 145.085 51.946 145.197 52.002L145.393 51.022C145.197 50.938 144.791 50.756 143.923 50.756C141.977 50.756 140.003 52.184 140.003 55.53C140.003 58.932 141.249 60.192 143.069 60.192C144.749 60.192 145.757 59.03 145.757 57.112ZM142.859 55.46C144.035 55.46 144.623 56.16 144.623 57.266C144.623 58.554 144.049 59.184 143.125 59.184C141.949 59.184 141.249 58.288 141.179 56.006C141.557 55.712 142.103 55.46 142.859 55.46Z" fill="#0B0C0C"/>
<path d="M151.021 55.292H147.241V56.216H151.021V55.292Z" fill="#0B0C0C"/>
<path d="M152.636 56.79C152.636 58.988 153.756 60.192 155.226 60.192C156.584 60.192 157.046 59.52 157.228 59.268H157.256V60.024H158.306V50L157.172 50.126V53.416C156.92 53.304 156.5 53.178 155.912 53.178C154.288 53.178 152.636 54.2 152.636 56.79ZM153.812 56.706C153.812 54.886 154.666 54.186 155.968 54.186C156.57 54.186 156.948 54.354 157.172 54.522V58.4C156.976 58.638 156.556 59.142 155.646 59.142C154.638 59.142 153.812 58.484 153.812 56.706Z" fill="#0B0C0C"/>
<path d="M161.768 50.882C161.768 50.392 161.404 50.07 160.956 50.07C160.508 50.07 160.158 50.392 160.158 50.882C160.158 51.372 160.508 51.68 160.956 51.68C161.404 51.68 161.768 51.372 161.768 50.882ZM161.516 53.304H160.382V60.024H161.516V53.304Z" fill="#0B0C0C"/>
<path d="M168.971 60.542C168.971 59.352 168.159 58.764 166.745 58.764H165.373C164.869 58.764 164.659 58.568 164.659 58.288C164.659 57.924 164.995 57.728 165.219 57.63C165.401 57.658 165.583 57.672 165.779 57.672C167.277 57.672 168.411 56.832 168.411 55.404C168.411 54.942 168.271 54.536 168.033 54.186H169.055L169.195 53.304H166.871C166.563 53.192 166.227 53.136 165.863 53.136C164.449 53.136 163.315 53.892 163.315 55.404C163.315 56.398 163.763 57.056 164.449 57.392V57.42C164.267 57.504 163.651 57.84 163.651 58.54C163.651 58.918 163.777 59.254 164.071 59.492V59.52C163.665 59.73 162.895 60.15 162.895 61.172C162.895 62.376 163.819 62.992 165.415 62.992C167.753 62.992 168.971 61.816 168.971 60.542ZM167.305 55.404C167.305 56.37 166.619 56.734 165.849 56.734C165.107 56.734 164.421 56.37 164.421 55.404C164.421 54.438 165.107 54.074 165.877 54.074C166.619 54.074 167.305 54.438 167.305 55.404ZM163.987 60.948C163.987 60.318 164.351 59.968 164.687 59.758C164.855 59.8 165.051 59.814 165.261 59.814H166.745C167.501 59.814 167.837 60.066 167.837 60.71C167.837 61.396 167.137 62.026 165.499 62.026C164.491 62.026 163.987 61.704 163.987 60.948Z" fill="#0B0C0C"/>
<path d="M171.954 50.882C171.954 50.392 171.59 50.07 171.142 50.07C170.694 50.07 170.344 50.392 170.344 50.882C170.344 51.372 170.694 51.68 171.142 51.68C171.59 51.68 171.954 51.372 171.954 50.882ZM171.702 53.304H170.568V60.024H171.702V53.304Z" fill="#0B0C0C"/>
<path d="M177.071 53.304H175.195V51.428H174.187L174.061 53.304L173.137 53.472V54.27H174.061V57.896C174.061 59.436 174.607 60.192 175.881 60.192C176.595 60.192 176.973 59.982 177.113 59.898L176.973 58.96C176.833 59.03 176.553 59.142 176.147 59.142C175.461 59.142 175.195 58.764 175.195 57.742V54.27H176.931L177.071 53.304Z" fill="#0B0C0C"/>
<path d="M187.998 53.276C187.998 51.414 186.822 50.364 184.022 50.364H181.894V60.024H183.112V56.538H183.952C186.766 56.538 187.998 55.264 187.998 53.276ZM186.696 53.346C186.696 54.732 185.898 55.558 183.952 55.558H183.112V51.372H184.022C185.926 51.372 186.696 52.044 186.696 53.346Z" fill="#0B0C0C"/>
<path d="M190.397 59.1H189.179V60.024H192.833V59.1H191.615V51.246H192.791V50.364H189.221V51.246H190.397V59.1Z" fill="#0B0C0C"/>
<path d="M201.998 50.364H200.78V57.784H200.752L195.894 50.364H194.76V60.024H195.978V52.562H196.006L200.864 60.024H201.998V50.364Z" fill="#0B0C0C"/>
<path d="M227.148 34.0195H234.348V35.2795H227.148V34.0195ZM227.148 36.7195H234.348V37.9795H227.148V36.7195Z" fill="#0B0C0C"/>
<g clip-path="url(#clip1_497_36457)">
<path fill-rule="evenodd" clip-rule="evenodd" d="M271 60C284.255 60 295 49.2548 295 36C295 22.7452 284.255 12 271 12C257.745 12 247 22.7452 247 36C247 49.2548 257.745 60 271 60ZM271 57.3333C282.782 57.3333 292.333 47.7821 292.333 36C292.333 24.2179 282.782 14.6667 271 14.6667C259.218 14.6667 249.667 24.2179 249.667 36C249.667 47.7821 259.218 57.3333 271 57.3333Z" fill="white"/>
<circle cx="271" cy="35.9998" r="21.3333" fill="#006538"/>
<mask id="mask0_497_36457" style="mask-type:alpha" maskUnits="userSpaceOnUse" x="260" y="25" width="22" height="22">
<rect x="260.333" y="25.3335" width="21.3333" height="21.3333" fill="#D9D9D9"/>
</mask>
<g mask="url(#mask0_497_36457)">
<path d="M268.823 41.3329L263.756 36.2663L265.023 34.9996L268.823 38.7996L276.978 30.644L278.245 31.9107L268.823 41.3329Z" fill="white"/>
</g>
</g>
<defs>
<linearGradient id="paint0_linear_497_36457" x1="-0.0041531" y1="36.0062" x2="94.724" y2="36.0062" gradientUnits="userSpaceOnUse">
<stop stop-color="#E9EDDA"/>
<stop offset="1" stop-color="#F6DAB1"/>
</linearGradient>
<clipPath id="clip0_497_36457">
<rect width="95" height="60" fill="white" transform="translate(0 6)"/>
</clipPath>
<clipPath id="clip1_497_36457">
<rect width="48" height="48" fill="white" transform="translate(247 12)"/>
</clipPath>
</defs>
</svg>
