<svg width="295" height="72" viewBox="0 0 295 72" fill="none" xmlns="http://www.w3.org/2000/svg">
<g clip-path="url(#clip0_795_37556)">
<path d="M0 12C0 8.68629 2.42328 6 5.41256 6L89.3072 6C92.2963 6 94.7198 8.68629 94.7198 12V60C94.7198 63.3137 92.2963 66 89.3072 66H5.41256C2.42328 66 0 63.3137 0 60L0 12Z" fill="url(#paint0_linear_795_37556)"/>
<path fill-rule="evenodd" clip-rule="evenodd" d="M89.3072 6.75L5.41256 6.75C2.79695 6.75 0.67657 9.10051 0.67657 12L0.67657 60C0.67657 62.8995 2.79695 65.25 5.41256 65.25H89.3072C91.9229 65.25 94.0432 62.8995 94.0432 60V12C94.0432 9.10051 91.9229 6.75 89.3072 6.75ZM5.41256 6C2.42328 6 0 8.68629 0 12L0 60C0 63.3137 2.42328 66 5.41256 66H89.3072C92.2963 66 94.7198 63.3137 94.7198 60V12C94.7198 8.68629 92.2963 6 89.3072 6L5.41256 6Z" fill="#003350"/>
<g opacity="0.55">
<mask id="path-3-inside-1_795_37556" fill="white">
<path d="M85.9582 27.1023C85.0262 25.8378 84.2421 24.4979 83.3594 23.2072C83.1959 22.9678 83.0588 22.7264 82.947 22.4769C83.2957 21.5635 83.4965 20.5445 83.4965 19.4067C83.4087 17.7972 82.1569 16.3728 80.7066 15.2814C81.1936 15.1284 81.5989 14.9645 81.8442 14.8096C79.3621 14.8096 76.9101 13.7583 75.5584 13.7583C74.6877 13.7583 74.1309 14.1919 74.1309 14.7663C74.1875 15.4061 74.9739 16.0559 76.429 16.0559C76.7585 16.0559 77.1782 16.0207 77.6412 15.9553C78.4289 16.8728 79.0639 17.7037 79.0639 18.8887C79.0639 21.1088 75.8927 22.8411 72.6867 22.8431C72.5063 22.8431 72.3355 22.836 72.1575 22.826C71.8677 22.2757 70.9008 21.3502 70.9008 20.298C70.9008 18.5316 72.279 17.089 72.279 15.3397C72.279 14.2513 71.6452 13.5783 71.4023 13.2986C71.7968 12.9928 72.2261 12.6176 72.3283 12.3601C72.0986 12.4436 71.8256 12.4526 71.4312 12.4526C69.8931 12.4526 68.64 12.1187 67.4182 12.1187C66.7207 12.1187 66.5331 12.2997 66.5331 12.4697C66.5331 12.5331 66.5439 12.5975 66.5644 12.6277C66.3046 12.5432 66.0605 12.4868 65.7707 12.4436C65.4099 12.3852 65.0227 12.3571 64.6078 12.3571C63.1238 12.3571 62.5959 12.8781 62.5959 13.3238C62.5959 13.7 62.9519 14.3891 63.3547 14.9152C63.932 14.6717 64.6282 14.5068 64.9445 14.5068C65.7334 14.5068 66.4345 15.1335 66.8049 15.8779C66.2758 15.9312 66.1747 15.9513 65.6384 15.9513C64.1929 15.9513 63.2092 15.5188 63.006 15.5188C62.9867 15.5188 62.9483 15.5268 62.9483 15.554C62.9483 15.723 63.3583 16.1716 64.1653 16.4181C65.2295 16.743 66.8241 16.8788 67.0899 16.917C67.0899 16.9563 66.8205 17.3757 66.5175 17.4582C66.4549 17.4743 66.4044 17.4763 66.3287 17.4633C65.2163 17.2802 64.9072 17.2027 63.4966 16.7541C63.4545 16.74 63.4269 16.7631 63.4269 16.8003C63.4269 17.2671 64.8712 18.2972 66.1651 18.6935C65.084 19.8474 63.7359 21.0283 63.0974 22.828C62.917 22.838 62.7426 22.8451 62.5622 22.8451C59.3538 22.8451 56.1778 21.1128 56.1778 18.8897C56.1778 17.7057 56.8128 16.8748 57.6004 15.9563C58.0634 16.0217 58.4831 16.0569 58.8126 16.0569C60.2677 16.0569 61.0554 15.4071 61.1107 14.7673C61.1107 14.1929 60.5539 13.7594 59.6833 13.7594C58.3316 13.7594 55.8784 14.8106 53.3975 14.8106C53.644 14.9655 54.0493 15.1284 54.5351 15.2824C53.0848 16.3738 51.8329 17.7982 51.7451 19.4078C51.7451 20.5485 51.9472 21.5695 52.2971 22.4849C52.1865 22.7314 52.0494 22.9708 51.8882 23.2072C51.0068 24.4989 50.2227 25.8388 49.2895 27.1023C48.0292 28.8104 47.3425 30.8303 45.4004 32.1722V32.2839C46.5801 33.0102 47.6612 32.8663 48.5319 31.8574C48.7123 31.6481 48.8686 31.4218 49.0201 31.1955C50.3466 29.2077 51.6658 27.2169 52.9982 25.2322C53.1028 25.0773 53.1485 24.7443 53.4468 24.867C53.6392 24.9455 53.6897 25.2553 53.6211 25.4807C53.5791 25.6215 53.4744 25.7503 53.3878 25.879C51.7692 28.2601 50.1469 30.6402 48.5331 33.0233C48.2637 33.4216 47.9089 33.7395 47.4436 33.9779C47.2463 34.0785 46.9385 34.1348 47.0178 34.4044C47.09 34.6499 47.3558 34.7143 47.6263 34.7706C48.6389 34.9808 49.358 34.7002 49.9726 33.8039C51.4349 31.6672 52.884 29.5246 54.3391 27.3849C54.4233 27.2602 54.4786 27.0449 54.677 27.0992C54.8682 27.1515 54.9091 27.3648 54.8718 27.5358C54.8454 27.6585 54.7816 27.7813 54.7083 27.8919C53.2928 30.0497 51.8798 32.2074 50.4512 34.3592C50.0303 34.9939 49.5276 35.5804 48.8866 36.0813C48.7303 36.2031 48.3467 36.2071 48.4778 36.5049C48.5824 36.7433 48.8782 36.7885 49.1308 36.8368C49.3665 36.8821 49.6118 36.861 49.8547 36.8056C50.7831 36.5964 51.3555 36.0512 51.8029 35.3852C53.2219 33.2717 54.6385 31.1562 56.0612 29.0437C56.1646 28.8898 56.2091 28.6957 56.4303 28.6041C56.7959 28.8456 56.6961 29.087 56.5025 29.3777C54.9704 31.6713 53.46 33.9759 51.9303 36.2705C51.4866 36.9364 50.9743 37.5631 50.2852 38.0792C50.1301 38.1958 49.7164 38.1818 49.8643 38.4745C49.987 38.7179 50.2564 38.8527 50.6003 38.8889C51.4782 38.9815 52.1456 38.6998 52.629 37.9926C54.3788 35.4385 56.1261 32.8844 57.8746 30.3303C57.9624 30.2016 58.0478 30.0718 58.1488 29.9511C58.2113 29.8767 58.3063 29.7992 58.4254 29.8485C58.5493 29.8998 58.6479 29.9994 58.595 30.1201C58.5264 30.275 58.4266 30.4219 58.3316 30.5677C56.6444 33.1691 54.9548 35.7705 53.2664 38.3719C52.7505 39.1676 52.2045 39.9412 51.0729 40.2842C51.5371 40.757 52.0819 40.8365 52.6747 40.7258C53.4275 40.586 53.9675 40.2158 54.3511 39.6434C56.2524 36.8006 58.1717 33.9668 60.0922 31.1331C60.2124 30.956 60.3231 30.6583 60.6586 30.788C61.0362 30.9339 60.774 31.1643 60.6562 31.3474C58.7862 34.2455 56.9126 37.1416 55.0414 40.0398C54.4569 40.9441 53.8184 41.8062 52.7132 42.3434C52.433 42.4802 52.4823 42.6099 52.7397 42.7427C53.3902 43.0767 54.036 43.0747 54.683 42.7478C55.2891 42.442 55.7256 41.9973 56.0648 41.4893L64.1172 30.1976C64.2651 30.6231 64.3649 31.0275 64.3649 31.4298C64.3649 34.3149 63.4185 36.867 60.7391 38.8467C60.5479 38.9734 60.3543 39.0982 60.1559 39.2179C60.4734 39.569 60.8871 39.4986 61.2803 39.5066C61.4968 39.5106 61.7758 39.402 61.9068 39.6193C62.0151 39.7983 61.8142 39.9472 61.7156 40.0971C60.8822 41.3596 59.9298 42.5657 59.1794 43.8674C58.8932 44.3633 58.3665 44.4589 57.7856 44.3683C57.1122 44.2637 56.4388 44.2828 55.7629 44.2929C54.8454 44.306 54.4281 44.8482 54.7912 45.5695C54.9644 45.9125 55.1797 46.2394 55.3865 46.5925C55.7064 46.1599 55.71 46.171 56.3726 46.0191C56.5686 45.9748 56.7358 45.8451 56.9186 45.7586C57.1206 45.663 57.2938 45.5041 57.6197 45.5111C57.2709 46.0533 56.737 46.3833 56.3017 46.7846C56.1177 46.9536 55.8844 47.1287 56.0407 47.3812C56.381 47.9284 56.7141 48.4847 57.2866 49.0168C57.1495 48.2694 57.1483 48.2664 57.8145 47.9807C57.9792 47.9103 57.9504 47.7815 57.9985 47.6699C58.2065 47.188 58.2053 46.6478 58.6034 46.2052C58.6707 46.7826 58.6695 47.353 58.6707 47.9244C58.6707 48.0964 58.6346 48.2634 58.88 48.3771C59.4584 48.6446 60.0212 48.9364 60.6057 49.2251C60.679 48.9776 60.4529 48.8478 60.3772 48.6738C60.3206 48.543 60.1787 48.4092 60.3182 48.2815C60.7235 47.9123 60.501 47.5753 60.2966 47.2162C60.0717 46.8208 59.8492 46.4185 59.6893 46.002C59.4428 45.3582 59.7867 44.989 60.5864 44.989C60.946 44.989 61.3056 44.992 61.6639 45.0051C62.6392 45.0403 62.638 45.0433 62.6873 45.8169C62.6897 45.8612 62.727 45.9054 62.7823 46.0231C63.2573 45.6097 63.3848 45.0554 63.855 44.7053C64.2122 44.4398 64.1737 44.1179 63.8502 43.8744C63.5038 43.6129 63.3271 43.0264 62.6031 43.3594C62.0259 43.625 61.427 43.8583 60.8221 44.1118C60.7933 44.0153 60.7644 43.976 60.7776 43.9499C61.3224 42.8333 62.2736 41.9601 63.2285 41.089C63.4185 40.9159 63.5519 40.9793 63.6217 41.1875C63.7287 41.5115 63.8839 41.8193 64.1268 42.0889C64.1737 42.1402 64.2627 42.1955 64.3312 42.1955C64.4731 42.1955 64.4623 42.0798 64.4719 41.9973C64.4851 41.8927 64.4827 41.7861 64.4863 41.6794C64.5116 40.8344 64.8495 40.0589 65.2608 39.3034C65.3426 39.1535 65.4592 38.9403 65.7106 38.9936C65.9547 39.0459 65.838 39.2632 65.8452 39.406C65.8609 39.7239 65.844 40.0428 65.8452 40.3606C65.8585 42.288 65.8236 44.2134 65.3305 46.1076C64.8676 47.8872 63.9777 48.6436 62.0932 48.8881C62.4865 49.9986 63.5688 50.4081 64.8507 49.9363C65.3161 49.7653 65.7623 49.3166 66.1447 49.3498C66.5716 49.387 66.948 49.8618 67.3388 50.1546C67.5613 50.3215 67.7609 50.3547 67.9846 50.1586C68.3141 49.8699 68.628 49.391 68.9936 49.3589C69.376 49.3257 69.7945 49.7562 70.2262 49.9333C71.3049 50.3759 72.7167 49.9423 73.1833 49.0359C72.8718 48.9846 72.558 48.9545 72.2597 48.88C70.884 48.54 70.2635 47.6306 69.9304 46.5754C69.1896 44.2255 69.3183 41.8122 69.281 39.413C69.2798 39.2964 69.3243 39.1666 69.4277 39.1384C69.6165 39.0861 69.7331 39.233 69.8245 39.3456C70.3633 40.0066 70.5485 40.76 70.6242 41.5406C70.6471 41.776 70.5064 42.1693 70.7553 42.2046C71.1065 42.2548 71.187 41.8464 71.3638 41.6221C71.3867 41.5929 71.4095 41.5607 71.4155 41.5276C71.5166 41.0537 71.7571 41.0749 72.0866 41.3907C72.8779 42.1492 73.6752 42.9047 74.3161 43.7608C74.452 43.9428 74.6625 44.1239 74.5458 44.4166C73.9421 44.144 73.3288 43.9116 72.7744 43.6048C72.2778 43.3292 71.9338 43.4016 71.5863 43.7618C71.246 44.1148 71.0043 44.4549 71.4203 44.8904C71.7066 45.1902 71.9387 45.5242 72.1864 46.0443C72.0986 45.3783 72.5111 45.2747 72.9705 45.2435C73.5393 45.2053 74.1093 45.1741 74.6793 45.1721C75.3696 45.1701 75.6089 45.4377 75.39 45.9819C75.1483 46.5804 74.8609 47.1649 74.5903 47.7554C74.523 47.9022 74.3642 48.0964 74.5146 48.199C74.9848 48.5209 74.7948 48.8337 74.5831 49.1707C74.5242 49.2633 74.4809 49.378 74.6023 49.4625C74.7238 49.547 74.8405 49.4866 74.9451 49.4252C75.2217 49.2633 75.4862 49.0852 75.7736 48.9394C76.4675 48.5893 76.6587 48.0753 76.4795 47.4496C76.3569 47.019 76.4411 46.5955 76.488 46.1489C76.8355 47.187 77.4921 48.0893 78.1391 48.9444C79.3886 47.0251 79.688 47.6498 78.0982 46.3128C78.085 46.3008 78.0597 46.2988 78.0405 46.2917L77.5258 45.8561C77.444 45.7254 77.3634 45.5936 77.2396 45.3934C77.7519 45.6107 78.1559 45.8511 78.6033 45.9537C79.1577 46.0805 79.6231 46.2062 79.6375 46.7766C79.6375 46.7877 79.7048 46.7977 79.7626 46.8158C80.0933 46.4315 80.3398 46.003 80.5274 45.5614C80.7992 44.9176 80.1245 44.2728 79.3188 44.3543C78.7536 44.4116 78.1716 44.4015 77.622 44.5102C76.8259 44.6671 76.3857 44.3442 76.0238 43.8362C75.1724 42.6411 74.3173 41.4481 73.4719 40.251C73.3384 40.0619 73.0727 39.8647 73.2434 39.6323C73.4334 39.3738 73.7305 39.5499 73.9878 39.5971C74.1105 39.6193 74.2392 39.6323 74.3654 39.6313C74.5711 39.6293 74.8549 39.6836 74.9306 39.4935C74.9956 39.3306 74.7178 39.2662 74.5795 39.1706C74.0684 38.8205 73.5826 38.4534 73.1232 38.0681C71.2532 36.2151 70.8888 33.9497 70.8888 31.4298C70.8888 31.0295 70.9862 30.6281 71.1329 30.2046L79.1793 41.4893C79.5172 41.9963 79.955 42.441 80.5611 42.7478C81.208 43.0747 81.8538 43.0767 82.5044 42.7427C82.7618 42.611 82.8111 42.4802 82.5309 42.3434C81.4269 41.8062 80.7871 40.9431 80.2027 40.0398C78.3315 37.1426 76.4579 34.2455 74.5879 31.3474C74.4701 31.1643 74.2079 30.9349 74.5855 30.788C74.921 30.6583 75.0329 30.956 75.1519 31.1331C77.0724 33.9668 78.9917 36.8006 80.893 39.6434C81.2766 40.2158 81.8153 40.587 82.5693 40.7258C83.1622 40.8355 83.707 40.756 84.1724 40.2842C83.0408 39.9412 82.4948 39.1676 81.9789 38.3719C80.2905 35.7705 78.6009 33.1691 76.9137 30.5677C76.8187 30.4219 76.7189 30.275 76.6503 30.1201C76.5974 29.9984 76.696 29.8988 76.8199 29.8485C76.9389 29.7992 77.0339 29.8767 77.0965 29.9511C77.1975 30.0718 77.2829 30.2026 77.3706 30.3303C79.1192 32.8844 80.8665 35.4396 82.6163 37.9926C83.1009 38.6988 83.7671 38.9805 84.6462 38.8889C84.9901 38.8527 85.2595 38.7179 85.3822 38.4745C85.5301 38.1818 85.1164 38.1958 84.9613 38.0792C84.2722 37.5631 83.7599 36.9364 83.3161 36.2705C81.7853 33.9759 80.2748 31.6723 78.744 29.3777C78.5492 29.087 78.4506 28.8446 78.8161 28.6041C79.0386 28.6947 79.0819 28.8898 79.1853 29.0437C80.608 31.1562 82.0234 33.2717 83.4436 35.3852C83.891 36.0512 84.4622 36.5964 85.3918 36.8056C85.6359 36.8599 85.8812 36.8811 86.1157 36.8368C86.3683 36.7885 86.6641 36.7443 86.7687 36.5049C86.8998 36.2061 86.5162 36.2031 86.3598 36.0813C85.7189 35.5804 85.2162 34.9939 84.7953 34.3592C83.3679 32.2074 81.9536 30.0487 80.5382 27.8919C80.4661 27.7813 80.4023 27.6585 80.3747 27.5358C80.3374 27.3638 80.3783 27.1515 80.5695 27.0992C80.7679 27.0449 80.8232 27.2602 80.9074 27.3849C82.3613 29.5246 83.8116 31.6672 85.2739 33.8039C85.8872 34.7002 86.6076 34.9798 87.6201 34.7706C87.8919 34.7143 88.1577 34.6499 88.2286 34.4044C88.308 34.1338 88.0001 34.0785 87.8029 33.9779C87.3375 33.7395 86.9828 33.4206 86.7134 33.0233C85.0983 30.6402 83.4761 28.2611 81.8586 25.879C81.7708 25.7503 81.6674 25.6205 81.6253 25.4807C81.5568 25.2553 81.6073 24.9455 81.7997 24.867C82.0979 24.7443 82.1436 25.0773 82.2483 25.2322C83.5807 27.2169 84.8999 29.2077 86.2264 31.1955C86.3767 31.4218 86.533 31.6471 86.7146 31.8574C87.5853 32.8653 88.6664 33.0092 89.8461 32.2839V32.1722C87.9039 30.8313 87.2161 28.8114 85.957 27.1023H85.9582ZM56.3846 15.7481C56.5265 15.7763 56.6697 15.8044 56.8116 15.8296C56.1826 16.4724 55.0702 17.5498 55.0702 18.9742C55.0702 21.8049 58.6864 24.2625 62.7787 24.2625C62.7522 24.5049 62.739 24.7604 62.739 25.022C62.739 25.4394 62.7679 25.8287 62.816 26.1949C58.1861 26.1707 54.1106 23.0282 54.1106 19.6431C54.1106 17.7107 55.7918 16.1787 56.3846 15.7481ZM67.5324 16.2139C67.3893 15.7119 67.0791 15.1958 66.6882 14.8065C66.3311 14.4545 65.7418 14.035 64.9457 14.035C64.5837 14.035 63.974 14.1768 63.5868 14.3146C63.4413 14.0933 63.1599 13.5632 63.1599 13.3238C63.1599 13.0844 63.6578 12.8278 64.609 12.8278C66.7027 12.8278 67.9521 13.6185 67.9521 14.9464C67.9521 15.4131 67.7309 15.8366 67.5324 16.2139ZM68.4729 14.4867C68.3971 14.1124 68.2263 13.7724 67.9666 13.4807C67.981 13.1387 68.1494 12.8097 68.8096 13.0803C68.4524 13.3861 68.7278 13.9273 68.7278 13.9273C68.7278 13.9273 69.4578 13.6437 69.3062 13.2403C70.3897 13.4566 69.6105 14.6738 68.4729 14.4867ZM73.1232 24.2615C77.2167 24.2615 80.8316 21.8049 80.8316 18.9732C80.8316 17.5488 79.7193 16.4714 79.0903 15.8286C79.2322 15.8034 79.3753 15.7763 79.5172 15.7471C80.1101 16.1787 81.7913 17.7097 81.7913 19.6421C81.7913 23.0272 77.7158 26.1697 73.0859 26.1939C73.134 25.8277 73.1629 25.4384 73.1629 25.0209C73.1629 24.7584 73.1496 24.5039 73.1232 24.2615Z"/>
</mask>
<path d="M85.9582 27.1023C85.0262 25.8378 84.2421 24.4979 83.3594 23.2072C83.1959 22.9678 83.0588 22.7264 82.947 22.4769C83.2957 21.5635 83.4965 20.5445 83.4965 19.4067C83.4087 17.7972 82.1569 16.3728 80.7066 15.2814C81.1936 15.1284 81.5989 14.9645 81.8442 14.8096C79.3621 14.8096 76.9101 13.7583 75.5584 13.7583C74.6877 13.7583 74.1309 14.1919 74.1309 14.7663C74.1875 15.4061 74.9739 16.0559 76.429 16.0559C76.7585 16.0559 77.1782 16.0207 77.6412 15.9553C78.4289 16.8728 79.0639 17.7037 79.0639 18.8887C79.0639 21.1088 75.8927 22.8411 72.6867 22.8431C72.5063 22.8431 72.3355 22.836 72.1575 22.826C71.8677 22.2757 70.9008 21.3502 70.9008 20.298C70.9008 18.5316 72.279 17.089 72.279 15.3397C72.279 14.2513 71.6452 13.5783 71.4023 13.2986C71.7968 12.9928 72.2261 12.6176 72.3283 12.3601C72.0986 12.4436 71.8256 12.4526 71.4312 12.4526C69.8931 12.4526 68.64 12.1187 67.4182 12.1187C66.7207 12.1187 66.5331 12.2997 66.5331 12.4697C66.5331 12.5331 66.5439 12.5975 66.5644 12.6277C66.3046 12.5432 66.0605 12.4868 65.7707 12.4436C65.4099 12.3852 65.0227 12.3571 64.6078 12.3571C63.1238 12.3571 62.5959 12.8781 62.5959 13.3238C62.5959 13.7 62.9519 14.3891 63.3547 14.9152C63.932 14.6717 64.6282 14.5068 64.9445 14.5068C65.7334 14.5068 66.4345 15.1335 66.8049 15.8779C66.2758 15.9312 66.1747 15.9513 65.6384 15.9513C64.1929 15.9513 63.2092 15.5188 63.006 15.5188C62.9867 15.5188 62.9483 15.5268 62.9483 15.554C62.9483 15.723 63.3583 16.1716 64.1653 16.4181C65.2295 16.743 66.8241 16.8788 67.0899 16.917C67.0899 16.9563 66.8205 17.3757 66.5175 17.4582C66.4549 17.4743 66.4044 17.4763 66.3287 17.4633C65.2163 17.2802 64.9072 17.2027 63.4966 16.7541C63.4545 16.74 63.4269 16.7631 63.4269 16.8003C63.4269 17.2671 64.8712 18.2972 66.1651 18.6935C65.084 19.8474 63.7359 21.0283 63.0974 22.828C62.917 22.838 62.7426 22.8451 62.5622 22.8451C59.3538 22.8451 56.1778 21.1128 56.1778 18.8897C56.1778 17.7057 56.8128 16.8748 57.6004 15.9563C58.0634 16.0217 58.4831 16.0569 58.8126 16.0569C60.2677 16.0569 61.0554 15.4071 61.1107 14.7673C61.1107 14.1929 60.5539 13.7594 59.6833 13.7594C58.3316 13.7594 55.8784 14.8106 53.3975 14.8106C53.644 14.9655 54.0493 15.1284 54.5351 15.2824C53.0848 16.3738 51.8329 17.7982 51.7451 19.4078C51.7451 20.5485 51.9472 21.5695 52.2971 22.4849C52.1865 22.7314 52.0494 22.9708 51.8882 23.2072C51.0068 24.4989 50.2227 25.8388 49.2895 27.1023C48.0292 28.8104 47.3425 30.8303 45.4004 32.1722V32.2839C46.5801 33.0102 47.6612 32.8663 48.5319 31.8574C48.7123 31.6481 48.8686 31.4218 49.0201 31.1955C50.3466 29.2077 51.6658 27.2169 52.9982 25.2322C53.1028 25.0773 53.1485 24.7443 53.4468 24.867C53.6392 24.9455 53.6897 25.2553 53.6211 25.4807C53.5791 25.6215 53.4744 25.7503 53.3878 25.879C51.7692 28.2601 50.1469 30.6402 48.5331 33.0233C48.2637 33.4216 47.9089 33.7395 47.4436 33.9779C47.2463 34.0785 46.9385 34.1348 47.0178 34.4044C47.09 34.6499 47.3558 34.7143 47.6263 34.7706C48.6389 34.9808 49.358 34.7002 49.9726 33.8039C51.4349 31.6672 52.884 29.5246 54.3391 27.3849C54.4233 27.2602 54.4786 27.0449 54.677 27.0992C54.8682 27.1515 54.9091 27.3648 54.8718 27.5358C54.8454 27.6585 54.7816 27.7813 54.7083 27.8919C53.2928 30.0497 51.8798 32.2074 50.4512 34.3592C50.0303 34.9939 49.5276 35.5804 48.8866 36.0813C48.7303 36.2031 48.3467 36.2071 48.4778 36.5049C48.5824 36.7433 48.8782 36.7885 49.1308 36.8368C49.3665 36.8821 49.6118 36.861 49.8547 36.8056C50.7831 36.5964 51.3555 36.0512 51.8029 35.3852C53.2219 33.2717 54.6385 31.1562 56.0612 29.0437C56.1646 28.8898 56.2091 28.6957 56.4303 28.6041C56.7959 28.8456 56.6961 29.087 56.5025 29.3777C54.9704 31.6713 53.46 33.9759 51.9303 36.2705C51.4866 36.9364 50.9743 37.5631 50.2852 38.0792C50.1301 38.1958 49.7164 38.1818 49.8643 38.4745C49.987 38.7179 50.2564 38.8527 50.6003 38.8889C51.4782 38.9815 52.1456 38.6998 52.629 37.9926C54.3788 35.4385 56.1261 32.8844 57.8746 30.3303C57.9624 30.2016 58.0478 30.0718 58.1488 29.9511C58.2113 29.8767 58.3063 29.7992 58.4254 29.8485C58.5493 29.8998 58.6479 29.9994 58.595 30.1201C58.5264 30.275 58.4266 30.4219 58.3316 30.5677C56.6444 33.1691 54.9548 35.7705 53.2664 38.3719C52.7505 39.1676 52.2045 39.9412 51.0729 40.2842C51.5371 40.757 52.0819 40.8365 52.6747 40.7258C53.4275 40.586 53.9675 40.2158 54.3511 39.6434C56.2524 36.8006 58.1717 33.9668 60.0922 31.1331C60.2124 30.956 60.3231 30.6583 60.6586 30.788C61.0362 30.9339 60.774 31.1643 60.6562 31.3474C58.7862 34.2455 56.9126 37.1416 55.0414 40.0398C54.4569 40.9441 53.8184 41.8062 52.7132 42.3434C52.433 42.4802 52.4823 42.6099 52.7397 42.7427C53.3902 43.0767 54.036 43.0747 54.683 42.7478C55.2891 42.442 55.7256 41.9973 56.0648 41.4893L64.1172 30.1976C64.2651 30.6231 64.3649 31.0275 64.3649 31.4298C64.3649 34.3149 63.4185 36.867 60.7391 38.8467C60.5479 38.9734 60.3543 39.0982 60.1559 39.2179C60.4734 39.569 60.8871 39.4986 61.2803 39.5066C61.4968 39.5106 61.7758 39.402 61.9068 39.6193C62.0151 39.7983 61.8142 39.9472 61.7156 40.0971C60.8822 41.3596 59.9298 42.5657 59.1794 43.8674C58.8932 44.3633 58.3665 44.4589 57.7856 44.3683C57.1122 44.2637 56.4388 44.2828 55.7629 44.2929C54.8454 44.306 54.4281 44.8482 54.7912 45.5695C54.9644 45.9125 55.1797 46.2394 55.3865 46.5925C55.7064 46.1599 55.71 46.171 56.3726 46.0191C56.5686 45.9748 56.7358 45.8451 56.9186 45.7586C57.1206 45.663 57.2938 45.5041 57.6197 45.5111C57.2709 46.0533 56.737 46.3833 56.3017 46.7846C56.1177 46.9536 55.8844 47.1287 56.0407 47.3812C56.381 47.9284 56.7141 48.4847 57.2866 49.0168C57.1495 48.2694 57.1483 48.2664 57.8145 47.9807C57.9792 47.9103 57.9504 47.7815 57.9985 47.6699C58.2065 47.188 58.2053 46.6478 58.6034 46.2052C58.6707 46.7826 58.6695 47.353 58.6707 47.9244C58.6707 48.0964 58.6346 48.2634 58.88 48.3771C59.4584 48.6446 60.0212 48.9364 60.6057 49.2251C60.679 48.9776 60.4529 48.8478 60.3772 48.6738C60.3206 48.543 60.1787 48.4092 60.3182 48.2815C60.7235 47.9123 60.501 47.5753 60.2966 47.2162C60.0717 46.8208 59.8492 46.4185 59.6893 46.002C59.4428 45.3582 59.7867 44.989 60.5864 44.989C60.946 44.989 61.3056 44.992 61.6639 45.0051C62.6392 45.0403 62.638 45.0433 62.6873 45.8169C62.6897 45.8612 62.727 45.9054 62.7823 46.0231C63.2573 45.6097 63.3848 45.0554 63.855 44.7053C64.2122 44.4398 64.1737 44.1179 63.8502 43.8744C63.5038 43.6129 63.3271 43.0264 62.6031 43.3594C62.0259 43.625 61.427 43.8583 60.8221 44.1118C60.7933 44.0153 60.7644 43.976 60.7776 43.9499C61.3224 42.8333 62.2736 41.9601 63.2285 41.089C63.4185 40.9159 63.5519 40.9793 63.6217 41.1875C63.7287 41.5115 63.8839 41.8193 64.1268 42.0889C64.1737 42.1402 64.2627 42.1955 64.3312 42.1955C64.4731 42.1955 64.4623 42.0798 64.4719 41.9973C64.4851 41.8927 64.4827 41.7861 64.4863 41.6794C64.5116 40.8344 64.8495 40.0589 65.2608 39.3034C65.3426 39.1535 65.4592 38.9403 65.7106 38.9936C65.9547 39.0459 65.838 39.2632 65.8452 39.406C65.8609 39.7239 65.844 40.0428 65.8452 40.3606C65.8585 42.288 65.8236 44.2134 65.3305 46.1076C64.8676 47.8872 63.9777 48.6436 62.0932 48.8881C62.4865 49.9986 63.5688 50.4081 64.8507 49.9363C65.3161 49.7653 65.7623 49.3166 66.1447 49.3498C66.5716 49.387 66.948 49.8618 67.3388 50.1546C67.5613 50.3215 67.7609 50.3547 67.9846 50.1586C68.3141 49.8699 68.628 49.391 68.9936 49.3589C69.376 49.3257 69.7945 49.7562 70.2262 49.9333C71.3049 50.3759 72.7167 49.9423 73.1833 49.0359C72.8718 48.9846 72.558 48.9545 72.2597 48.88C70.884 48.54 70.2635 47.6306 69.9304 46.5754C69.1896 44.2255 69.3183 41.8122 69.281 39.413C69.2798 39.2964 69.3243 39.1666 69.4277 39.1384C69.6165 39.0861 69.7331 39.233 69.8245 39.3456C70.3633 40.0066 70.5485 40.76 70.6242 41.5406C70.6471 41.776 70.5064 42.1693 70.7553 42.2046C71.1065 42.2548 71.187 41.8464 71.3638 41.6221C71.3867 41.5929 71.4095 41.5607 71.4155 41.5276C71.5166 41.0537 71.7571 41.0749 72.0866 41.3907C72.8779 42.1492 73.6752 42.9047 74.3161 43.7608C74.452 43.9428 74.6625 44.1239 74.5458 44.4166C73.9421 44.144 73.3288 43.9116 72.7744 43.6048C72.2778 43.3292 71.9338 43.4016 71.5863 43.7618C71.246 44.1148 71.0043 44.4549 71.4203 44.8904C71.7066 45.1902 71.9387 45.5242 72.1864 46.0443C72.0986 45.3783 72.5111 45.2747 72.9705 45.2435C73.5393 45.2053 74.1093 45.1741 74.6793 45.1721C75.3696 45.1701 75.6089 45.4377 75.39 45.9819C75.1483 46.5804 74.8609 47.1649 74.5903 47.7554C74.523 47.9022 74.3642 48.0964 74.5146 48.199C74.9848 48.5209 74.7948 48.8337 74.5831 49.1707C74.5242 49.2633 74.4809 49.378 74.6023 49.4625C74.7238 49.547 74.8405 49.4866 74.9451 49.4252C75.2217 49.2633 75.4862 49.0852 75.7736 48.9394C76.4675 48.5893 76.6587 48.0753 76.4795 47.4496C76.3569 47.019 76.4411 46.5955 76.488 46.1489C76.8355 47.187 77.4921 48.0893 78.1391 48.9444C79.3886 47.0251 79.688 47.6498 78.0982 46.3128C78.085 46.3008 78.0597 46.2988 78.0405 46.2917L77.5258 45.8561C77.444 45.7254 77.3634 45.5936 77.2396 45.3934C77.7519 45.6107 78.1559 45.8511 78.6033 45.9537C79.1577 46.0805 79.6231 46.2062 79.6375 46.7766C79.6375 46.7877 79.7048 46.7977 79.7626 46.8158C80.0933 46.4315 80.3398 46.003 80.5274 45.5614C80.7992 44.9176 80.1245 44.2728 79.3188 44.3543C78.7536 44.4116 78.1716 44.4015 77.622 44.5102C76.8259 44.6671 76.3857 44.3442 76.0238 43.8362C75.1724 42.6411 74.3173 41.4481 73.4719 40.251C73.3384 40.0619 73.0727 39.8647 73.2434 39.6323C73.4334 39.3738 73.7305 39.5499 73.9878 39.5971C74.1105 39.6193 74.2392 39.6323 74.3654 39.6313C74.5711 39.6293 74.8549 39.6836 74.9306 39.4935C74.9956 39.3306 74.7178 39.2662 74.5795 39.1706C74.0684 38.8205 73.5826 38.4534 73.1232 38.0681C71.2532 36.2151 70.8888 33.9497 70.8888 31.4298C70.8888 31.0295 70.9862 30.6281 71.1329 30.2046L79.1793 41.4893C79.5172 41.9963 79.955 42.441 80.5611 42.7478C81.208 43.0747 81.8538 43.0767 82.5044 42.7427C82.7618 42.611 82.8111 42.4802 82.5309 42.3434C81.4269 41.8062 80.7871 40.9431 80.2027 40.0398C78.3315 37.1426 76.4579 34.2455 74.5879 31.3474C74.4701 31.1643 74.2079 30.9349 74.5855 30.788C74.921 30.6583 75.0329 30.956 75.1519 31.1331C77.0724 33.9668 78.9917 36.8006 80.893 39.6434C81.2766 40.2158 81.8153 40.587 82.5693 40.7258C83.1622 40.8355 83.707 40.756 84.1724 40.2842C83.0408 39.9412 82.4948 39.1676 81.9789 38.3719C80.2905 35.7705 78.6009 33.1691 76.9137 30.5677C76.8187 30.4219 76.7189 30.275 76.6503 30.1201C76.5974 29.9984 76.696 29.8988 76.8199 29.8485C76.9389 29.7992 77.0339 29.8767 77.0965 29.9511C77.1975 30.0718 77.2829 30.2026 77.3706 30.3303C79.1192 32.8844 80.8665 35.4396 82.6163 37.9926C83.1009 38.6988 83.7671 38.9805 84.6462 38.8889C84.9901 38.8527 85.2595 38.7179 85.3822 38.4745C85.5301 38.1818 85.1164 38.1958 84.9613 38.0792C84.2722 37.5631 83.7599 36.9364 83.3161 36.2705C81.7853 33.9759 80.2748 31.6723 78.744 29.3777C78.5492 29.087 78.4506 28.8446 78.8161 28.6041C79.0386 28.6947 79.0819 28.8898 79.1853 29.0437C80.608 31.1562 82.0234 33.2717 83.4436 35.3852C83.891 36.0512 84.4622 36.5964 85.3918 36.8056C85.6359 36.8599 85.8812 36.8811 86.1157 36.8368C86.3683 36.7885 86.6641 36.7443 86.7687 36.5049C86.8998 36.2061 86.5162 36.2031 86.3598 36.0813C85.7189 35.5804 85.2162 34.9939 84.7953 34.3592C83.3679 32.2074 81.9536 30.0487 80.5382 27.8919C80.4661 27.7813 80.4023 27.6585 80.3747 27.5358C80.3374 27.3638 80.3783 27.1515 80.5695 27.0992C80.7679 27.0449 80.8232 27.2602 80.9074 27.3849C82.3613 29.5246 83.8116 31.6672 85.2739 33.8039C85.8872 34.7002 86.6076 34.9798 87.6201 34.7706C87.8919 34.7143 88.1577 34.6499 88.2286 34.4044C88.308 34.1338 88.0001 34.0785 87.8029 33.9779C87.3375 33.7395 86.9828 33.4206 86.7134 33.0233C85.0983 30.6402 83.4761 28.2611 81.8586 25.879C81.7708 25.7503 81.6674 25.6205 81.6253 25.4807C81.5568 25.2553 81.6073 24.9455 81.7997 24.867C82.0979 24.7443 82.1436 25.0773 82.2483 25.2322C83.5807 27.2169 84.8999 29.2077 86.2264 31.1955C86.3767 31.4218 86.533 31.6471 86.7146 31.8574C87.5853 32.8653 88.6664 33.0092 89.8461 32.2839V32.1722C87.9039 30.8313 87.2161 28.8114 85.957 27.1023H85.9582ZM56.3846 15.7481C56.5265 15.7763 56.6697 15.8044 56.8116 15.8296C56.1826 16.4724 55.0702 17.5498 55.0702 18.9742C55.0702 21.8049 58.6864 24.2625 62.7787 24.2625C62.7522 24.5049 62.739 24.7604 62.739 25.022C62.739 25.4394 62.7679 25.8287 62.816 26.1949C58.1861 26.1707 54.1106 23.0282 54.1106 19.6431C54.1106 17.7107 55.7918 16.1787 56.3846 15.7481ZM67.5324 16.2139C67.3893 15.7119 67.0791 15.1958 66.6882 14.8065C66.3311 14.4545 65.7418 14.035 64.9457 14.035C64.5837 14.035 63.974 14.1768 63.5868 14.3146C63.4413 14.0933 63.1599 13.5632 63.1599 13.3238C63.1599 13.0844 63.6578 12.8278 64.609 12.8278C66.7027 12.8278 67.9521 13.6185 67.9521 14.9464C67.9521 15.4131 67.7309 15.8366 67.5324 16.2139ZM68.4729 14.4867C68.3971 14.1124 68.2263 13.7724 67.9666 13.4807C67.981 13.1387 68.1494 12.8097 68.8096 13.0803C68.4524 13.3861 68.7278 13.9273 68.7278 13.9273C68.7278 13.9273 69.4578 13.6437 69.3062 13.2403C70.3897 13.4566 69.6105 14.6738 68.4729 14.4867ZM73.1232 24.2615C77.2167 24.2615 80.8316 21.8049 80.8316 18.9732C80.8316 17.5488 79.7193 16.4714 79.0903 15.8286C79.2322 15.8034 79.3753 15.7763 79.5172 15.7471C80.1101 16.1787 81.7913 17.7097 81.7913 19.6421C81.7913 23.0272 77.7158 26.1697 73.0859 26.1939C73.134 25.8277 73.1629 25.4384 73.1629 25.0209C73.1629 24.7584 73.1496 24.5039 73.1232 24.2615Z" stroke="black" stroke-opacity="0.1" stroke-width="2" mask="url(#path-3-inside-1_795_37556)"/>
</g>
<rect width="30.2727" height="36" rx="4" transform="matrix(-1 0 0 1 38.2734 22)" fill="black" fill-opacity="0.1"/>
</g>
<path d="M107.199 35.2929H110.556V31.5039H111.951V35.2929H115.299V36.6879H111.951V40.4949H110.556V36.6879H107.199V35.2929Z" fill="#0B0C0C"/>
<rect x="127.5" y="9" width="87" height="32" rx="4" fill="#004B76"/>
<path d="M145.757 57.112C145.757 55.474 144.763 54.452 143.265 54.452C142.341 54.452 141.655 54.746 141.179 55.096C141.277 52.856 142.425 51.764 143.993 51.764C144.693 51.764 145.085 51.946 145.197 52.002L145.393 51.022C145.197 50.938 144.791 50.756 143.923 50.756C141.977 50.756 140.003 52.184 140.003 55.53C140.003 58.932 141.249 60.192 143.069 60.192C144.749 60.192 145.757 59.03 145.757 57.112ZM142.859 55.46C144.035 55.46 144.623 56.16 144.623 57.266C144.623 58.554 144.049 59.184 143.125 59.184C141.949 59.184 141.249 58.288 141.179 56.006C141.557 55.712 142.103 55.46 142.859 55.46Z" fill="#0B0C0C"/>
<path d="M151.021 55.292H147.241V56.216H151.021V55.292Z" fill="#0B0C0C"/>
<path d="M152.636 56.79C152.636 58.988 153.756 60.192 155.226 60.192C156.584 60.192 157.046 59.52 157.228 59.268H157.256V60.024H158.306V50L157.172 50.126V53.416C156.92 53.304 156.5 53.178 155.912 53.178C154.288 53.178 152.636 54.2 152.636 56.79ZM153.812 56.706C153.812 54.886 154.666 54.186 155.968 54.186C156.57 54.186 156.948 54.354 157.172 54.522V58.4C156.976 58.638 156.556 59.142 155.646 59.142C154.638 59.142 153.812 58.484 153.812 56.706Z" fill="#0B0C0C"/>
<path d="M161.768 50.882C161.768 50.392 161.404 50.07 160.956 50.07C160.508 50.07 160.158 50.392 160.158 50.882C160.158 51.372 160.508 51.68 160.956 51.68C161.404 51.68 161.768 51.372 161.768 50.882ZM161.516 53.304H160.382V60.024H161.516V53.304Z" fill="#0B0C0C"/>
<path d="M168.971 60.542C168.971 59.352 168.159 58.764 166.745 58.764H165.373C164.869 58.764 164.659 58.568 164.659 58.288C164.659 57.924 164.995 57.728 165.219 57.63C165.401 57.658 165.583 57.672 165.779 57.672C167.277 57.672 168.411 56.832 168.411 55.404C168.411 54.942 168.271 54.536 168.033 54.186H169.055L169.195 53.304H166.871C166.563 53.192 166.227 53.136 165.863 53.136C164.449 53.136 163.315 53.892 163.315 55.404C163.315 56.398 163.763 57.056 164.449 57.392V57.42C164.267 57.504 163.651 57.84 163.651 58.54C163.651 58.918 163.777 59.254 164.071 59.492V59.52C163.665 59.73 162.895 60.15 162.895 61.172C162.895 62.376 163.819 62.992 165.415 62.992C167.753 62.992 168.971 61.816 168.971 60.542ZM167.305 55.404C167.305 56.37 166.619 56.734 165.849 56.734C165.107 56.734 164.421 56.37 164.421 55.404C164.421 54.438 165.107 54.074 165.877 54.074C166.619 54.074 167.305 54.438 167.305 55.404ZM163.987 60.948C163.987 60.318 164.351 59.968 164.687 59.758C164.855 59.8 165.051 59.814 165.261 59.814H166.745C167.501 59.814 167.837 60.066 167.837 60.71C167.837 61.396 167.137 62.026 165.499 62.026C164.491 62.026 163.987 61.704 163.987 60.948Z" fill="#0B0C0C"/>
<path d="M171.954 50.882C171.954 50.392 171.59 50.07 171.142 50.07C170.694 50.07 170.344 50.392 170.344 50.882C170.344 51.372 170.694 51.68 171.142 51.68C171.59 51.68 171.954 51.372 171.954 50.882ZM171.702 53.304H170.568V60.024H171.702V53.304Z" fill="#0B0C0C"/>
<path d="M177.071 53.304H175.195V51.428H174.187L174.061 53.304L173.137 53.472V54.27H174.061V57.896C174.061 59.436 174.607 60.192 175.881 60.192C176.595 60.192 176.973 59.982 177.113 59.898L176.973 58.96C176.833 59.03 176.553 59.142 176.147 59.142C175.461 59.142 175.195 58.764 175.195 57.742V54.27H176.931L177.071 53.304Z" fill="#0B0C0C"/>
<path d="M187.998 53.276C187.998 51.414 186.822 50.364 184.022 50.364H181.894V60.024H183.112V56.538H183.952C186.766 56.538 187.998 55.264 187.998 53.276ZM186.696 53.346C186.696 54.732 185.898 55.558 183.952 55.558H183.112V51.372H184.022C185.926 51.372 186.696 52.044 186.696 53.346Z" fill="#0B0C0C"/>
<path d="M190.397 59.1H189.179V60.024H192.833V59.1H191.615V51.246H192.791V50.364H189.221V51.246H190.397V59.1Z" fill="#0B0C0C"/>
<path d="M201.998 50.364H200.78V57.784H200.752L195.894 50.364H194.76V60.024H195.978V52.562H196.006L200.864 60.024H201.998V50.364Z" fill="#0B0C0C"/>
<path d="M137.765 28.2522C137.826 28.498 137.969 28.6824 138.193 28.8054C138.418 28.9283 138.653 28.9591 138.898 28.8976C139.143 28.8362 139.327 28.6929 139.45 28.4677L140.39 26.8007L141.33 28.4677C141.453 28.6929 141.637 28.8362 141.882 28.8976C142.127 28.9591 142.362 28.9283 142.586 28.8054C142.811 28.6824 142.954 28.498 143.015 28.2522C143.076 28.0063 143.045 27.7717 142.92 27.5482L141.98 25.8812H143.86C144.126 25.8812 144.346 25.7942 144.519 25.6202C144.693 25.4462 144.78 25.2265 144.78 24.961C144.78 24.6956 144.693 24.4761 144.519 24.3026C144.346 24.129 144.126 24.0422 143.86 24.0422H141.98L142.92 22.4524C143.045 22.2289 143.076 21.9943 143.015 21.7484C142.954 21.5026 142.811 21.3182 142.586 21.1952C142.362 21.0723 142.127 21.0415 141.882 21.103C141.637 21.1644 141.453 21.3077 141.33 21.5329L140.39 23.1228L139.45 21.5329C139.327 21.3077 139.143 21.1644 138.898 21.103C138.653 21.0415 138.418 21.0723 138.193 21.1952C137.969 21.3182 137.826 21.5026 137.765 21.7484C137.704 21.9943 137.735 22.2289 137.86 22.4524L138.8 24.0422H136.92C136.654 24.0422 136.434 24.1292 136.261 24.3033C136.087 24.4773 136 24.697 136 24.9624C136 25.2279 136.087 25.4473 136.261 25.6209C136.434 25.7945 136.654 25.8812 136.92 25.8812H138.8L137.86 27.5482C137.735 27.7717 137.704 28.0063 137.765 28.2522Z" fill="white"/>
<path d="M150.104 28.2522C150.165 28.498 150.308 28.6824 150.533 28.8054C150.757 28.9283 150.992 28.9591 151.237 28.8976C151.482 28.8362 151.666 28.6929 151.789 28.4677L152.729 26.8007L153.669 28.4677C153.792 28.6929 153.976 28.8362 154.221 28.8976C154.466 28.9591 154.701 28.9283 154.926 28.8054C155.15 28.6824 155.293 28.498 155.354 28.2522C155.416 28.0063 155.384 27.7717 155.259 27.5482L154.319 25.8812H156.2C156.465 25.8812 156.685 25.7942 156.859 25.6202C157.032 25.4462 157.119 25.2265 157.119 24.961C157.119 24.6956 157.032 24.4761 156.859 24.3026C156.685 24.129 156.465 24.0422 156.2 24.0422H154.319L155.259 22.4524C155.384 22.2289 155.416 21.9943 155.354 21.7484C155.293 21.5026 155.15 21.3182 154.926 21.1952C154.701 21.0723 154.466 21.0415 154.221 21.103C153.976 21.1644 153.792 21.3077 153.669 21.5329L152.729 23.1228L151.789 21.5329C151.666 21.3077 151.482 21.1644 151.237 21.103C150.992 21.0415 150.757 21.0723 150.533 21.1952C150.308 21.3182 150.165 21.5026 150.104 21.7484C150.043 21.9943 150.074 22.2289 150.199 22.4524L151.139 24.0422H149.259C148.993 24.0422 148.773 24.1292 148.6 24.3033C148.426 24.4773 148.339 24.697 148.339 24.9624C148.339 25.2279 148.426 25.4473 148.6 25.6209C148.773 25.7945 148.993 25.8812 149.259 25.8812H151.139L150.199 27.5482C150.074 27.7717 150.043 28.0063 150.104 28.2522Z" fill="white"/>
<path d="M162.443 28.2522C162.504 28.498 162.647 28.6824 162.872 28.8054C163.096 28.9283 163.331 28.9591 163.576 28.8976C163.822 28.8362 164.005 28.6929 164.128 28.4677L165.068 26.8007L166.009 28.4677C166.131 28.6929 166.315 28.8362 166.56 28.8976C166.806 28.9591 167.04 28.9283 167.265 28.8054C167.489 28.6824 167.632 28.498 167.694 28.2522C167.755 28.0063 167.723 27.7717 167.598 27.5482L166.658 25.8812H168.539C168.804 25.8812 169.024 25.7942 169.198 25.6202C169.371 25.4462 169.458 25.2265 169.458 24.961C169.458 24.6956 169.371 24.4761 169.198 24.3026C169.024 24.129 168.804 24.0422 168.539 24.0422H166.658L167.598 22.4524C167.723 22.2289 167.755 21.9943 167.694 21.7484C167.632 21.5026 167.489 21.3182 167.265 21.1952C167.04 21.0723 166.806 21.0415 166.56 21.103C166.315 21.1644 166.131 21.3077 166.009 21.5329L165.068 23.1228L164.128 21.5329C164.005 21.3077 163.822 21.1644 163.576 21.103C163.331 21.0415 163.096 21.0723 162.872 21.1952C162.647 21.3182 162.504 21.5026 162.443 21.7484C162.382 21.9943 162.414 22.2289 162.538 22.4524L163.479 24.0422H161.598C161.332 24.0422 161.113 24.1292 160.939 24.3033C160.765 24.4773 160.678 24.697 160.678 24.9624C160.678 25.2279 160.765 25.4473 160.939 25.6209C161.113 25.7945 161.332 25.8812 161.598 25.8812H163.479L162.538 27.5482C162.414 27.7717 162.382 28.0063 162.443 28.2522Z" fill="white"/>
<path d="M174.306 28.2522C174.368 28.498 174.511 28.6824 174.735 28.8054C174.96 28.9283 175.194 28.9591 175.44 28.8976C175.685 28.8362 175.869 28.6929 175.991 28.4677L176.932 26.8007L177.872 28.4677C177.995 28.6929 178.178 28.8362 178.424 28.8976C178.669 28.9591 178.904 28.9283 179.128 28.8054C179.353 28.6824 179.496 28.498 179.557 28.2522C179.618 28.0063 179.586 27.7717 179.462 27.5482L178.521 25.8812H180.402C180.668 25.8812 180.887 25.7942 181.061 25.6202C181.235 25.4462 181.322 25.2265 181.322 24.961C181.322 24.6956 181.235 24.4761 181.061 24.3026C180.887 24.129 180.668 24.0422 180.402 24.0422H178.521L179.462 22.4524C179.586 22.2289 179.618 21.9943 179.557 21.7484C179.496 21.5026 179.353 21.3182 179.128 21.1952C178.904 21.0723 178.669 21.0415 178.424 21.103C178.178 21.1644 177.995 21.3077 177.872 21.5329L176.932 23.1228L175.991 21.5329C175.869 21.3077 175.685 21.1644 175.44 21.103C175.194 21.0415 174.96 21.0723 174.735 21.1952C174.511 21.3182 174.368 21.5026 174.306 21.7484C174.245 21.9943 174.277 22.2289 174.402 22.4524L175.342 24.0422H173.461C173.196 24.0422 172.976 24.1292 172.802 24.3033C172.629 24.4773 172.542 24.697 172.542 24.9624C172.542 25.2279 172.629 25.4473 172.802 25.6209C172.976 25.7945 173.196 25.8812 173.461 25.8812H175.342L174.402 27.5482C174.277 27.7717 174.245 28.0063 174.306 28.2522Z" fill="white"/>
<path d="M186.646 28.2522C186.707 28.498 186.85 28.6824 187.074 28.8054C187.299 28.9283 187.534 28.9591 187.779 28.8976C188.024 28.8362 188.208 28.6929 188.331 28.4677L189.271 26.8007L190.211 28.4677C190.334 28.6929 190.518 28.8362 190.763 28.8976C191.008 28.9591 191.243 28.9283 191.467 28.8054C191.692 28.6824 191.835 28.498 191.896 28.2522C191.957 28.0063 191.926 27.7717 191.801 27.5482L190.861 25.8812H192.741C193.007 25.8812 193.227 25.7942 193.4 25.6202C193.574 25.4462 193.661 25.2265 193.661 24.961C193.661 24.6956 193.574 24.4761 193.4 24.3026C193.227 24.129 193.007 24.0422 192.741 24.0422H190.861L191.801 22.4524C191.926 22.2289 191.957 21.9943 191.896 21.7484C191.835 21.5026 191.692 21.3182 191.467 21.1952C191.243 21.0723 191.008 21.0415 190.763 21.103C190.518 21.1644 190.334 21.3077 190.211 21.5329L189.271 23.1228L188.331 21.5329C188.208 21.3077 188.024 21.1644 187.779 21.103C187.534 21.0415 187.299 21.0723 187.074 21.1952C186.85 21.3182 186.707 21.5026 186.646 21.7484C186.584 21.9943 186.616 22.2289 186.741 22.4524L187.681 24.0422H185.8C185.535 24.0422 185.315 24.1292 185.141 24.3033C184.968 24.4773 184.881 24.697 184.881 24.9624C184.881 25.2279 184.968 25.4473 185.141 25.6209C185.315 25.7945 185.535 25.8812 185.8 25.8812H187.681L186.741 27.5482C186.616 27.7717 186.584 28.0063 186.646 28.2522Z" fill="white"/>
<path d="M198.985 28.2522C199.046 28.498 199.189 28.6824 199.414 28.8054C199.638 28.9283 199.873 28.9591 200.118 28.8976C200.363 28.8362 200.547 28.6929 200.67 28.4677L201.61 26.8007L202.55 28.4677C202.673 28.6929 202.857 28.8362 203.102 28.8976C203.347 28.9591 203.582 28.9283 203.807 28.8054C204.031 28.6824 204.174 28.498 204.235 28.2522C204.296 28.0063 204.265 27.7717 204.14 27.5482L203.2 25.8812H205.081C205.346 25.8812 205.566 25.7942 205.739 25.6202C205.913 25.4462 206 25.2265 206 24.961C206 24.6956 205.913 24.4761 205.739 24.3026C205.566 24.129 205.346 24.0422 205.081 24.0422H203.2L204.14 22.4524C204.265 22.2289 204.296 21.9943 204.235 21.7484C204.174 21.5026 204.031 21.3182 203.807 21.1952C203.582 21.0723 203.347 21.0415 203.102 21.103C202.857 21.1644 202.673 21.3077 202.55 21.5329L201.61 23.1228L200.67 21.5329C200.547 21.3077 200.363 21.1644 200.118 21.103C199.873 21.0415 199.638 21.0723 199.414 21.1952C199.189 21.3182 199.046 21.5026 198.985 21.7484C198.924 21.9943 198.955 22.2289 199.08 22.4524L200.02 24.0422H198.14C197.874 24.0422 197.654 24.1292 197.481 24.3033C197.307 24.4773 197.22 24.697 197.22 24.9624C197.22 25.2279 197.307 25.4473 197.481 25.6209C197.654 25.7945 197.874 25.8812 198.14 25.8812H200.02L199.08 27.5482C198.955 27.7717 198.924 28.0063 198.985 28.2522Z" fill="white"/>
<path d="M227.148 34.0195H234.348V35.2795H227.148V34.0195ZM227.148 36.7195H234.348V37.9795H227.148V36.7195Z" fill="#0B0C0C"/>
<g clip-path="url(#clip1_795_37556)">
<path fill-rule="evenodd" clip-rule="evenodd" d="M271 60C284.255 60 295 49.2548 295 36C295 22.7452 284.255 12 271 12C257.745 12 247 22.7452 247 36C247 49.2548 257.745 60 271 60ZM271 57.3333C282.782 57.3333 292.333 47.7821 292.333 36C292.333 24.2179 282.782 14.6667 271 14.6667C259.218 14.6667 249.667 24.2179 249.667 36C249.667 47.7821 259.218 57.3333 271 57.3333Z" fill="white"/>
<circle cx="271" cy="36.0001" r="21.3333" fill="#006538"/>
<mask id="mask0_795_37556" style="mask-type:alpha" maskUnits="userSpaceOnUse" x="260" y="25" width="22" height="22">
<rect x="260.333" y="25.3333" width="21.3333" height="21.3333" fill="#D9D9D9"/>
</mask>
<g mask="url(#mask0_795_37556)">
<path d="M268.822 41.3327L263.755 36.266L265.022 34.9994L268.822 38.7994L276.977 30.6438L278.244 31.9105L268.822 41.3327Z" fill="white"/>
</g>
</g>
<defs>
<linearGradient id="paint0_linear_795_37556" x1="-0.0041531" y1="36.0062" x2="94.724" y2="36.0062" gradientUnits="userSpaceOnUse">
<stop stop-color="#E9EDDA"/>
<stop offset="1" stop-color="#F6DAB1"/>
</linearGradient>
<clipPath id="clip0_795_37556">
<rect width="95" height="60" fill="white" transform="translate(0 6)"/>
</clipPath>
<clipPath id="clip1_795_37556">
<rect width="48" height="48" fill="white" transform="translate(247 12)"/>
</clipPath>
</defs>
</svg>
