<svg width="375" height="271" viewBox="0 0 375 271" fill="none" xmlns="http://www.w3.org/2000/svg">
<g filter="url(#filter0_d_6829_81536)">
<path d="M24 38.9C24 32.8801 28.8801 28 34.9 28H340.1C346.12 28 351 32.8801 351 38.9V223.11C351 229.13 346.12 234.01 340.1 234.01H34.9C28.8801 234.01 24 229.13 24 223.11V38.9Z" fill="url(#paint0_linear_6829_81536)"/>
<rect opacity="0.7" x="254.535" y="38.9004" width="85.565" height="6.54" rx="3.27" fill="#B8BDC3"/>
<rect opacity="0.7" x="34.9004" y="38.9004" width="146.06" height="6.54" rx="3.27" fill="#B8BDC3"/>
<rect opacity="0.7" x="34.9004" y="53.6152" width="79.57" height="6.54" rx="3.27" fill="#B8BDC3"/>
<rect opacity="0.7" x="248.541" y="135.91" width="44.69" height="7.63" rx="3.815" fill="#B8BDC3"/>
<rect opacity="0.7" x="174.42" y="135.91" width="65.4" height="7.63" rx="3.815" fill="#B8BDC3"/>
<rect opacity="0.7" x="174.42" y="188.23" width="63.22" height="7.63" rx="3.815" fill="#B8BDC3"/>
<rect opacity="0.7" x="174.42" y="110.84" width="85.02" height="7.63" rx="3.815" fill="#B8BDC3"/>
<rect opacity="0.7" x="174.42" y="86.8604" width="73.03" height="7.63" rx="3.815" fill="#B8BDC3"/>
<rect opacity="0.7" x="174.42" y="152.26" width="56.68" height="7.63" rx="3.815" fill="#B8BDC3"/>
<path d="M34.9004 86.8606C34.9004 83.8083 34.9004 82.2822 35.4944 81.1164C36.0169 80.0909 36.8507 79.2571 37.8761 78.7346C39.042 78.1406 40.5681 78.1406 43.6204 78.1406H148.26C151.313 78.1406 152.839 78.1406 154.005 78.7346C155.03 79.2571 155.864 80.0909 156.386 81.1164C156.98 82.2822 156.98 83.8083 156.98 86.8606V213.846C156.98 216.898 156.98 218.424 156.386 219.59C155.864 220.615 155.03 221.449 154.005 221.972C152.839 222.566 151.313 222.566 148.26 222.566H43.6204C40.5681 222.566 39.042 222.566 37.8761 221.972C36.8507 221.449 36.0169 220.615 35.4944 219.59C34.9004 218.424 34.9004 216.898 34.9004 213.846V86.8606Z" fill="#EDEEF0"/>
<g opacity="0.8">
<path d="M128.64 131.55C128.64 151.416 114 167.52 95.9404 167.52C77.8807 167.52 63.2404 151.416 63.2404 131.55C63.2404 111.684 77.8807 95.5801 95.9404 95.5801C114 95.5801 128.64 111.684 128.64 131.55Z" fill="#6693AD"/>
<path d="M156.98 192.107V213.845C156.98 216.897 156.98 218.424 156.386 219.589C155.864 220.615 155.03 221.449 154.005 221.971C152.839 222.565 151.313 222.565 148.26 222.565H43.6204C40.5681 222.565 39.042 222.565 37.8761 221.971C36.8507 221.449 36.0169 220.615 35.4944 219.589C34.9004 218.424 34.9004 216.897 34.9004 213.845V192.107C49.288 183.093 71.2866 177.33 95.9404 177.33C120.594 177.33 142.593 183.093 156.98 192.107Z" fill="#6693AD"/>
</g>
</g>
<path d="M277.946 190.038H276.921L274.024 191.144L274.333 192.219L276.628 191.372V199.445H274.236V200.617H280.339V199.445H277.946V190.038Z" fill="black"/>
<path d="M289.893 192.821C289.893 191.063 288.916 189.842 286.882 189.842C285.173 189.842 284.18 190.737 283.855 191.079L284.441 192.04C284.717 191.763 285.466 191.014 286.735 191.014C287.989 191.014 288.526 191.779 288.526 193.032C288.526 194.969 287.533 195.864 284.001 199.608L284.099 200.617H290.072V199.445H285.726V199.413C288.444 196.646 289.893 195.148 289.893 192.821Z" fill="black"/>
<path d="M299.691 192.398C299.691 190.705 298.682 189.842 297.054 189.842C295.638 189.842 294.694 190.542 294.336 190.933L294.841 191.877C295.183 191.519 295.85 191.014 296.827 191.014C297.803 191.014 298.373 191.616 298.373 192.577C298.373 193.797 297.608 194.741 295.98 194.741H295.378L295.443 195.864H295.785C297.575 195.864 298.568 196.597 298.568 197.98C298.568 199.038 297.933 199.592 296.713 199.592C295.541 199.592 294.906 198.875 294.629 198.566L294.011 199.689C294.369 200.08 295.232 200.812 296.778 200.812C298.78 200.812 299.935 199.673 299.935 197.915C299.935 196.32 298.991 195.555 297.803 195.246V195.213C298.877 194.806 299.691 193.944 299.691 192.398Z" fill="black"/>
<path d="M310.596 196.694H309.245V190.038H308.122L303.646 196.743L303.744 197.818H307.976V200.617H309.245V197.818H310.596V196.694ZM307.976 196.694H304.932L307.943 192.121H307.976V196.694Z" fill="black"/>
<path d="M319.906 190.038H315.218L314.795 195.181C317.823 195.197 319.043 195.946 319.043 197.671C319.043 198.908 318.327 199.592 316.976 199.592C315.69 199.592 314.909 198.762 314.616 198.436L313.981 199.559C314.323 199.917 315.137 200.812 317.025 200.812C319.19 200.812 320.41 199.461 320.41 197.508C320.41 195.425 319.108 194.237 316.114 194.058L316.341 191.258H319.906V190.038Z" fill="black"/>
<path d="M330.843 197.232C330.843 195.327 329.688 194.139 327.946 194.139C326.872 194.139 326.075 194.481 325.521 194.888C325.635 192.284 326.97 191.014 328.793 191.014C329.606 191.014 330.062 191.226 330.192 191.291L330.42 190.152C330.192 190.054 329.72 189.842 328.711 189.842C326.449 189.842 324.154 191.502 324.154 195.392C324.154 199.347 325.602 200.812 327.718 200.812C329.671 200.812 330.843 199.461 330.843 197.232ZM327.474 195.311C328.841 195.311 329.525 196.125 329.525 197.411C329.525 198.908 328.858 199.64 327.783 199.64C326.416 199.64 325.602 198.599 325.521 195.946C325.961 195.604 326.595 195.311 327.474 195.311Z" fill="black"/>
<path fill-rule="evenodd" clip-rule="evenodd" d="M268.026 180C265.803 180 264 181.803 264 184.026V206.17C264 208.393 265.803 210.196 268.026 210.196H335.464C337.687 210.196 339.49 208.393 339.49 206.17V184.026C339.49 181.803 337.687 180 335.464 180H268.026ZM269.033 183.02C267.921 183.02 267.02 183.921 267.02 185.033V205.163C267.02 206.275 267.921 207.176 269.033 207.176H334.457C335.569 207.176 336.47 206.275 336.47 205.163V185.033C336.47 183.921 335.569 183.02 334.457 183.02H269.033Z" fill="#004B76"/>
<defs>
<filter id="filter0_d_6829_81536" x="-8" y="0" width="391" height="270.01" filterUnits="userSpaceOnUse" color-interpolation-filters="sRGB">
<feFlood flood-opacity="0" result="BackgroundImageFix"/>
<feColorMatrix in="SourceAlpha" type="matrix" values="0 0 0 0 0 0 0 0 0 0 0 0 0 0 0 0 0 0 127 0" result="hardAlpha"/>
<feOffset dy="4"/>
<feGaussianBlur stdDeviation="16"/>
<feComposite in2="hardAlpha" operator="out"/>
<feColorMatrix type="matrix" values="0 0 0 0 0 0 0 0 0 0 0 0 0 0 0 0 0 0 0.04 0"/>
<feBlend mode="normal" in2="BackgroundImageFix" result="effect1_dropShadow_6829_81536"/>
<feBlend mode="normal" in="SourceGraphic" in2="effect1_dropShadow_6829_81536" result="shape"/>
</filter>
<linearGradient id="paint0_linear_6829_81536" x1="351" y1="131.005" x2="24" y2="131.005" gradientUnits="userSpaceOnUse">
<stop stop-color="#D1DAAB"/>
<stop offset="0.510417" stop-color="#EADDC4"/>
<stop offset="1" stop-color="#FCE4C5"/>
</linearGradient>
</defs>
</svg>
